<?xml version="1.0" encoding="UTF-8"?>
<svg xmlns="http://www.w3.org/2000/svg" xmlns:xlink="http://www.w3.org/1999/xlink" width="200px" height="56px" viewBox="0 0 200 56" version="1.1">
<g id="surface1">
<path style=" stroke:none;fill-rule:nonzero;fill:rgb(30.980393%,66.666669%,10.196079%);fill-opacity:1;" d="M 22.6875 29.96875 C 23.246094 29.96875 23.796875 29.96875 24.371094 29.972656 C 24.921875 29.96875 25.472656 29.96875 26.046875 29.96875 C 27.410156 30.035156 27.410156 30.035156 27.921875 30.546875 C 28.035156 31.65625 28.125 32.777344 28.203125 33.878906 C 28.25 34.496094 28.285156 35.109375 28.339844 35.734375 C 28.371094 36.203125 28.402344 36.683594 28.433594 37.160156 C 28.859375 36.691406 29.296875 36.21875 29.746094 35.734375 C 30.308594 35.121094 30.875 34.5 31.4375 33.878906 C 31.722656 33.578125 32.015625 33.265625 32.308594 32.941406 C 32.578125 32.652344 32.847656 32.347656 33.128906 32.035156 C 33.390625 31.765625 33.640625 31.496094 33.902344 31.214844 C 35.28125 29.71875 36.222656 29.910156 38.296875 29.828125 C 39.339844 29.796875 40.371094 29.765625 41.40625 29.75 C 42.121094 29.722656 42.828125 29.703125 43.546875 29.660156 C 49.472656 29.359375 49.472656 29.359375 51.390625 31.027344 C 52.171875 32.191406 52.75 33.316406 53.296875 34.621094 C 54.253906 36.484375 54.253906 36.484375 55.839844 37.671875 C 55.890625 37.390625 55.941406 37.109375 56 36.816406 C 56.410156 35.390625 57.066406 34.277344 57.839844 32.996094 C 58.097656 32.546875 58.371094 32.097656 58.640625 31.640625 C 59.390625 30.546875 59.390625 30.546875 60.40625 30.035156 C 61.527344 30 62.652344 29.996094 63.765625 30.003906 C 64.375 30.003906 64.972656 30.015625 65.59375 30.015625 C 66.0625 30.027344 66.527344 30.03125 67.003906 30.035156 C 67.371094 30.878906 67.371094 30.878906 67.515625 32.066406 C 66.816406 33.390625 66.816406 33.390625 65.765625 34.875 C 65.402344 35.410156 65.027344 35.964844 64.640625 36.527344 C 63.890625 37.59375 63.121094 38.597656 62.296875 39.621094 C 59.265625 43.566406 58.902344 46.78125 58.902344 51.621094 C 58.878906 53.453125 58.878906 53.453125 58.375 53.964844 C 57.277344 54.015625 56.183594 54.03125 55.078125 54.027344 C 54.472656 54.03125 53.875 54.03125 53.25 54.03125 C 51.777344 53.964844 51.777344 53.964844 51.265625 53.453125 C 51.253906 52.453125 51.25 51.464844 51.25 50.464844 C 51.191406 45.21875 49.996094 42.328125 46.703125 38.183594 C 46.03125 37.140625 45.375 36.089844 44.734375 35.03125 C 43.722656 33.234375 43.722656 33.234375 42.128906 32.066406 C 42.128906 32.40625 42.128906 32.746094 42.128906 33.09375 C 41.796875 33.09375 41.464844 33.09375 41.121094 33.09375 C 41 33.375 40.878906 33.65625 40.753906 33.953125 C 39.671875 35.902344 38.003906 37.347656 36.441406 38.933594 C 35.421875 40.125 35.421875 40.125 35.515625 41.441406 C 36.191406 43.15625 37.15625 44.59375 38.222656 46.066406 C 38.433594 46.359375 38.625 46.640625 38.828125 46.933594 C 39.765625 48.253906 40.71875 49.5 41.808594 50.703125 C 42.640625 51.933594 42.640625 51.933594 42.515625 53.359375 C 42.390625 53.722656 42.253906 54.09375 42.128906 54.472656 C 35.371094 54.984375 35.371094 54.984375 33.128906 53.308594 C 31.1875 51.253906 29.6875 48.847656 28.433594 46.328125 C 28.253906 48.84375 28.09375 51.371094 27.921875 53.964844 C 25.566406 53.964844 23.222656 53.964844 20.8125 53.964844 C 20.796875 50.640625 20.785156 47.3125 20.78125 43.984375 C 20.78125 42.847656 20.78125 41.71875 20.777344 40.589844 C 20.765625 38.96875 20.765625 37.34375 20.765625 35.71875 C 20.753906 35.214844 20.753906 34.691406 20.753906 34.171875 C 20.753906 33.703125 20.753906 33.234375 20.753906 32.75 C 20.75 32.339844 20.75 31.921875 20.75 31.496094 C 20.847656 29.964844 21.140625 30.046875 22.6875 29.96875 Z M 22.6875 29.96875 "/>
<path style=" stroke:none;fill-rule:nonzero;fill:rgb(30.19608%,66.274512%,8.627451%);fill-opacity:1;" d="M 160.40625 0.503906 C 168.285156 1.222656 174.996094 4.777344 180.121094 10.753906 C 182.34375 13.828125 183.3125 17.234375 184.265625 20.875 C 184.578125 20.464844 184.578125 20.464844 184.902344 20.035156 C 187.46875 16.84375 189.421875 15.609375 193.453125 15.058594 C 197.714844 14.628906 197.714844 14.628906 198.984375 15.277344 C 198.984375 15.777344 198.984375 16.28125 198.984375 16.796875 C 198.652344 16.796875 198.3125 16.796875 197.96875 16.796875 C 197.96875 17.308594 197.96875 17.808594 197.96875 18.328125 C 197.628906 18.328125 197.296875 18.328125 196.953125 18.328125 C 196.902344 18.691406 196.84375 19.0625 196.78125 19.441406 C 196.433594 20.9375 195.910156 22.003906 195.152344 23.316406 C 194.910156 23.722656 194.6875 24.125 194.441406 24.535156 C 194.265625 24.84375 194.09375 25.140625 193.90625 25.453125 C 193.566406 25.453125 193.246094 25.453125 192.890625 25.453125 C 192.890625 25.785156 192.890625 26.125 192.890625 26.472656 C 192.296875 26.839844 191.691406 27.183594 191.089844 27.527344 C 190.75 27.71875 190.410156 27.910156 190.066406 28.121094 C 188.359375 28.65625 187.015625 28.339844 185.28125 28 C 185.25 28.339844 185.222656 28.660156 185.191406 29.015625 C 185.0625 30.527344 184.9375 32.03125 184.808594 33.535156 C 184.753906 34.0625 184.71875 34.589844 184.671875 35.128906 C 184.625 35.628906 184.578125 36.128906 184.535156 36.652344 C 184.472656 37.34375 184.472656 37.34375 184.410156 38.058594 C 184.265625 39.203125 184.265625 39.203125 183.753906 40.21875 C 182.921875 40.046875 182.078125 39.878906 181.21875 39.714844 C 180.878906 36.015625 180.546875 32.316406 180.203125 28.503906 C 179.371094 29.015625 178.53125 29.515625 177.660156 30.035156 C 174.765625 29.984375 172.9375 29 170.558594 27.496094 C 170.558594 27.15625 170.558594 26.816406 170.558594 26.472656 C 170.222656 26.472656 169.890625 26.472656 169.546875 26.472656 C 169.546875 26.140625 169.546875 25.796875 169.546875 25.453125 C 169.214844 25.453125 168.875 25.453125 168.53125 25.453125 C 167.8125 24.5 167.8125 24.5 167.035156 23.191406 C 166.78125 22.777344 166.527344 22.359375 166.253906 21.921875 C 164.453125 18.3125 163.609375 14.484375 162.847656 10.53125 C 162.714844 9.859375 162.714844 9.859375 162.578125 9.171875 C 162.191406 7.246094 161.933594 5.546875 161.933594 3.5625 C 161.59375 3.5625 161.253906 3.5625 160.910156 3.5625 C 160.75 2.558594 160.578125 1.546875 160.40625 0.503906 Z M 160.40625 0.503906 "/>
<path style=" stroke:none;fill-rule:nonzero;fill:rgb(70.19608%,98.823529%,30.980393%);fill-opacity:1;" d="M 90.347656 31.5625 C 91.714844 32.484375 92.746094 33.441406 93.90625 34.621094 C 93.714844 35.84375 93.53125 36.515625 92.660156 37.433594 C 90.191406 39.214844 90.191406 39.214844 88.453125 39.171875 C 87.3125 38.6875 87.3125 38.6875 85.785156 37.671875 C 83.28125 37.265625 81.3125 37.3125 79.125 38.625 C 77.785156 40.871094 77.714844 42.753906 78.171875 45.3125 C 79.089844 46.808594 79.660156 47.589844 81.21875 48.371094 C 84.308594 48.484375 84.308594 48.484375 87.3125 47.847656 C 87.3125 47.515625 87.3125 47.183594 87.3125 46.839844 C 86.746094 46.9375 86.183594 47.046875 85.59375 47.15625 C 84.996094 47.21875 84.378906 47.28125 83.753906 47.34375 C 82.746094 46.328125 82.746094 46.328125 82.625 45.253906 C 82.628906 44.65625 82.628906 44.65625 82.652344 44.035156 C 82.652344 43.628906 82.65625 43.222656 82.65625 42.8125 C 82.746094 41.746094 82.746094 41.746094 83.25 40.722656 C 86.765625 40.722656 90.28125 40.722656 93.90625 40.722656 C 93.984375 42.34375 94.058594 43.964844 94.128906 45.625 C 94.183594 46.378906 94.183594 46.378906 94.222656 47.15625 C 94.296875 50.375 94.296875 50.375 93.1875 51.878906 C 89.785156 54.933594 86.171875 55.4375 81.722656 55.496094 C 78.484375 55.152344 75.4375 53.902344 73.234375 51.46875 C 70.214844 47.59375 70.1875 44.0625 70.558594 39.203125 C 71.265625 36.246094 72.691406 34.046875 75.097656 32.1875 C 79.9375 29.308594 85.25 29.515625 90.347656 31.5625 Z M 90.347656 31.5625 "/>
<path style=" stroke:none;fill-rule:nonzero;fill:rgb(70.19608%,98.823529%,30.980393%);fill-opacity:1;" d="M 96.953125 31.058594 C 99.234375 31.027344 101.515625 30.996094 103.871094 30.964844 C 104.589844 30.941406 105.296875 30.933594 106.03125 30.910156 C 106.597656 30.910156 107.171875 30.90625 107.753906 30.90625 C 108.628906 30.890625 108.628906 30.890625 109.515625 30.878906 C 111.808594 31.125 113.527344 31.875 115.140625 33.527344 C 116.527344 36.058594 116.464844 39.214844 115.859375 41.96875 C 115.222656 43.277344 115.222656 43.277344 114.34375 44.285156 C 113.546875 45.308594 113.546875 45.308594 113.964844 46.652344 C 114.816406 48.589844 115.753906 50.46875 116.746094 52.347656 C 117.253906 53.453125 117.253906 53.453125 117.253906 54.472656 C 114.746094 54.96875 112.121094 55.464844 109.625 54.640625 C 108.25 53.703125 107.878906 52.6875 107.234375 51.160156 C 107.015625 50.660156 106.796875 50.160156 106.578125 49.652344 C 106.09375 48.371094 106.09375 48.371094 106.09375 47.34375 C 105.421875 47.34375 104.75 47.34375 104.0625 47.34375 C 104.0625 49.691406 104.0625 52.046875 104.0625 54.472656 C 101.527344 54.984375 101.527344 54.984375 96.953125 54.472656 C 96.953125 46.746094 96.953125 39.015625 96.953125 31.058594 Z M 104.0625 37.160156 C 104.0625 38.339844 104.0625 39.515625 104.0625 40.722656 C 106.316406 40.472656 106.316406 40.472656 108.628906 40.21875 C 108.652344 39.371094 108.652344 38.527344 108.628906 37.671875 C 108.128906 37.0625 108.128906 37.0625 107.1875 37.121094 C 106.140625 37.128906 105.097656 37.152344 104.0625 37.160156 Z M 104.0625 37.160156 "/>
<path style=" stroke:none;fill-rule:nonzero;fill:rgb(70.588237%,98.823529%,32.941177%);fill-opacity:1;" d="M 158.375 30.035156 C 160.625 30.160156 161.984375 31.871094 163.515625 33.34375 C 165.359375 35.214844 165.359375 35.214844 167.515625 36.65625 C 167.515625 36.996094 167.515625 37.328125 167.515625 37.671875 C 167.808594 37.796875 168.097656 37.921875 168.402344 38.058594 C 169.546875 38.6875 169.546875 38.6875 171.566406 40.722656 C 171.746094 37.535156 171.90625 34.34375 172.078125 31.058594 C 174.433594 31.058594 176.777344 31.058594 179.1875 31.058594 C 179.1875 38.953125 179.1875 46.84375 179.1875 54.984375 C 178.183594 54.984375 177.183594 54.984375 176.140625 54.984375 C 176.140625 54.652344 176.140625 54.3125 176.140625 53.964844 C 175.847656 53.839844 175.5625 53.703125 175.265625 53.5625 C 174.003906 52.890625 173.03125 52.097656 171.953125 51.160156 C 171.59375 50.847656 171.234375 50.546875 170.871094 50.222656 C 170.046875 49.378906 170.046875 49.378906 170.046875 48.371094 C 169.765625 48.234375 169.484375 48.109375 169.191406 47.984375 C 168.027344 47.34375 168.027344 47.34375 165.484375 45.3125 C 165.3125 48.339844 165.152344 51.359375 164.972656 54.472656 C 162.589844 54.953125 160.78125 55.0625 158.375 54.984375 C 157.566406 54.171875 157.808594 53.34375 157.808594 52.222656 C 157.796875 51.503906 157.796875 51.503906 157.796875 50.78125 C 157.796875 50.253906 157.796875 49.746094 157.796875 49.203125 C 157.796875 48.683594 157.796875 48.152344 157.796875 47.597656 C 157.796875 46.484375 157.796875 45.359375 157.808594 44.246094 C 157.808594 42.515625 157.808594 40.796875 157.796875 39.066406 C 157.796875 37.984375 157.796875 36.902344 157.796875 35.8125 C 157.796875 35.285156 157.796875 34.777344 157.796875 34.234375 C 157.796875 33.753906 157.796875 33.28125 157.808594 32.785156 C 157.808594 32.371094 157.808594 31.941406 157.808594 31.503906 C 157.871094 30.546875 157.871094 30.546875 158.375 30.035156 Z M 158.375 30.035156 "/>
<path style=" stroke:none;fill-rule:nonzero;fill:rgb(70.588237%,98.039216%,33.333334%);fill-opacity:1;" d="M 138.578125 31.058594 C 143.9375 31.058594 149.296875 31.058594 154.816406 31.058594 C 155.066406 33.828125 155.066406 33.828125 155.328125 36.65625 C 154.816406 37.160156 154.816406 37.160156 153.933594 37.21875 C 153.546875 37.21875 153.160156 37.21875 152.777344 37.214844 C 152.371094 37.214844 151.953125 37.214844 151.53125 37.214844 C 151.097656 37.203125 150.660156 37.203125 150.21875 37.191406 C 149.785156 37.191406 149.347656 37.1875 148.90625 37.1875 C 147.839844 37.183594 146.753906 37.171875 145.6875 37.160156 C 145.6875 38.339844 145.6875 39.515625 145.6875 40.722656 C 146.5 40.71875 146.5 40.71875 147.339844 40.714844 C 148.035156 40.703125 148.75 40.703125 149.464844 40.691406 C 149.816406 40.6875 150.183594 40.6875 150.546875 40.683594 C 151.46875 40.683594 152.378906 40.703125 153.296875 40.722656 C 153.808594 41.234375 153.808594 41.234375 153.859375 42.503906 C 153.847656 43.027344 153.84375 43.535156 153.839844 44.066406 C 153.839844 44.589844 153.828125 45.097656 153.828125 45.628906 C 153.816406 46.03125 153.8125 46.433594 153.808594 46.839844 C 151.941406 47.277344 150.234375 47.402344 148.316406 47.375 C 147.816406 47.375 147.328125 47.371094 146.816406 47.371094 C 146.441406 47.359375 146.066406 47.347656 145.6875 47.34375 C 145.6875 47.683594 145.6875 48.015625 145.6875 48.371094 C 146.339844 48.359375 146.996094 48.347656 147.660156 48.34375 C 148.515625 48.34375 149.371094 48.339844 150.21875 48.328125 C 150.871094 48.328125 150.871094 48.328125 151.53125 48.316406 C 151.9375 48.316406 152.347656 48.3125 152.777344 48.3125 C 153.15625 48.3125 153.53125 48.308594 153.933594 48.308594 C 154.816406 48.371094 154.816406 48.371094 155.328125 48.875 C 155.433594 50 155.433594 50 155.453125 51.378906 C 155.46875 51.84375 155.484375 52.296875 155.5 52.765625 C 155.441406 53.160156 155.378906 53.558594 155.328125 53.964844 C 153.496094 55.191406 152.640625 55.109375 150.453125 55.097656 C 149.796875 55.097656 149.140625 55.09375 148.46875 55.09375 C 147.953125 55.09375 147.953125 55.09375 147.433594 55.089844 C 146.378906 55.078125 145.339844 55.078125 144.285156 55.078125 C 139.15625 55.058594 139.15625 55.058594 138.578125 54.472656 C 138.53125 53.734375 138.515625 53 138.527344 52.265625 C 138.527344 51.796875 138.527344 51.328125 138.527344 50.84375 C 138.527344 50.339844 138.527344 49.828125 138.53125 49.296875 C 138.53125 48.78125 138.53125 48.265625 138.53125 47.722656 C 138.53125 46.0625 138.535156 44.402344 138.546875 42.734375 C 138.546875 41.609375 138.558594 40.472656 138.558594 39.347656 C 138.5625 36.589844 138.566406 33.816406 138.578125 31.058594 Z M 138.578125 31.058594 "/>
<path style=" stroke:none;fill-rule:nonzero;fill:rgb(71.372551%,98.431373%,34.901962%);fill-opacity:1;" d="M 119.285156 31.058594 C 124.652344 31.058594 130.003906 31.058594 135.53125 31.058594 C 135.53125 33.066406 135.53125 35.089844 135.53125 37.160156 C 132.515625 37.160156 129.5 37.160156 126.402344 37.160156 C 126.402344 38.339844 126.402344 39.515625 126.402344 40.722656 C 129.078125 40.722656 131.753906 40.722656 134.515625 40.722656 C 134.515625 42.746094 134.515625 44.753906 134.515625 46.839844 C 132.71875 47.285156 131.402344 47.402344 129.566406 47.375 C 129.066406 47.375 128.566406 47.371094 128.058594 47.371094 C 127.671875 47.359375 127.296875 47.347656 126.90625 47.34375 C 126.734375 47.683594 126.566406 48.015625 126.402344 48.371094 C 129.410156 48.371094 132.433594 48.371094 135.53125 48.371094 C 135.78125 51.128906 135.78125 51.128906 136.035156 53.964844 C 133.964844 55.003906 133.097656 55.109375 130.847656 55.097656 C 130.246094 55.097656 129.628906 55.09375 129.003906 55.09375 C 128.0625 55.089844 128.0625 55.089844 127.09375 55.078125 C 126.464844 55.078125 125.816406 55.078125 125.160156 55.078125 C 120.441406 55.058594 120.441406 55.058594 119.285156 54.472656 C 119.285156 46.746094 119.285156 39.015625 119.285156 31.058594 Z M 119.285156 31.058594 "/>
<path style=" stroke:none;fill-rule:nonzero;fill:rgb(30.588236%,66.274512%,9.411765%);fill-opacity:1;" d="M 11.777344 29.6875 C 12.691406 29.75 12.691406 29.75 13.628906 29.808594 C 15.222656 30.035156 15.222656 30.035156 16.75 31.058594 C 16.371094 34.9375 16.371094 34.9375 15.222656 36.65625 C 11.714844 36.40625 11.714844 36.40625 8.125 36.152344 C 9.53125 37.5625 10.359375 38.089844 12.121094 38.878906 C 14.964844 40.265625 17.027344 41.816406 18.277344 44.796875 C 18.652344 46.964844 18.746094 49.003906 17.691406 50.972656 C 16.078125 53.003906 14.722656 53.816406 12.183594 54.472656 C 10.34375 54.609375 10.34375 54.609375 8.40625 54.597656 C 7.453125 54.597656 7.453125 54.597656 6.472656 54.609375 C 4.472656 54.46875 2.90625 54.066406 1.015625 53.453125 C 0.121094 50.75 0.746094 50.371094 2.03125 47.34375 C 4.714844 47.515625 7.390625 47.683594 10.152344 47.847656 C 10.316406 47.347656 10.484375 46.84375 10.65625 46.328125 C 10.265625 46.21875 9.871094 46.121094 9.453125 46.003906 C 6.40625 44.847656 3.0625 43.390625 1.171875 40.597656 C 0.308594 38.097656 0.339844 36.152344 1.015625 33.597656 C 2.09375 31.808594 3.097656 30.734375 5.078125 30.035156 C 7.375 29.546875 9.433594 29.515625 11.777344 29.6875 Z M 11.777344 29.6875 "/>
<path style=" stroke:none;fill-rule:nonzero;fill:rgb(31.764707%,65.490198%,12.156863%);fill-opacity:1;" d="M 22.6875 29.96875 C 23.246094 29.96875 23.796875 29.96875 24.371094 29.972656 C 24.921875 29.96875 25.472656 29.96875 26.046875 29.96875 C 27.410156 30.035156 27.410156 30.035156 27.921875 30.546875 C 27.984375 32.328125 27.984375 32.328125 27.921875 34.109375 C 27.75 34.277344 27.589844 34.441406 27.410156 34.621094 C 27.375 35.390625 27.371094 36.160156 27.378906 36.9375 C 27.378906 37.359375 27.390625 37.78125 27.390625 38.21875 C 27.402344 38.535156 27.40625 38.871094 27.410156 39.203125 C 29.222656 38.59375 29.5625 38.015625 30.683594 36.496094 C 31.871094 34.878906 33.097656 33.484375 34.515625 32.066406 C 34.6875 31.734375 34.847656 31.402344 35.027344 31.058594 C 36.871094 31.058594 38.714844 31.058594 40.609375 31.058594 C 40.609375 32.578125 40.609375 32.578125 40.097656 33.597656 C 39.765625 33.597656 39.433594 33.597656 39.089844 33.597656 C 38.921875 34.097656 38.75 34.609375 38.578125 35.125 C 38.246094 35.296875 37.90625 35.464844 37.5625 35.628906 C 37.234375 36.660156 37.234375 36.660156 37.058594 37.671875 C 36.378906 37.84375 35.71875 38.003906 35.027344 38.183594 C 34.910156 38.75 34.910156 38.75 34.808594 39.328125 C 34.472656 40.9375 34.171875 42.40625 33.5 43.90625 C 32.839844 45.734375 32.683594 47.441406 32.484375 49.378906 C 32.316406 49.378906 32.152344 49.378906 31.972656 49.378906 C 31.972656 48.535156 31.972656 47.703125 31.972656 46.839844 C 31.222656 46.589844 31.222656 46.589844 30.453125 46.328125 C 30.285156 45.996094 30.125 45.65625 29.953125 45.3125 C 29.621094 45.472656 29.28125 45.652344 28.9375 45.816406 C 28.597656 45.652344 28.265625 45.484375 27.921875 45.3125 C 27.921875 48.160156 27.921875 51.027344 27.921875 53.964844 C 25.566406 53.964844 23.222656 53.964844 20.8125 53.964844 C 20.796875 50.640625 20.785156 47.3125 20.78125 43.984375 C 20.78125 42.847656 20.78125 41.71875 20.777344 40.589844 C 20.765625 38.96875 20.765625 37.34375 20.765625 35.71875 C 20.753906 35.214844 20.753906 34.691406 20.753906 34.171875 C 20.753906 33.703125 20.753906 33.234375 20.753906 32.75 C 20.75 32.339844 20.75 31.921875 20.75 31.496094 C 20.847656 29.964844 21.140625 30.046875 22.6875 29.96875 Z M 22.6875 29.96875 "/>
<path style=" stroke:none;fill-rule:nonzero;fill:rgb(70.19608%,98.823529%,30.980393%);fill-opacity:1;" d="M 74.621094 32.578125 C 74.953125 32.75 75.285156 32.910156 75.628906 33.09375 C 75.277344 33.421875 75.277344 33.421875 74.90625 33.753906 C 73.996094 34.628906 73.996094 34.628906 73.597656 36.152344 C 73.097656 36.402344 73.097656 36.402344 72.589844 36.65625 C 72.234375 37.96875 72.234375 37.96875 72.015625 39.484375 C 71.933594 40 71.84375 40.515625 71.753906 41.046875 C 71.691406 41.441406 71.640625 41.84375 71.566406 42.253906 C 72.410156 41.75 73.25 41.25 74.109375 40.722656 C 75.09375 41.234375 75.09375 41.234375 76.140625 42.253906 C 76.472656 43.625 76.558594 44.90625 76.652344 46.328125 C 76.984375 46.328125 77.316406 46.328125 77.660156 46.328125 C 77.902344 46.640625 78.125 46.964844 78.359375 47.28125 C 79.28125 48.484375 79.828125 48.816406 81.21875 49.378906 C 82.464844 49.5625 82.464844 49.5625 83.753906 49.535156 C 84.1875 49.546875 84.621094 49.558594 85.058594 49.566406 C 86.558594 49.34375 87.234375 48.902344 88.328125 47.847656 C 88.578125 47.097656 88.578125 47.097656 88.839844 46.328125 C 87.15625 46.15625 85.484375 45.996094 83.753906 45.816406 C 83.753906 44.472656 83.753906 43.128906 83.753906 41.746094 C 86.777344 41.746094 89.785156 41.746094 92.890625 41.746094 C 92.890625 44.597656 92.890625 47.464844 92.890625 50.402344 C 92.558594 50.402344 92.222656 50.402344 91.875 50.402344 C 91.875 50.90625 91.875 51.40625 91.875 51.933594 C 90.625 52.183594 90.625 52.183594 89.34375 52.4375 C 89.34375 52.777344 89.34375 53.109375 89.34375 53.453125 C 85.265625 54.785156 79.5625 55.714844 75.597656 53.714844 C 73.277344 51.722656 71.066406 49.441406 70.558594 46.328125 C 70.234375 42.0625 70.214844 38.285156 72.589844 34.621094 C 73.734375 33.3125 73.734375 33.3125 74.621094 32.578125 Z M 74.621094 32.578125 "/>
<path style=" stroke:none;fill-rule:nonzero;fill:rgb(70.19608%,99.215686%,30.980393%);fill-opacity:1;" d="M 140.097656 37.160156 C 140.777344 37.160156 141.441406 37.160156 142.128906 37.160156 C 142.128906 37.5 142.128906 37.839844 142.128906 38.183594 C 142.808594 38.183594 143.46875 38.183594 144.160156 38.183594 C 144.671875 39.714844 144.671875 39.714844 145.183594 41.234375 C 147.6875 41.40625 150.203125 41.566406 152.785156 41.746094 C 152.785156 43.253906 152.785156 44.765625 152.785156 46.328125 C 150.441406 46.496094 148.097656 46.660156 145.6875 46.839844 C 145.515625 47.34375 145.347656 47.84375 145.183594 48.371094 C 145.75 48.390625 146.328125 48.421875 146.921875 48.464844 C 147.671875 48.5 148.421875 48.546875 149.171875 48.589844 C 149.558594 48.609375 149.933594 48.625 150.316406 48.652344 C 153.1875 48.8125 153.1875 48.8125 154.3125 49.378906 C 154.3125 50.890625 154.3125 52.40625 154.3125 53.964844 C 152.152344 53.972656 149.972656 53.984375 147.8125 53.996094 C 146.878906 54 146.878906 54 145.941406 54.003906 C 145.058594 54.003906 145.058594 54.003906 144.15625 54.015625 C 143.609375 54.015625 143.0625 54.015625 142.5 54.027344 C 141.121094 53.964844 141.121094 53.964844 139.59375 53.453125 C 139.578125 51.691406 139.566406 49.933594 139.5625 48.171875 C 139.558594 47.683594 139.558594 47.1875 139.546875 46.683594 C 139.535156 43.472656 139.71875 40.34375 140.097656 37.160156 Z M 140.097656 37.160156 "/>
<path style=" stroke:none;fill-rule:nonzero;fill:rgb(30.588236%,66.274512%,9.803922%);fill-opacity:1;" d="M 198.984375 15.277344 C 198.984375 15.777344 198.984375 16.28125 198.984375 16.796875 C 198.652344 16.796875 198.3125 16.796875 197.96875 16.796875 C 197.96875 17.308594 197.96875 17.808594 197.96875 18.328125 C 197.628906 18.328125 197.296875 18.328125 196.953125 18.328125 C 196.871094 18.878906 196.871094 18.878906 196.78125 19.441406 C 196.433594 20.9375 195.910156 22.003906 195.152344 23.316406 C 194.910156 23.722656 194.6875 24.125 194.441406 24.535156 C 194.265625 24.84375 194.09375 25.140625 193.90625 25.453125 C 193.566406 25.453125 193.246094 25.453125 192.890625 25.453125 C 192.890625 25.785156 192.890625 26.125 192.890625 26.472656 C 192.296875 26.839844 191.691406 27.183594 191.089844 27.527344 C 190.75 27.71875 190.410156 27.910156 190.066406 28.121094 C 188.359375 28.65625 187.015625 28.339844 185.28125 28 C 185.25 28.339844 185.222656 28.660156 185.191406 29.015625 C 185.0625 30.527344 184.9375 32.03125 184.808594 33.535156 C 184.753906 34.0625 184.71875 34.589844 184.671875 35.128906 C 184.625 35.628906 184.578125 36.128906 184.535156 36.652344 C 184.472656 37.34375 184.472656 37.34375 184.410156 38.058594 C 184.265625 39.203125 184.265625 39.203125 183.753906 40.21875 C 182.921875 40.046875 182.078125 39.878906 181.21875 39.714844 C 180.78125 37.0625 180.652344 34.53125 180.683594 31.847656 C 180.683594 31.472656 180.683594 31.097656 180.6875 30.71875 C 180.691406 29.8125 180.703125 28.90625 180.714844 28 C 180.875 28 181.046875 28 181.21875 28 C 181.714844 30.472656 181.785156 32.8125 181.753906 35.316406 C 181.753906 35.691406 181.75 36.066406 181.75 36.453125 C 181.746094 37.371094 181.734375 38.28125 181.722656 39.203125 C 182.472656 38.941406 182.472656 38.941406 183.25 38.6875 C 183.25 35.160156 183.25 31.628906 183.25 28 C 183.75 28 184.25 28 184.777344 28 C 184.777344 27.496094 184.777344 26.996094 184.777344 26.472656 C 185.109375 26.472656 185.441406 26.472656 185.785156 26.472656 C 185.722656 25.628906 185.660156 24.796875 185.59375 23.964844 C 185.5625 23.496094 185.527344 23.027344 185.496094 22.546875 C 185.378906 21.96875 185.378906 21.96875 185.28125 21.378906 C 184.941406 21.214844 184.609375 21.046875 184.265625 20.875 C 186.921875 17.371094 188.972656 15.714844 193.316406 15.058594 C 197.097656 14.640625 197.097656 14.640625 198.984375 15.277344 Z M 198.984375 15.277344 "/>
<path style=" stroke:none;fill-rule:nonzero;fill:rgb(31.37255%,66.274512%,10.588235%);fill-opacity:1;" d="M 36.484375 29.972656 C 37.121094 29.984375 37.75 29.984375 38.40625 29.984375 C 38.910156 29.984375 38.910156 29.984375 39.433594 29.996094 C 40.503906 29.996094 41.59375 30 42.671875 30.003906 C 43.40625 30.003906 44.128906 30.003906 44.871094 30.003906 C 46.660156 30.015625 48.464844 30.027344 50.25 30.035156 C 50.25 30.535156 50.25 31.046875 50.25 31.5625 C 49.9375 31.558594 49.621094 31.558594 49.285156 31.546875 C 48.660156 31.535156 48.660156 31.535156 48.03125 31.53125 C 47.410156 31.527344 47.410156 31.527344 46.78125 31.515625 C 45.660156 31.496094 45.660156 31.496094 44.671875 32.066406 C 44.921875 33.589844 44.921875 33.589844 45.183594 35.125 C 44.703125 34.515625 44.703125 34.515625 44.222656 33.878906 C 43.28125 32.5625 43.28125 32.5625 42.128906 32.066406 C 42.128906 32.40625 42.128906 32.746094 42.128906 33.09375 C 41.796875 33.09375 41.464844 33.09375 41.121094 33.09375 C 41 33.375 40.878906 33.65625 40.753906 33.953125 C 39.671875 35.902344 38.003906 37.347656 36.441406 38.933594 C 35.421875 40.125 35.421875 40.125 35.515625 41.441406 C 36.191406 43.15625 37.15625 44.59375 38.222656 46.066406 C 38.53125 46.5 38.53125 46.5 38.828125 46.933594 C 39.765625 48.253906 40.71875 49.5 41.808594 50.703125 C 42.640625 51.933594 42.640625 51.933594 42.515625 53.359375 C 42.390625 53.722656 42.253906 54.09375 42.128906 54.472656 C 35.390625 54.984375 35.390625 54.984375 33.140625 53.316406 C 30.910156 51.015625 29.277344 48.203125 27.921875 45.3125 C 28.777344 44.902344 28.777344 44.902344 29.953125 44.796875 C 31.34375 46.035156 31.34375 46.035156 32.484375 47.34375 C 32.453125 46.78125 32.453125 46.78125 32.421875 46.203125 C 32.496094 44.722656 32.808594 44.035156 33.5 42.765625 C 33.683594 42.089844 33.84375 41.40625 34.003906 40.722656 C 34.421875 39.359375 34.421875 39.359375 35.027344 38.183594 C 36.097656 37.765625 36.097656 37.765625 37.058594 37.671875 C 37.109375 37.28125 37.160156 36.902344 37.214844 36.496094 C 37.589844 35.03125 37.90625 34.5 39.089844 33.597656 C 39.421875 33.597656 39.753906 33.597656 40.097656 33.597656 C 40.265625 32.933594 40.4375 32.253906 40.609375 31.5625 C 37.84375 31.3125 37.84375 31.3125 35.027344 31.058594 C 34.6875 31.902344 34.347656 32.734375 34.003906 33.597656 C 33.1875 34.46875 32.339844 35.316406 31.46875 36.152344 C 31.027344 36.703125 30.578125 37.265625 30.140625 37.828125 C 29.535156 38.503906 29.535156 38.503906 28.9375 39.203125 C 28.433594 39.203125 27.933594 39.203125 27.410156 39.203125 C 26.660156 37.691406 26.875 36.277344 26.90625 34.621094 C 27.246094 34.453125 27.566406 34.28125 27.921875 34.109375 C 28.089844 35.121094 28.25 36.125 28.433594 37.160156 C 28.859375 36.691406 29.296875 36.21875 29.746094 35.734375 C 30.308594 35.121094 30.875 34.5 31.4375 33.878906 C 31.722656 33.578125 32.015625 33.265625 32.308594 32.941406 C 32.578125 32.652344 32.847656 32.347656 33.128906 32.035156 C 33.390625 31.765625 33.640625 31.496094 33.902344 31.214844 C 34.996094 30.035156 34.996094 30.035156 36.484375 29.972656 Z M 36.484375 29.972656 "/>
<path style=" stroke:none;fill-rule:nonzero;fill:rgb(29.019609%,66.666669%,7.450981%);fill-opacity:1;" d="M 35.027344 31.058594 C 36.871094 31.058594 38.714844 31.058594 40.609375 31.058594 C 40.609375 32.578125 40.609375 32.578125 40.097656 33.597656 C 39.765625 33.597656 39.433594 33.597656 39.089844 33.597656 C 38.921875 34.097656 38.75 34.609375 38.578125 35.125 C 38.078125 35.378906 38.078125 35.378906 37.5625 35.628906 C 37.234375 36.660156 37.234375 36.660156 37.058594 37.671875 C 36.378906 37.84375 35.71875 38.003906 35.027344 38.183594 C 34.910156 38.75 34.910156 38.75 34.808594 39.328125 C 34.472656 40.9375 34.171875 42.40625 33.5 43.90625 C 32.839844 45.734375 32.683594 47.441406 32.484375 49.378906 C 32.316406 49.378906 32.152344 49.378906 31.972656 49.378906 C 31.972656 48.535156 31.972656 47.703125 31.972656 46.839844 C 31.472656 46.671875 30.972656 46.5 30.453125 46.328125 C 30.285156 45.996094 30.125 45.65625 29.953125 45.3125 C 29.621094 45.472656 29.28125 45.652344 28.9375 45.816406 C 28.433594 45.652344 27.933594 45.484375 27.410156 45.3125 C 27.410156 44.808594 27.410156 44.308594 27.410156 43.78125 C 27.078125 43.78125 26.746094 43.78125 26.402344 43.78125 C 26.402344 43.28125 26.402344 42.777344 26.402344 42.253906 C 26.734375 42.253906 27.0625 42.253906 27.410156 42.253906 C 27.359375 41.890625 27.308594 41.527344 27.25 41.140625 C 27.472656 39.109375 28.464844 38.527344 29.953125 37.160156 C 30.796875 36.152344 31.640625 35.128906 32.484375 34.109375 C 33.5 33.09375 33.5 33.09375 34.515625 32.066406 C 34.6875 31.734375 34.847656 31.402344 35.027344 31.058594 Z M 35.027344 31.058594 "/>
<path style=" stroke:none;fill-rule:nonzero;fill:rgb(30.588236%,65.098041%,9.411765%);fill-opacity:1;" d="M 63.765625 30.003906 C 64.375 30.003906 64.972656 30.015625 65.59375 30.015625 C 66.0625 30.027344 66.527344 30.03125 67.003906 30.035156 C 67.371094 30.878906 67.371094 30.878906 67.515625 32.066406 C 66.816406 33.390625 66.816406 33.390625 65.765625 34.875 C 65.402344 35.40625 65.027344 35.9375 64.640625 36.484375 C 64.347656 36.90625 64.347656 36.90625 64.046875 37.328125 C 63.0625 38.734375 62.140625 40.183594 61.203125 41.621094 C 60.609375 42.515625 60.015625 43.410156 59.390625 44.285156 C 59.222656 44.285156 59.058594 44.285156 58.878906 44.285156 C 59.046875 43.121094 59.21875 41.9375 59.390625 40.722656 C 59.058594 40.722656 58.71875 40.722656 58.375 40.722656 C 58.214844 40.058594 58.035156 39.378906 57.871094 38.6875 C 58.203125 38.6875 58.535156 38.6875 58.878906 38.6875 C 59 37.203125 59 37.203125 58.375 36.152344 C 57.875 36.402344 57.875 36.402344 57.359375 36.65625 C 57.191406 37.15625 57.027344 37.660156 56.847656 38.183594 C 55.847656 38.347656 54.84375 38.515625 53.808594 38.6875 C 53.808594 37.847656 53.808594 37.003906 53.808594 36.152344 C 54.472656 36.652344 55.152344 37.15625 55.839844 37.671875 C 55.890625 37.390625 55.941406 37.109375 56 36.816406 C 56.410156 35.390625 57.066406 34.277344 57.839844 32.996094 C 58.097656 32.546875 58.371094 32.097656 58.640625 31.640625 C 60.027344 29.621094 61.46875 29.984375 63.765625 30.003906 Z M 63.765625 30.003906 "/>
<path style=" stroke:none;fill-rule:nonzero;fill:rgb(76.862746%,94.901961%,53.725493%);fill-opacity:1;" d="M 84.777344 35.628906 C 85.109375 36.140625 85.441406 36.640625 85.785156 37.160156 C 85.28125 37.171875 85.28125 37.171875 84.765625 37.1875 C 82.53125 37.308594 81.046875 37.464844 79.125 38.65625 C 77.777344 40.875 77.714844 42.777344 78.171875 45.3125 C 79.089844 46.808594 79.660156 47.589844 81.21875 48.371094 C 84.308594 48.484375 84.308594 48.484375 87.3125 47.847656 C 87.3125 47.515625 87.3125 47.183594 87.3125 46.839844 C 86.746094 46.9375 86.183594 47.046875 85.59375 47.15625 C 84.996094 47.21875 84.378906 47.28125 83.753906 47.34375 C 82.746094 46.328125 82.746094 46.328125 82.625 45.253906 C 82.628906 44.65625 82.628906 44.65625 82.652344 44.035156 C 82.652344 43.628906 82.65625 43.222656 82.65625 42.8125 C 82.746094 41.746094 82.746094 41.746094 83.25 40.722656 C 86.765625 40.722656 90.28125 40.722656 93.90625 40.722656 C 93.984375 42.34375 94.058594 43.964844 94.128906 45.625 C 94.183594 46.378906 94.183594 46.378906 94.222656 47.15625 C 94.296875 50.375 94.296875 50.375 93.1875 51.878906 C 89.765625 54.941406 86.1875 55.359375 81.722656 55.496094 C 79.816406 55.265625 79.816406 55.265625 78.683594 54.984375 C 78.683594 54.8125 78.683594 54.652344 78.683594 54.472656 C 82.191406 54.140625 85.71875 53.796875 89.34375 53.453125 C 89.34375 53.121094 89.34375 52.78125 89.34375 52.4375 C 90.59375 52.1875 90.59375 52.1875 91.875 51.933594 C 91.875 51.421875 91.875 50.921875 91.875 50.402344 C 92.214844 50.402344 92.546875 50.402344 92.890625 50.402344 C 92.890625 47.546875 92.890625 44.6875 92.890625 41.746094 C 89.875 41.746094 86.859375 41.746094 83.753906 41.746094 C 83.753906 43.089844 83.753906 44.433594 83.753906 45.816406 C 84.40625 45.808594 85.058594 45.796875 85.722656 45.785156 C 87.6875 45.753906 87.6875 45.753906 88.839844 46.328125 C 88.546875 48 88.152344 48.847656 86.808594 49.890625 C 83.847656 50.316406 80.921875 50.0625 78.171875 48.875 C 78.003906 48.03125 77.839844 47.191406 77.660156 46.328125 C 77.328125 46.328125 76.996094 46.328125 76.652344 46.328125 C 76.652344 43.808594 76.652344 41.285156 76.652344 38.6875 C 76.984375 38.6875 77.316406 38.6875 77.660156 38.6875 C 77.660156 38.347656 77.660156 38.015625 77.660156 37.671875 C 78 37.671875 78.339844 37.671875 78.683594 37.671875 C 78.683594 37.171875 78.683594 36.660156 78.683594 36.152344 C 80.722656 35.464844 82.640625 35.5 84.777344 35.628906 Z M 84.777344 35.628906 "/>
<path style=" stroke:none;fill-rule:nonzero;fill:rgb(80.000001%,95.686275%,56.078434%);fill-opacity:1;" d="M 138.578125 31.058594 C 143.9375 31.058594 149.296875 31.058594 154.816406 31.058594 C 155.066406 33.828125 155.066406 33.828125 155.328125 36.65625 C 154.816406 37.160156 154.816406 37.160156 153.933594 37.21875 C 153.546875 37.21875 153.160156 37.21875 152.777344 37.214844 C 152.371094 37.214844 151.953125 37.214844 151.53125 37.214844 C 151.097656 37.203125 150.660156 37.203125 150.21875 37.191406 C 149.785156 37.191406 149.347656 37.1875 148.90625 37.1875 C 147.839844 37.183594 146.753906 37.171875 145.6875 37.160156 C 145.6875 38.339844 145.6875 39.515625 145.6875 40.722656 C 146.5 40.71875 146.5 40.71875 147.339844 40.714844 C 148.035156 40.703125 148.75 40.703125 149.464844 40.691406 C 149.816406 40.6875 150.183594 40.6875 150.546875 40.683594 C 151.46875 40.683594 152.378906 40.703125 153.296875 40.722656 C 153.808594 41.234375 153.808594 41.234375 153.859375 42.503906 C 153.847656 43.027344 153.84375 43.535156 153.839844 44.066406 C 153.839844 44.589844 153.828125 45.097656 153.828125 45.628906 C 153.816406 46.03125 153.8125 46.433594 153.808594 46.839844 C 151.941406 47.277344 150.234375 47.402344 148.316406 47.375 C 147.816406 47.375 147.328125 47.371094 146.816406 47.371094 C 146.441406 47.359375 146.066406 47.347656 145.6875 47.34375 C 145.515625 47.683594 145.347656 48.015625 145.183594 48.371094 C 145.34375 47.691406 145.515625 47.027344 145.6875 46.328125 C 148.03125 46.328125 150.375 46.328125 152.785156 46.328125 C 152.785156 44.8125 152.785156 43.308594 152.785156 41.746094 C 151.972656 41.753906 151.972656 41.753906 151.140625 41.765625 C 150.4375 41.765625 149.722656 41.777344 149.015625 41.777344 C 148.65625 41.78125 148.296875 41.785156 147.933594 41.785156 C 147.003906 41.796875 146.09375 41.777344 145.183594 41.746094 C 144.214844 40.78125 144.609375 39.410156 144.597656 38.128906 C 144.671875 37.160156 144.671875 37.160156 145.183594 36.152344 C 146.558594 35.984375 147.890625 35.878906 149.277344 35.828125 C 149.65625 35.808594 150.035156 35.785156 150.4375 35.765625 C 151.390625 35.71875 152.34375 35.683594 153.296875 35.628906 C 153.46875 34.285156 153.628906 32.941406 153.808594 31.5625 C 149.121094 31.734375 144.433594 31.902344 139.59375 32.066406 C 139.433594 39.464844 139.253906 46.859375 139.089844 54.472656 C 138.921875 54.472656 138.75 54.472656 138.578125 54.472656 C 138.578125 46.746094 138.578125 39.015625 138.578125 31.058594 Z M 138.578125 31.058594 "/>
<path style=" stroke:none;fill-rule:nonzero;fill:rgb(70.19608%,99.215686%,30.588236%);fill-opacity:1;" d="M 83.753906 41.746094 C 86.777344 41.746094 89.785156 41.746094 92.890625 41.746094 C 92.890625 44.597656 92.890625 47.464844 92.890625 50.402344 C 92.558594 50.402344 92.222656 50.402344 91.875 50.402344 C 91.875 50.90625 91.875 51.40625 91.875 51.933594 C 91.214844 51.753906 90.535156 51.59375 89.847656 51.421875 C 89.5625 50.433594 89.5625 50.433594 89.34375 49.378906 C 89.503906 49.214844 89.671875 49.046875 89.847656 48.875 C 89.34375 48.535156 88.84375 48.203125 88.328125 47.847656 C 88.496094 47.347656 88.65625 46.84375 88.839844 46.328125 C 87.15625 46.15625 85.484375 45.996094 83.753906 45.816406 C 83.753906 44.472656 83.753906 43.128906 83.753906 41.746094 Z M 83.753906 41.746094 "/>
<path style=" stroke:none;fill-rule:nonzero;fill:rgb(38.431373%,64.313728%,22.745098%);fill-opacity:1;" d="M 36.484375 29.972656 C 37.121094 29.984375 37.75 29.984375 38.40625 29.984375 C 38.910156 29.984375 38.910156 29.984375 39.433594 29.996094 C 40.503906 29.996094 41.59375 30 42.671875 30.003906 C 43.40625 30.003906 44.128906 30.003906 44.871094 30.003906 C 46.660156 30.015625 48.464844 30.027344 50.25 30.035156 C 50.25 30.535156 50.25 31.046875 50.25 31.5625 C 49.9375 31.558594 49.621094 31.558594 49.285156 31.546875 C 48.660156 31.535156 48.660156 31.535156 48.03125 31.53125 C 47.410156 31.527344 47.410156 31.527344 46.78125 31.515625 C 45.660156 31.496094 45.660156 31.496094 44.671875 32.066406 C 44.921875 33.589844 44.921875 33.589844 45.183594 35.125 C 44.703125 34.515625 44.703125 34.515625 44.222656 33.878906 C 43.28125 32.5625 43.28125 32.5625 42.128906 32.066406 C 42.128906 32.40625 42.128906 32.746094 42.128906 33.09375 C 41.796875 33.09375 41.464844 33.09375 41.121094 33.09375 C 41 33.375 40.875 33.65625 40.75 33.953125 C 39.683594 35.890625 38.097656 37.371094 36.59375 38.972656 C 35.671875 40.058594 35.066406 40.964844 34.515625 42.253906 C 34.6875 40.910156 34.847656 39.566406 35.027344 38.183594 C 35.691406 38.015625 36.371094 37.84375 37.058594 37.671875 C 37.109375 37.28125 37.160156 36.902344 37.214844 36.496094 C 37.589844 35.03125 37.90625 34.5 39.089844 33.597656 C 39.421875 33.597656 39.753906 33.597656 40.097656 33.597656 C 40.265625 32.933594 40.4375 32.253906 40.609375 31.5625 C 37.84375 31.3125 37.84375 31.3125 35.027344 31.058594 C 34.6875 31.902344 34.347656 32.734375 34.003906 33.597656 C 33.1875 34.46875 32.339844 35.316406 31.46875 36.152344 C 31.027344 36.703125 30.578125 37.265625 30.140625 37.828125 C 29.535156 38.503906 29.535156 38.503906 28.9375 39.203125 C 28.433594 39.203125 27.933594 39.203125 27.410156 39.203125 C 26.660156 37.691406 26.875 36.277344 26.90625 34.621094 C 27.246094 34.453125 27.566406 34.28125 27.921875 34.109375 C 28.089844 35.121094 28.25 36.125 28.433594 37.160156 C 28.859375 36.691406 29.296875 36.21875 29.746094 35.734375 C 30.308594 35.121094 30.875 34.5 31.4375 33.878906 C 31.722656 33.578125 32.015625 33.265625 32.308594 32.941406 C 32.578125 32.652344 32.847656 32.347656 33.128906 32.035156 C 33.390625 31.765625 33.640625 31.496094 33.902344 31.214844 C 34.996094 30.035156 34.996094 30.035156 36.484375 29.972656 Z M 36.484375 29.972656 "/>
<path style=" stroke:none;fill-rule:nonzero;fill:rgb(31.764707%,65.882355%,11.764706%);fill-opacity:1;" d="M 2.03125 47.34375 C 3.347656 47.410156 4.671875 47.496094 6 47.566406 C 6.558594 47.597656 6.558594 47.597656 7.128906 47.625 C 8.75 47.722656 10.128906 47.847656 11.671875 48.371094 C 11.296875 48.65625 10.921875 48.953125 10.53125 49.253906 C 8.25 51.089844 8.25 51.089844 6.597656 53.453125 C 10.871094 53.203125 10.871094 53.203125 15.222656 52.941406 C 13.316406 54.859375 11.066406 54.558594 8.46875 54.566406 C 7.816406 54.578125 7.183594 54.589844 6.503906 54.59375 C 4.484375 54.46875 2.933594 54.089844 1.015625 53.453125 C 0.191406 51 0.996094 49.625 2.03125 47.34375 Z M 2.03125 47.34375 "/>
<path style=" stroke:none;fill-rule:nonzero;fill:rgb(81.176472%,96.470588%,60.000002%);fill-opacity:1;" d="M 172.078125 31.058594 C 174.433594 31.058594 176.777344 31.058594 179.1875 31.058594 C 179.1875 38.953125 179.1875 46.84375 179.1875 54.984375 C 178.183594 54.984375 177.183594 54.984375 176.140625 54.984375 C 176.140625 54.652344 176.140625 54.3125 176.140625 53.964844 C 175.6875 53.765625 175.6875 53.765625 175.222656 53.566406 C 174.003906 52.878906 173.34375 52.1875 172.464844 51.097656 C 172.191406 50.78125 171.933594 50.453125 171.660156 50.125 C 171.464844 49.878906 171.265625 49.628906 171.0625 49.378906 C 171.734375 49.378906 172.40625 49.378906 173.09375 49.378906 C 173.265625 50.058594 173.433594 50.722656 173.597656 51.421875 C 175.109375 51.421875 176.621094 51.421875 178.171875 51.421875 C 178.171875 44.871094 178.171875 38.3125 178.171875 31.5625 C 176.5 31.5625 174.816406 31.5625 173.09375 31.5625 C 173.097656 32.214844 173.109375 32.859375 173.121094 33.53125 C 173.121094 34.378906 173.125 35.234375 173.125 36.078125 C 173.128906 36.503906 173.128906 36.9375 173.140625 37.378906 C 173.140625 37.785156 173.140625 38.203125 173.152344 38.625 C 173.152344 39 173.152344 39.378906 173.15625 39.777344 C 173.09375 40.722656 173.09375 40.722656 172.589844 41.746094 C 172.089844 41.746094 171.589844 41.746094 171.0625 41.746094 C 171.234375 41.40625 171.402344 41.066406 171.566406 40.722656 C 171.652344 39.996094 171.703125 39.25 171.734375 38.515625 C 171.753906 38.078125 171.777344 37.652344 171.796875 37.203125 C 171.816406 36.75 171.839844 36.296875 171.859375 35.828125 C 171.878906 35.371094 171.90625 34.910156 171.921875 34.441406 C 171.972656 33.3125 172.03125 32.1875 172.078125 31.058594 Z M 172.078125 31.058594 "/>
<path style=" stroke:none;fill-rule:nonzero;fill:rgb(80.000001%,96.078432%,55.686277%);fill-opacity:1;" d="M 96.953125 31.058594 C 99.234375 31.027344 101.515625 30.996094 103.871094 30.964844 C 104.589844 30.941406 105.296875 30.933594 106.03125 30.910156 C 106.597656 30.910156 107.171875 30.90625 107.753906 30.90625 C 108.628906 30.890625 108.628906 30.890625 109.515625 30.878906 C 111.808594 31.125 113.527344 31.875 115.140625 33.527344 C 116.527344 36.058594 116.464844 39.214844 115.859375 41.96875 C 115.222656 43.277344 115.222656 43.277344 114.34375 44.222656 C 113.546875 45.589844 113.746094 45.984375 114.121094 47.472656 C 114.316406 48.097656 114.515625 48.734375 114.71875 49.378906 C 113.878906 49.046875 113.046875 48.714844 112.183594 48.371094 C 112.089844 46.21875 112.28125 44.714844 113.191406 42.765625 C 113.53125 42.765625 113.871094 42.765625 114.214844 42.765625 C 114.546875 40.246094 114.878906 37.722656 115.222656 35.125 C 114.890625 35.125 114.558594 35.125 114.214844 35.125 C 114.214844 34.785156 114.214844 34.453125 114.214844 34.109375 C 112.535156 33.597656 110.859375 33.097656 109.140625 32.578125 C 109.140625 32.246094 109.140625 31.90625 109.140625 31.5625 C 105.453125 31.5625 101.765625 31.5625 97.96875 31.5625 C 97.808594 39.125 97.628906 46.6875 97.464844 54.472656 C 97.296875 54.472656 97.125 54.472656 96.953125 54.472656 C 96.953125 46.746094 96.953125 39.015625 96.953125 31.058594 Z M 96.953125 31.058594 "/>
<path style=" stroke:none;fill-rule:nonzero;fill:rgb(87.058824%,96.862745%,70.19608%);fill-opacity:1;" d="M 125.890625 37.160156 C 126.058594 37.160156 126.222656 37.160156 126.402344 37.160156 C 126.402344 38.339844 126.402344 39.515625 126.402344 40.722656 C 129.078125 40.722656 131.753906 40.722656 134.515625 40.722656 C 134.515625 42.746094 134.515625 44.753906 134.515625 46.839844 C 132.71875 47.285156 131.402344 47.402344 129.566406 47.375 C 129.066406 47.375 128.566406 47.371094 128.058594 47.371094 C 127.671875 47.359375 127.296875 47.347656 126.90625 47.34375 C 126.734375 47.683594 126.566406 48.015625 126.402344 48.371094 C 129.410156 48.371094 132.433594 48.371094 135.53125 48.371094 C 135.703125 50.214844 135.871094 52.0625 136.035156 53.964844 C 133.941406 55.015625 133.089844 55.097656 130.8125 55.078125 C 129.902344 55.078125 129.902344 55.078125 128.964844 55.066406 C 128.316406 55.0625 127.6875 55.058594 127.03125 55.046875 C 126.378906 55.035156 125.746094 55.035156 125.078125 55.03125 C 123.484375 55.027344 121.902344 55 120.308594 54.984375 C 120.308594 54.8125 120.308594 54.652344 120.308594 54.472656 C 125.160156 54.308594 130.027344 54.140625 135.027344 53.964844 C 135.027344 52.453125 135.027344 50.9375 135.027344 49.378906 C 132.003906 49.214844 128.996094 49.046875 125.890625 48.875 C 126.058594 48.03125 126.222656 47.191406 126.402344 46.328125 C 128.746094 46.15625 131.089844 45.996094 133.5 45.816406 C 133.5 44.472656 133.5 43.128906 133.5 41.746094 C 130.996094 41.746094 128.472656 41.746094 125.890625 41.746094 C 125.890625 40.234375 125.890625 38.71875 125.890625 37.160156 Z M 125.890625 37.160156 "/>
<path style=" stroke:none;fill-rule:nonzero;fill:rgb(77.64706%,95.686275%,50.980395%);fill-opacity:1;" d="M 84.777344 35.628906 C 85.109375 36.140625 85.441406 36.640625 85.785156 37.160156 C 85.28125 37.171875 85.28125 37.171875 84.765625 37.1875 C 82.53125 37.308594 81.046875 37.464844 79.125 38.65625 C 77.777344 40.875 77.714844 42.777344 78.171875 45.3125 C 79.089844 46.808594 79.660156 47.589844 81.21875 48.371094 C 84.308594 48.484375 84.308594 48.484375 87.3125 47.847656 C 87.3125 47.347656 87.3125 46.84375 87.3125 46.328125 C 86.640625 46.15625 85.96875 45.996094 85.28125 45.816406 C 86.453125 45.984375 87.625 46.15625 88.839844 46.328125 C 88.546875 48 88.152344 48.847656 86.808594 49.890625 C 83.847656 50.316406 80.921875 50.0625 78.171875 48.875 C 78.003906 48.03125 77.839844 47.191406 77.660156 46.328125 C 77.328125 46.328125 76.996094 46.328125 76.652344 46.328125 C 76.652344 43.808594 76.652344 41.285156 76.652344 38.6875 C 76.984375 38.6875 77.316406 38.6875 77.660156 38.6875 C 77.660156 38.347656 77.660156 38.015625 77.660156 37.671875 C 78 37.671875 78.339844 37.671875 78.683594 37.671875 C 78.683594 37.171875 78.683594 36.660156 78.683594 36.152344 C 80.722656 35.464844 82.640625 35.5 84.777344 35.628906 Z M 84.777344 35.628906 "/>
<path style=" stroke:none;fill-rule:nonzero;fill:rgb(47.058824%,70.19608%,28.627452%);fill-opacity:1;" d="M 191.371094 23.421875 C 191.703125 23.589844 192.035156 23.753906 192.378906 23.933594 C 192.378906 24.433594 192.378906 24.9375 192.378906 25.453125 C 191.878906 25.625 191.378906 25.785156 190.859375 25.964844 C 190.496094 26.996094 190.496094 26.996094 190.347656 28 C 186.421875 28.566406 186.421875 28.566406 185.28125 28 C 185.25 28.339844 185.222656 28.660156 185.191406 29.015625 C 185.0625 30.527344 184.9375 32.03125 184.808594 33.535156 C 184.753906 34.0625 184.71875 34.589844 184.671875 35.128906 C 184.625 35.628906 184.578125 36.128906 184.535156 36.652344 C 184.496094 37.121094 184.453125 37.578125 184.410156 38.058594 C 184.265625 39.203125 184.265625 39.203125 183.753906 40.21875 C 182.921875 40.046875 182.078125 39.878906 181.21875 39.714844 C 180.78125 37.0625 180.652344 34.53125 180.683594 31.847656 C 180.683594 31.472656 180.683594 31.097656 180.6875 30.71875 C 180.691406 29.8125 180.703125 28.90625 180.714844 28 C 180.875 28 181.046875 28 181.21875 28 C 181.714844 30.472656 181.785156 32.8125 181.753906 35.316406 C 181.753906 35.691406 181.75 36.066406 181.75 36.453125 C 181.746094 37.371094 181.734375 38.28125 181.722656 39.203125 C 182.222656 39.03125 182.734375 38.871094 183.25 38.6875 C 183.25 35.160156 183.25 31.628906 183.25 28 C 183.75 28 184.25 28 184.777344 28 C 184.777344 27.496094 184.777344 26.996094 184.777344 26.472656 C 185.109375 26.472656 185.441406 26.472656 185.785156 26.472656 C 185.953125 25.96875 186.125 25.464844 186.296875 24.941406 C 186.464844 25.621094 186.628906 26.285156 186.808594 26.984375 C 187.640625 26.984375 188.472656 26.984375 189.34375 26.984375 C 189.390625 26.589844 189.441406 26.1875 189.5 25.777344 C 189.847656 24.4375 189.847656 24.4375 191.371094 23.421875 Z M 191.371094 23.421875 "/>
<path style=" stroke:none;fill-rule:nonzero;fill:rgb(82.352942%,96.078432%,58.431375%);fill-opacity:1;" d="M 103.046875 45.816406 C 106.597656 45.816406 106.597656 45.816406 107.808594 46.578125 C 108.777344 48.078125 108.933594 49.15625 109.046875 50.90625 C 109.125 52.109375 109.125 52.109375 109.652344 53.964844 C 111.816406 53.964844 114 53.964844 116.246094 53.964844 C 116.246094 53.464844 116.246094 52.953125 116.246094 52.4375 C 115.90625 52.4375 115.566406 52.4375 115.222656 52.4375 C 115.0625 51.433594 114.890625 50.421875 114.71875 49.378906 C 115.734375 49.890625 115.734375 49.890625 116.171875 50.941406 C 116.296875 51.359375 116.433594 51.78125 116.5625 52.214844 C 116.753906 52.84375 116.753906 52.84375 116.964844 53.496094 C 117.0625 53.8125 117.15625 54.140625 117.253906 54.472656 C 114.746094 54.96875 112.121094 55.464844 109.625 54.640625 C 108.25 53.703125 107.878906 52.6875 107.234375 51.160156 C 107.015625 50.660156 106.796875 50.160156 106.578125 49.652344 C 106.09375 48.371094 106.09375 48.371094 106.09375 47.34375 C 105.421875 47.34375 104.75 47.34375 104.0625 47.34375 C 104.0625 49.691406 104.0625 52.046875 104.0625 54.472656 C 102.203125 54.84375 100.828125 55.03125 98.984375 54.984375 C 100.503906 53.964844 100.503906 53.964844 103.046875 53.964844 C 103.046875 51.277344 103.046875 48.589844 103.046875 45.816406 Z M 103.046875 45.816406 "/>
<path style=" stroke:none;fill-rule:nonzero;fill:rgb(33.333334%,66.666669%,13.333334%);fill-opacity:1;" d="M 59.902344 34.109375 C 60.402344 34.277344 60.90625 34.441406 61.421875 34.621094 C 61.421875 34.953125 61.421875 35.285156 61.421875 35.628906 C 62.683594 35.464844 62.683594 35.464844 63.964844 35.125 C 64.125 34.785156 64.296875 34.453125 64.46875 34.109375 C 64.96875 34.277344 65.46875 34.441406 65.996094 34.621094 C 65.765625 34.933594 65.546875 35.25 65.316406 35.566406 C 63.496094 38.171875 61.703125 40.796875 59.984375 43.46875 C 59.6875 43.875 59.6875 43.875 59.390625 44.285156 C 59.222656 44.285156 59.058594 44.285156 58.878906 44.285156 C 59.046875 43.121094 59.21875 41.9375 59.390625 40.722656 C 59.058594 40.722656 58.71875 40.722656 58.375 40.722656 C 58.214844 40.058594 58.035156 39.378906 57.871094 38.6875 C 58.203125 38.6875 58.535156 38.6875 58.878906 38.6875 C 58.878906 38.1875 58.878906 37.683594 58.878906 37.160156 C 58.878906 35.628906 58.878906 35.628906 59.902344 34.109375 Z M 59.902344 34.109375 "/>
<path style=" stroke:none;fill-rule:nonzero;fill:rgb(79.215688%,95.686275%,54.901963%);fill-opacity:1;" d="M 90.347656 31.5625 C 91.714844 32.484375 92.746094 33.441406 93.90625 34.621094 C 93.714844 35.84375 93.53125 36.515625 92.660156 37.433594 C 90.214844 39.203125 90.214844 39.203125 88.453125 39.203125 C 87.3125 38.6875 87.3125 38.6875 85.785156 37.160156 C 87.296875 37.160156 88.808594 37.160156 90.347656 37.160156 C 90.6875 35.816406 91.027344 34.472656 91.371094 33.09375 C 86.152344 31.097656 80.972656 30.902344 75.628906 32.578125 C 76.140625 31.5625 76.140625 31.5625 77.183594 31.128906 C 81.875 29.71875 85.75 29.71875 90.347656 31.5625 Z M 90.347656 31.5625 "/>
<path style=" stroke:none;fill-rule:nonzero;fill:rgb(40.784314%,67.058825%,23.137255%);fill-opacity:1;" d="M 9.652344 38.6875 C 12.78125 39.152344 14.703125 39.65625 16.75 42.253906 C 17.203125 42.808594 17.203125 42.808594 17.671875 43.371094 C 18.578125 45.53125 18.691406 47.589844 18.277344 49.890625 C 17.53125 51.058594 16.847656 51.59375 15.734375 52.4375 C 15.734375 51.765625 15.734375 51.09375 15.734375 50.402344 C 16.066406 50.402344 16.40625 50.402344 16.75 50.402344 C 16.933594 47.402344 16.78125 45.433594 15.222656 42.765625 C 15.222656 42.433594 15.222656 42.09375 15.222656 41.746094 C 13.558594 41.578125 11.875 41.40625 10.152344 41.234375 C 9.984375 40.402344 9.816406 39.558594 9.652344 38.6875 Z M 9.652344 38.6875 "/>
<path style=" stroke:none;fill-rule:nonzero;fill:rgb(41.960785%,67.058825%,24.313726%);fill-opacity:1;" d="M 160.40625 0.503906 C 163.878906 0.828125 168.546875 1.546875 171.0625 4.066406 C 169.472656 3.808594 167.890625 3.535156 166.308594 3.277344 C 165.652344 3.160156 165.652344 3.160156 164.972656 3.058594 C 163.964844 5.5625 163.390625 7.453125 163.453125 10.183594 C 163.28125 10.183594 163.121094 10.183594 162.941406 10.183594 C 162.777344 9.464844 162.597656 8.746094 162.4375 8.015625 C 162.34375 7.621094 162.25 7.21875 162.152344 6.808594 C 161.933594 5.597656 161.933594 5.597656 161.933594 3.5625 C 161.59375 3.5625 161.253906 3.5625 160.910156 3.5625 C 160.75 2.558594 160.578125 1.546875 160.40625 0.503906 Z M 160.40625 0.503906 "/>
<path style=" stroke:none;fill-rule:nonzero;fill:rgb(29.019609%,66.274512%,7.450981%);fill-opacity:1;" d="M 48.316406 31.027344 C 48.777344 31.027344 49.234375 31.03125 49.703125 31.035156 C 50.058594 31.035156 50.402344 31.046875 50.753906 31.058594 C 50.753906 32.0625 50.753906 33.066406 50.753906 34.109375 C 50.253906 34.109375 49.753906 34.109375 49.246094 34.109375 C 48.90625 34.78125 48.566406 35.453125 48.222656 36.152344 C 47.640625 35.777344 47.058594 35.390625 46.472656 35 C 45.996094 34.683594 45.996094 34.683594 45.5 34.359375 C 44.515625 33.464844 44.359375 32.859375 44.160156 31.5625 C 45.691406 31.058594 46.71875 31 48.316406 31.027344 Z M 48.316406 31.027344 "/>
<path style=" stroke:none;fill-rule:nonzero;fill:rgb(42.745098%,71.764708%,33.333334%);fill-opacity:1;" d="M 50.753906 43.78125 C 51.433594 43.953125 52.097656 44.121094 52.785156 44.285156 C 52.625 46.972656 52.453125 49.660156 52.28125 52.4375 C 54.058594 53.03125 55.5 53.015625 57.359375 52.941406 C 58.375 51.933594 58.078125 49.984375 58.15625 48.589844 C 58.171875 48.222656 58.191406 47.859375 58.21875 47.496094 C 58.277344 46.59375 58.328125 45.691406 58.375 44.796875 C 58.546875 44.796875 58.714844 44.796875 58.878906 44.796875 C 58.902344 46.234375 58.90625 47.660156 58.910156 49.09375 C 58.921875 49.503906 58.921875 49.910156 58.933594 50.339844 C 58.933594 51.375 58.90625 52.410156 58.878906 53.453125 C 58.375 53.964844 58.375 53.964844 56.902344 54.03125 C 56.296875 54.03125 55.691406 54.03125 55.078125 54.027344 C 54.472656 54.03125 53.875 54.03125 53.25 54.03125 C 51.777344 53.964844 51.777344 53.964844 51.265625 53.453125 C 51.1875 52.734375 51.140625 52.015625 51.109375 51.285156 C 51.089844 50.847656 51.0625 50.421875 51.046875 49.96875 C 51.027344 49.515625 51.003906 49.058594 50.984375 48.589844 C 50.964844 48.125 50.9375 47.671875 50.910156 47.191406 C 50.859375 46.058594 50.8125 44.921875 50.753906 43.78125 Z M 50.753906 43.78125 "/>
<path style=" stroke:none;fill-rule:nonzero;fill:rgb(41.960785%,63.921571%,25.490198%);fill-opacity:1;" d="M 2.03125 47.34375 C 3.347656 47.410156 4.671875 47.496094 6 47.566406 C 6.558594 47.597656 6.558594 47.597656 7.128906 47.625 C 8.75 47.722656 10.128906 47.847656 11.671875 48.371094 C 9.933594 49.53125 8.660156 49.65625 6.597656 49.890625 C 6.597656 49.558594 6.597656 49.21875 6.597656 48.875 C 5.09375 48.875 3.589844 48.875 2.03125 48.875 C 2.03125 50.046875 2.03125 51.222656 2.03125 52.4375 C 3.535156 52.6875 3.535156 52.6875 5.078125 52.941406 C 5.078125 53.28125 5.078125 53.621094 5.078125 53.964844 C 5.75 54.128906 6.410156 54.296875 7.109375 54.472656 C 6.285156 54.410156 5.472656 54.347656 4.660156 54.28125 C 3.984375 54.222656 3.984375 54.222656 3.285156 54.171875 C 2.03125 53.964844 2.03125 53.964844 0.503906 52.941406 C 0.785156 50.933594 1.25 49.21875 2.03125 47.34375 Z M 2.03125 47.34375 "/>
<path style=" stroke:none;fill-rule:nonzero;fill:rgb(89.411765%,97.254902%,72.549021%);fill-opacity:1;" d="M 146.191406 48.371094 C 147.621094 48.347656 149.046875 48.339844 150.472656 48.328125 C 150.878906 48.328125 151.285156 48.316406 151.714844 48.316406 C 152.75 48.3125 153.785156 48.339844 154.816406 48.371094 C 155.671875 49.214844 155.4375 50.222656 155.453125 51.378906 C 155.46875 51.84375 155.484375 52.296875 155.5 52.765625 C 155.441406 53.160156 155.378906 53.558594 155.328125 53.964844 C 153.484375 55.191406 152.628906 55.097656 150.4375 55.078125 C 149.453125 55.078125 149.453125 55.078125 148.4375 55.066406 C 147.746094 55.0625 147.046875 55.058594 146.347656 55.046875 C 145.652344 55.035156 144.941406 55.035156 144.246094 55.03125 C 142.527344 55.015625 140.808594 55 139.089844 54.984375 C 139.089844 54.8125 139.089844 54.652344 139.089844 54.472656 C 146.625 54.21875 146.625 54.21875 154.3125 53.964844 C 154.3125 52.453125 154.3125 50.9375 154.3125 49.378906 C 151.628906 49.214844 148.953125 49.046875 146.191406 48.875 C 146.191406 48.703125 146.191406 48.535156 146.191406 48.371094 Z M 146.191406 48.371094 "/>
<path style=" stroke:none;fill-rule:nonzero;fill:rgb(80.000001%,96.078432%,54.11765%);fill-opacity:1;" d="M 74.621094 32.578125 C 74.953125 32.75 75.285156 32.910156 75.628906 33.09375 C 75.277344 33.421875 75.277344 33.421875 74.90625 33.753906 C 73.996094 34.628906 73.996094 34.628906 73.597656 36.152344 C 73.097656 36.402344 73.097656 36.402344 72.589844 36.65625 C 72.058594 38.25 72.0625 39.222656 72.140625 40.890625 C 72.160156 41.410156 72.191406 41.9375 72.21875 42.472656 C 72.246094 43.027344 72.277344 43.566406 72.308594 44.128906 C 72.328125 44.683594 72.359375 45.234375 72.378906 45.808594 C 72.453125 47.160156 72.515625 48.53125 72.589844 49.890625 C 70.828125 48.214844 70.625 47.15625 70.4375 44.722656 C 70.34375 40.183594 70.683594 36.808594 73.734375 33.3125 C 74.027344 33.066406 74.316406 32.828125 74.621094 32.578125 Z M 74.621094 32.578125 "/>
<path style=" stroke:none;fill-rule:nonzero;fill:rgb(47.843137%,74.901962%,37.254903%);fill-opacity:1;" d="M 35.027344 30.035156 C 40.046875 30.035156 45.078125 30.035156 50.25 30.035156 C 50.25 30.535156 50.25 31.046875 50.25 31.5625 C 49.777344 31.558594 49.777344 31.558594 49.285156 31.546875 C 48.660156 31.535156 48.660156 31.535156 48.03125 31.53125 C 47.410156 31.527344 47.410156 31.527344 46.78125 31.515625 C 45.660156 31.496094 45.660156 31.496094 44.671875 32.066406 C 44.839844 33.078125 45.003906 34.089844 45.183594 35.125 C 44.71875 34.515625 44.71875 34.515625 44.253906 33.878906 C 43.246094 32.46875 43.246094 32.46875 41.625 32.066406 C 41.453125 31.734375 41.285156 31.402344 41.121094 31.058594 C 39.6875 30.8125 39.6875 30.8125 38.035156 30.734375 C 37.191406 30.683594 37.191406 30.683594 36.34375 30.621094 C 35.90625 30.59375 35.46875 30.566406 35.027344 30.546875 C 35.027344 30.375 35.027344 30.214844 35.027344 30.035156 Z M 35.027344 30.035156 "/>
<path style=" stroke:none;fill-rule:nonzero;fill:rgb(80.000001%,96.078432%,57.254905%);fill-opacity:1;" d="M 164.46875 42.253906 C 164.808594 42.253906 165.140625 42.253906 165.484375 42.253906 C 165.484375 42.59375 165.484375 42.933594 165.484375 43.277344 C 165.816406 43.277344 166.152344 43.277344 166.5 43.277344 C 166.5 43.941406 166.5 44.621094 166.5 45.3125 C 166.160156 45.3125 165.828125 45.3125 165.484375 45.3125 C 165.3125 48.339844 165.152344 51.359375 164.972656 54.472656 C 164.140625 54.640625 163.296875 54.8125 162.4375 54.984375 C 162.097656 54.652344 161.765625 54.3125 161.421875 53.964844 C 162.253906 53.964844 163.09375 53.964844 163.964844 53.964844 C 163.953125 53.652344 163.953125 53.328125 163.953125 53 C 163.9375 51.5625 163.9375 50.121094 163.933594 48.683594 C 163.921875 48.183594 163.921875 47.683594 163.910156 47.160156 C 163.910156 46.683594 163.910156 46.203125 163.90625 45.714844 C 163.90625 45.265625 163.90625 44.828125 163.902344 44.371094 C 163.964844 43.277344 163.964844 43.277344 164.46875 42.253906 Z M 164.46875 42.253906 "/>
<path style=" stroke:none;fill-rule:nonzero;fill:rgb(37.64706%,60.784316%,21.960784%);fill-opacity:1;" d="M 40.097656 49.378906 C 41.402344 50.496094 41.402344 50.496094 42.640625 51.933594 C 42.464844 53.285156 42.464844 53.285156 42.128906 54.472656 C 40.816406 54.46875 39.503906 54.441406 38.191406 54.40625 C 37.640625 54.410156 37.640625 54.410156 37.078125 54.410156 C 35.984375 54.375 35.984375 54.375 34.003906 53.964844 C 32.734375 52.40625 32.734375 52.40625 31.972656 50.90625 C 32.652344 51.078125 33.316406 51.246094 34.003906 51.421875 C 34.003906 51.753906 34.003906 52.09375 34.003906 52.4375 C 37.53125 52.6875 37.53125 52.6875 41.121094 52.941406 C 40.78125 52.441406 40.441406 51.9375 40.097656 51.421875 C 40.097656 50.75 40.097656 50.066406 40.097656 49.378906 Z M 40.097656 49.378906 "/>
<path style=" stroke:none;fill-rule:nonzero;fill:rgb(40.784314%,67.450982%,23.137255%);fill-opacity:1;" d="M 11.160156 29.527344 C 9.953125 30.75 9.472656 30.71875 7.808594 30.871094 C 7.390625 30.902344 6.972656 30.9375 6.546875 30.972656 C 6.222656 31.003906 5.910156 31.03125 5.589844 31.058594 C 5.589844 31.558594 5.589844 32.0625 5.589844 32.578125 C 5.078125 33.09375 4.566406 33.597656 4.0625 34.109375 C 3.691406 35.183594 3.691406 35.183594 3.558594 36.152344 C 3.378906 35.640625 3.21875 35.140625 3.046875 34.621094 C 2.714844 34.621094 2.375 34.621094 2.03125 34.621094 C 2.03125 34.953125 2.03125 35.285156 2.03125 35.628906 C 1.691406 35.628906 1.359375 35.628906 1.015625 35.628906 C 1.160156 33.921875 1.503906 33.109375 2.566406 31.722656 C 5.171875 29.671875 7.902344 29.371094 11.160156 29.527344 Z M 11.160156 29.527344 "/>
<path style=" stroke:none;fill-rule:nonzero;fill:rgb(78.039217%,95.294118%,54.11765%);fill-opacity:1;" d="M 125.890625 37.160156 C 126.058594 37.160156 126.222656 37.160156 126.402344 37.160156 C 126.402344 38.339844 126.402344 39.515625 126.402344 40.722656 C 129.078125 40.722656 131.753906 40.722656 134.515625 40.722656 C 134.578125 45.183594 134.578125 45.183594 134.003906 46.328125 C 133.171875 46.328125 132.339844 46.328125 131.46875 46.328125 C 132.140625 46.15625 132.8125 45.996094 133.5 45.816406 C 133.5 44.472656 133.5 43.128906 133.5 41.746094 C 130.996094 41.746094 128.472656 41.746094 125.890625 41.746094 C 125.890625 40.234375 125.890625 38.71875 125.890625 37.160156 Z M 125.890625 37.160156 "/>
<path style=" stroke:none;fill-rule:nonzero;fill:rgb(76.862746%,96.470588%,48.235294%);fill-opacity:1;" d="M 161.421875 32.066406 C 163.660156 33.296875 165.734375 34.808594 167.515625 36.65625 C 167.515625 36.996094 167.515625 37.328125 167.515625 37.671875 C 167.96875 37.890625 167.96875 37.890625 168.433594 38.121094 C 169.546875 38.6875 169.546875 38.6875 171.0625 39.714844 C 171.0625 40.046875 171.0625 40.378906 171.0625 40.722656 C 170.0625 40.5625 169.058594 40.390625 168.027344 40.21875 C 168.1875 39.878906 168.347656 39.546875 168.53125 39.203125 C 168.027344 39.03125 167.527344 38.871094 167.003906 38.6875 C 167.003906 38.347656 167.003906 38.015625 167.003906 37.671875 C 166.28125 37.484375 166.28125 37.484375 165.546875 37.285156 C 163.964844 36.65625 163.964844 36.65625 163.359375 35.671875 C 163.21875 35.316406 163.089844 34.972656 162.941406 34.621094 C 162.671875 34.34375 162.402344 34.066406 162.121094 33.785156 C 161.890625 33.5625 161.65625 33.328125 161.421875 33.09375 C 161.421875 32.753906 161.421875 32.421875 161.421875 32.066406 Z M 161.421875 32.066406 "/>
<path style=" stroke:none;fill-rule:nonzero;fill:rgb(29.411766%,66.666669%,7.450981%);fill-opacity:1;" d="M 37.5625 48.875 C 37.902344 48.875 38.234375 48.875 38.578125 48.875 C 38.578125 49.214844 38.578125 49.546875 38.578125 49.890625 C 38.910156 50.0625 39.25 50.222656 39.59375 50.402344 C 39.433594 50.734375 39.253906 51.066406 39.089844 51.421875 C 39.753906 51.589844 40.433594 51.753906 41.121094 51.933594 C 41.121094 52.265625 41.121094 52.597656 41.121094 52.941406 C 39.109375 52.941406 37.09375 52.941406 35.027344 52.941406 C 34.859375 52.277344 34.6875 51.597656 34.515625 50.90625 C 34.828125 50.859375 35.152344 50.808594 35.46875 50.75 C 36.734375 50.464844 36.734375 50.464844 37.5625 48.875 Z M 37.5625 48.875 "/>
<path style=" stroke:none;fill-rule:nonzero;fill:rgb(77.254903%,96.078432%,50.196081%);fill-opacity:1;" d="M 103.046875 36.152344 C 104.71875 36.152344 106.402344 36.152344 108.125 36.152344 C 108.125 36.484375 108.125 36.816406 108.125 37.160156 C 106.78125 37.160156 105.441406 37.160156 104.0625 37.160156 C 104.222656 38.171875 104.402344 39.183594 104.566406 40.21875 C 105.746094 40.21875 106.910156 40.21875 108.125 40.21875 C 107.953125 40.71875 107.785156 41.222656 107.621094 41.746094 C 104.1875 41.8125 104.1875 41.8125 103.046875 41.234375 C 103.046875 39.558594 103.046875 37.875 103.046875 36.152344 Z M 103.046875 36.152344 "/>
<path style=" stroke:none;fill-rule:nonzero;fill:rgb(82.745099%,95.686275%,51.764709%);fill-opacity:1;" d="M 91.875 50.402344 C 92.378906 50.566406 92.878906 50.734375 93.402344 50.90625 C 90.277344 54.316406 87.691406 55.183594 83.183594 55.46875 C 81.621094 55.496094 80.191406 55.359375 78.683594 54.984375 C 78.683594 54.8125 78.683594 54.652344 78.683594 54.472656 C 82.191406 54.140625 85.71875 53.796875 89.34375 53.453125 C 89.34375 53.121094 89.34375 52.78125 89.34375 52.4375 C 90.183594 52.265625 91.015625 52.097656 91.875 51.933594 C 91.875 51.421875 91.875 50.921875 91.875 50.402344 Z M 91.875 50.402344 "/>
<path style=" stroke:none;fill-rule:nonzero;fill:rgb(40.784314%,67.843139%,27.843139%);fill-opacity:1;" d="M 41.121094 31.5625 C 41.453125 31.734375 41.785156 31.902344 42.128906 32.066406 C 42.128906 32.40625 42.128906 32.746094 42.128906 33.09375 C 41.796875 33.09375 41.464844 33.09375 41.121094 33.09375 C 41 33.375 40.875 33.65625 40.75 33.953125 C 39.683594 35.890625 38.097656 37.371094 36.59375 38.972656 C 35.671875 40.058594 35.066406 40.964844 34.515625 42.253906 C 34.6875 40.910156 34.847656 39.566406 35.027344 38.183594 C 35.691406 38.015625 36.371094 37.84375 37.058594 37.671875 C 37.128906 37.09375 37.128906 37.09375 37.214844 36.496094 C 37.589844 35.03125 37.90625 34.5 39.089844 33.597656 C 39.421875 33.597656 39.753906 33.597656 40.097656 33.597656 C 40.4375 32.933594 40.777344 32.253906 41.121094 31.5625 Z M 41.121094 31.5625 "/>
<path style=" stroke:none;fill-rule:nonzero;fill:rgb(42.352942%,67.843139%,26.274511%);fill-opacity:1;" d="M 170.558594 26.472656 C 171.8125 26.722656 171.8125 26.722656 173.09375 26.984375 C 173.265625 27.484375 173.433594 27.996094 173.597656 28.503906 C 175.78125 28.171875 177.964844 27.839844 180.203125 27.496094 C 179.1875 29.527344 179.1875 29.527344 177.660156 30.066406 C 175.003906 30.339844 172.78125 28.785156 170.558594 27.496094 C 170.558594 27.15625 170.558594 26.816406 170.558594 26.472656 Z M 170.558594 26.472656 "/>
<path style=" stroke:none;fill-rule:nonzero;fill:rgb(37.254903%,66.666669%,18.431373%);fill-opacity:1;" d="M 34.003906 40.722656 C 34.183594 41.234375 34.34375 41.734375 34.515625 42.253906 C 35.027344 42.421875 35.527344 42.59375 36.035156 42.765625 C 36.902344 44.316406 36.902344 44.316406 37.5625 45.816406 C 35.503906 46.40625 34.40625 46.246094 32.484375 45.3125 C 32.722656 44.746094 32.722656 44.746094 32.964844 44.160156 C 33.40625 43.015625 33.746094 41.933594 34.003906 40.722656 Z M 34.003906 40.722656 "/>
<path style=" stroke:none;fill-rule:nonzero;fill:rgb(41.568628%,66.666669%,25.882354%);fill-opacity:1;" d="M 58.375 32.066406 C 58.546875 32.066406 58.714844 32.066406 58.878906 32.066406 C 58.972656 33.785156 58.972656 33.785156 58.878906 35.628906 C 58.378906 35.96875 57.875 36.308594 57.359375 36.65625 C 57.191406 37.15625 57.027344 37.660156 56.847656 38.183594 C 55.847656 38.347656 54.84375 38.515625 53.808594 38.6875 C 53.808594 37.847656 53.808594 37.003906 53.808594 36.152344 C 54.472656 36.652344 55.152344 37.15625 55.839844 37.671875 C 55.878906 37.410156 55.921875 37.152344 55.964844 36.875 C 56.503906 35.097656 57.433594 33.660156 58.375 32.066406 Z M 58.375 32.066406 "/>
<path style=" stroke:none;fill-rule:nonzero;fill:rgb(46.666667%,67.058825%,34.117648%);fill-opacity:1;" d="M 14.214844 30.035156 C 15.46875 30.535156 15.46875 30.535156 16.75 31.058594 C 16.371094 34.9375 16.371094 34.9375 15.222656 36.65625 C 13.71875 36.484375 12.214844 36.316406 10.65625 36.152344 C 10.65625 35.972656 10.65625 35.8125 10.65625 35.628906 C 12 35.46875 13.34375 35.296875 14.71875 35.125 C 14.890625 33.78125 15.058594 32.4375 15.222656 31.058594 C 14.890625 31.058594 14.558594 31.058594 14.214844 31.058594 C 14.214844 30.71875 14.214844 30.378906 14.214844 30.035156 Z M 14.214844 30.035156 "/>
<path style=" stroke:none;fill-rule:nonzero;fill:rgb(72.156864%,96.862745%,36.470589%);fill-opacity:1;" d="M 171.0625 49.378906 C 171.734375 49.378906 172.40625 49.378906 173.09375 49.378906 C 173.265625 50.058594 173.433594 50.722656 173.597656 51.421875 C 175.109375 51.421875 176.621094 51.421875 178.171875 51.421875 C 178.171875 52.253906 178.171875 53.097656 178.171875 53.964844 C 175.433594 53.566406 173.734375 52.671875 171.921875 50.5625 C 171.640625 50.171875 171.359375 49.78125 171.0625 49.378906 Z M 171.0625 49.378906 "/>
<path style=" stroke:none;fill-rule:nonzero;fill:rgb(49.803922%,72.941178%,37.64706%);fill-opacity:1;" d="M 63.765625 30.003906 C 64.375 30.003906 64.972656 30.015625 65.59375 30.015625 C 66.0625 30.027344 66.527344 30.03125 67.003906 30.035156 C 67.308594 31 67.308594 31 67.515625 32.066406 C 66.78125 32.964844 66.78125 32.964844 65.996094 33.597656 C 66.15625 32.753906 66.328125 31.921875 66.5 31.058594 C 64.316406 31.058594 62.140625 31.058594 59.902344 31.058594 C 59.902344 31.390625 59.902344 31.722656 59.902344 32.066406 C 59.5625 32.066406 59.222656 32.066406 58.878906 32.066406 C 59.046875 31.566406 59.21875 31.0625 59.390625 30.546875 C 60.847656 29.8125 62.140625 29.996094 63.765625 30.003906 Z M 63.765625 30.003906 "/>
<path style=" stroke:none;fill-rule:nonzero;fill:rgb(38.82353%,67.450982%,20.392157%);fill-opacity:1;" d="M 29.441406 44.796875 C 30.808594 45.53125 30.808594 45.53125 31.972656 46.839844 C 32.203125 48.265625 32.097656 49.453125 31.972656 50.90625 C 30.5 49.109375 29.1875 47.265625 27.921875 45.3125 C 28.421875 45.140625 28.921875 44.972656 29.441406 44.796875 Z M 29.441406 44.796875 "/>
<path style=" stroke:none;fill-rule:nonzero;fill:rgb(30.980393%,63.921571%,5.882353%);fill-opacity:1;" d="M 185.785156 20.875 C 185.785156 22.71875 185.785156 24.566406 185.785156 26.472656 C 185.453125 26.472656 185.121094 26.472656 184.777344 26.472656 C 184.777344 26.972656 184.777344 27.484375 184.777344 28 C 184.4375 28 184.097656 28 183.753906 28 C 184.027344 26.59375 184.316406 25.285156 184.777344 23.933594 C 184.4375 23.933594 184.097656 23.933594 183.753906 23.933594 C 183.941406 22.6875 183.941406 22.6875 184.265625 21.378906 C 185.28125 20.875 185.28125 20.875 185.785156 20.875 Z M 185.785156 20.875 "/>
<path style=" stroke:none;fill-rule:nonzero;fill:rgb(30.588236%,63.921571%,10.980392%);fill-opacity:1;" d="M 25.15625 30.996094 C 25.777344 30.996094 25.777344 30.996094 26.402344 30.984375 C 27.410156 31.058594 27.410156 31.058594 27.921875 31.5625 C 27.9375 32.410156 27.9375 33.253906 27.921875 34.109375 C 27.410156 34.359375 27.410156 34.359375 26.90625 34.621094 C 26.734375 33.609375 26.566406 32.597656 26.402344 31.5625 C 25.390625 31.5625 24.378906 31.5625 23.347656 31.5625 C 23.183594 32.566406 23.015625 33.578125 22.84375 34.621094 C 22.503906 34.453125 22.171875 34.28125 21.828125 34.109375 C 21.828125 33.265625 21.828125 32.433594 21.828125 31.5625 C 23.035156 30.964844 23.8125 30.984375 25.15625 30.996094 Z M 25.15625 30.996094 "/>
<path style=" stroke:none;fill-rule:nonzero;fill:rgb(79.607844%,96.078432%,52.549022%);fill-opacity:1;" d="M 113.191406 32.066406 C 114.84375 33.296875 115.609375 33.972656 116.015625 36.03125 C 116.128906 37.433594 116.21875 38.816406 116.246094 40.21875 C 115.90625 40.378906 115.566406 40.558594 115.222656 40.722656 C 115.222656 38.878906 115.222656 37.03125 115.222656 35.125 C 114.890625 35.125 114.558594 35.125 114.214844 35.125 C 114.214844 34.785156 114.214844 34.453125 114.214844 34.109375 C 113.214844 33.777344 112.203125 33.4375 111.160156 33.09375 C 111.839844 32.753906 112.503906 32.421875 113.191406 32.066406 Z M 113.191406 32.066406 "/>
<path style=" stroke:none;fill-rule:nonzero;fill:rgb(74.117649%,96.078432%,42.745098%);fill-opacity:1;" d="M 85.28125 45.816406 C 86.453125 45.984375 87.625 46.15625 88.839844 46.328125 C 88.546875 48 88.15625 48.859375 86.808594 49.890625 C 85.433594 50.035156 85.433594 50.035156 83.910156 49.984375 C 83.410156 49.96875 82.90625 49.964844 82.378906 49.941406 C 82 49.933594 81.621094 49.90625 81.21875 49.890625 C 81.21875 49.722656 81.21875 49.558594 81.21875 49.378906 C 82.558594 49.378906 83.902344 49.378906 85.28125 49.378906 C 85.28125 49.046875 85.28125 48.714844 85.28125 48.371094 C 85.953125 48.191406 86.621094 48.03125 87.3125 47.847656 C 87.3125 47.347656 87.3125 46.84375 87.3125 46.328125 C 86.640625 46.15625 85.96875 45.996094 85.28125 45.816406 Z M 85.28125 45.816406 "/>
<path style=" stroke:none;fill-rule:nonzero;fill:rgb(42.352942%,63.921571%,25.882354%);fill-opacity:1;" d="M 184.777344 26.472656 C 184.9375 26.8125 185.109375 27.152344 185.28125 27.496094 C 186.953125 27.496094 188.628906 27.496094 190.347656 27.496094 C 188.402344 28.796875 187.527344 28.421875 185.28125 28 C 185.21875 28.40625 185.15625 28.816406 185.089844 29.246094 C 184.984375 29.671875 184.878906 30.097656 184.777344 30.546875 C 184.265625 30.796875 184.265625 30.796875 183.753906 31.058594 C 183.589844 30.046875 183.421875 29.035156 183.25 28 C 183.75 28 184.25 28 184.777344 28 C 184.777344 27.496094 184.777344 26.996094 184.777344 26.472656 Z M 184.777344 26.472656 "/>
<path style=" stroke:none;fill-rule:nonzero;fill:rgb(32.941177%,61.960787%,13.333334%);fill-opacity:1;" d="M 57.871094 43.78125 C 58.878906 44.796875 58.878906 44.796875 58.90625 46.53125 C 58.859375 47.222656 58.8125 47.921875 58.753906 48.621094 C 58.734375 48.96875 58.71875 49.316406 58.691406 49.683594 C 58.503906 52.308594 58.503906 52.308594 57.359375 53.453125 C 55.527344 53.515625 55.527344 53.515625 53.808594 53.453125 C 54.109375 53.316406 54.410156 53.183594 54.722656 53.035156 C 55.921875 52.390625 56.546875 52 57.359375 50.90625 C 57.65625 49.160156 57.65625 49.160156 57.714844 47.25 C 57.746094 46.597656 57.777344 45.953125 57.8125 45.285156 C 57.828125 44.785156 57.847656 44.296875 57.871094 43.78125 Z M 57.871094 43.78125 "/>
<path style=" stroke:none;fill-rule:nonzero;fill:rgb(52.549022%,70.980394%,36.078432%);fill-opacity:1;" d="M 163.453125 10.183594 C 163.621094 10.183594 163.785156 10.183594 163.964844 10.183594 C 164.296875 11.527344 164.628906 12.871094 164.972656 14.253906 C 165.140625 14.253906 165.3125 14.253906 165.484375 14.253906 C 165.984375 16.316406 166.03125 18.246094 165.996094 20.371094 C 164.058594 17.453125 163.171875 13.671875 163.453125 10.183594 Z M 163.453125 10.183594 "/>
<path style=" stroke:none;fill-rule:nonzero;fill:rgb(42.745098%,67.843139%,27.843139%);fill-opacity:1;" d="M 189.847656 16.285156 C 189.847656 16.796875 189.847656 17.296875 189.847656 17.816406 C 189.34375 17.816406 188.84375 17.816406 188.328125 17.816406 C 188.203125 18.125 188.066406 18.433594 187.941406 18.746094 C 187.222656 20 186.46875 20.589844 185.28125 21.378906 C 184.941406 21.214844 184.609375 21.046875 184.265625 20.875 C 184.839844 20.203125 185.40625 19.53125 185.972656 18.871094 C 186.296875 18.496094 186.609375 18.125 186.9375 17.746094 C 187.933594 16.683594 188.390625 16.285156 189.847656 16.285156 Z M 189.847656 16.285156 "/>
<path style=" stroke:none;fill-rule:nonzero;fill:rgb(79.607844%,95.294118%,51.764709%);fill-opacity:1;" d="M 77.660156 45.3125 C 77.972656 45.628906 77.972656 45.628906 78.296875 45.964844 C 80.609375 48.15625 82.097656 48.753906 85.28125 48.875 C 85.28125 49.035156 85.28125 49.214844 85.28125 49.378906 C 84.472656 49.402344 83.671875 49.40625 82.871094 49.410156 C 82.191406 49.421875 82.191406 49.421875 81.515625 49.433594 C 80.3125 49.378906 79.316406 49.214844 78.171875 48.875 C 78.003906 47.691406 77.839844 46.527344 77.660156 45.3125 Z M 77.660156 45.3125 "/>
<path style=" stroke:none;fill-rule:nonzero;fill:rgb(55.29412%,77.64706%,43.529412%);fill-opacity:1;" d="M 43.152344 30.035156 C 45.496094 30.035156 47.839844 30.035156 50.25 30.035156 C 50.25 30.535156 50.25 31.046875 50.25 31.5625 C 46.734375 31.3125 46.734375 31.3125 43.152344 31.058594 C 43.152344 30.71875 43.152344 30.378906 43.152344 30.035156 Z M 43.152344 30.035156 "/>
<path style=" stroke:none;fill-rule:nonzero;fill:rgb(47.843137%,68.627453%,24.705882%);fill-opacity:1;" d="M 1.015625 50.402344 C 1.121094 50.722656 1.222656 51.058594 1.339844 51.378906 C 1.972656 52.621094 1.972656 52.621094 3.621094 52.816406 C 4.097656 52.859375 4.578125 52.902344 5.078125 52.941406 C 5.078125 53.28125 5.078125 53.621094 5.078125 53.964844 C 5.75 54.128906 6.410156 54.296875 7.109375 54.472656 C 6.285156 54.410156 5.472656 54.347656 4.660156 54.28125 C 4.214844 54.25 3.753906 54.214844 3.285156 54.171875 C 2.03125 53.964844 2.03125 53.964844 0.503906 52.941406 C 0.671875 52.097656 0.84375 51.265625 1.015625 50.402344 Z M 1.015625 50.402344 "/>
<path style=" stroke:none;fill-rule:nonzero;fill:rgb(80.392158%,95.686275%,55.29412%);fill-opacity:1;" d="M 161.421875 32.066406 C 163.714844 33.25 164.941406 34.652344 166.5 36.65625 C 164.996094 36.40625 164.996094 36.40625 163.453125 36.152344 C 163.28125 35.640625 163.121094 35.140625 162.941406 34.621094 C 162.683594 34.359375 162.421875 34.09375 162.152344 33.816406 C 161.910156 33.578125 161.671875 33.339844 161.421875 33.09375 C 161.421875 32.753906 161.421875 32.421875 161.421875 32.066406 Z M 161.421875 32.066406 "/>
<path style=" stroke:none;fill-rule:nonzero;fill:rgb(42.745098%,64.705884%,27.843139%);fill-opacity:1;" d="M 196.441406 16.796875 C 196.953125 16.96875 197.453125 17.128906 197.96875 17.3125 C 197.96875 17.652344 197.96875 17.984375 197.96875 18.328125 C 197.628906 18.328125 197.296875 18.328125 196.953125 18.328125 C 196.902344 18.703125 196.847656 19.089844 196.796875 19.472656 C 196.421875 20.964844 195.90625 21.753906 194.921875 22.90625 C 194.75 20.433594 195.21875 18.953125 196.441406 16.796875 Z M 196.441406 16.796875 "/>
<path style=" stroke:none;fill-rule:nonzero;fill:rgb(36.078432%,63.921571%,19.607843%);fill-opacity:1;" d="M 16.75 44.796875 C 17.089844 44.96875 17.421875 45.128906 17.765625 45.3125 C 17.816406 46.214844 17.859375 47.109375 17.890625 48.015625 C 17.910156 48.515625 17.9375 49.015625 17.964844 49.53125 C 17.765625 50.90625 17.765625 50.90625 16.746094 51.847656 C 16.410156 52.046875 16.078125 52.234375 15.734375 52.4375 C 15.734375 51.765625 15.734375 51.09375 15.734375 50.402344 C 16.066406 50.402344 16.40625 50.402344 16.75 50.402344 C 16.75 48.558594 16.75 46.703125 16.75 44.796875 Z M 16.75 44.796875 "/>
<path style=" stroke:none;fill-rule:nonzero;fill:rgb(81.960785%,96.078432%,60.000002%);fill-opacity:1;" d="M 82.746094 41.746094 C 83.753906 42.765625 83.753906 42.765625 83.816406 44.347656 C 83.796875 44.839844 83.78125 45.316406 83.753906 45.816406 C 84.933594 45.984375 86.097656 46.15625 87.3125 46.328125 C 86.121094 47.058594 85.546875 47.390625 84.140625 47.15625 C 83.84375 47.046875 83.546875 46.941406 83.25 46.839844 C 82.847656 45.097656 82.6875 43.527344 82.746094 41.746094 Z M 82.746094 41.746094 "/>
<path style=" stroke:none;fill-rule:nonzero;fill:rgb(43.921569%,65.882355%,30.588236%);fill-opacity:1;" d="M 193.402344 23.421875 C 193.90625 23.589844 194.40625 23.753906 194.921875 23.933594 C 194.421875 24.683594 194.421875 24.683594 193.90625 25.453125 C 193.566406 25.453125 193.246094 25.453125 192.890625 25.453125 C 192.890625 25.785156 192.890625 26.125 192.890625 26.472656 C 192.058594 26.8125 191.21875 27.152344 190.347656 27.496094 C 190.527344 26.816406 190.6875 26.152344 190.859375 25.453125 C 191.371094 25.453125 191.871094 25.453125 192.378906 25.453125 C 192.378906 24.953125 192.378906 24.441406 192.378906 23.933594 C 192.71875 23.753906 193.058594 23.59375 193.402344 23.421875 Z M 193.402344 23.421875 "/>
<path style=" stroke:none;fill-rule:nonzero;fill:rgb(81.176472%,96.470588%,54.11765%);fill-opacity:1;" d="M 72.589844 50.402344 C 74 50.59375 74.910156 50.746094 76.046875 51.640625 C 76.652344 52.4375 76.652344 52.4375 76.652344 53.453125 C 77.316406 53.453125 77.996094 53.453125 78.683594 53.453125 C 78.683594 53.785156 78.683594 54.125 78.683594 54.472656 C 76.035156 53.78125 74.546875 52.734375 72.589844 50.90625 C 72.589844 50.746094 72.589844 50.566406 72.589844 50.402344 Z M 72.589844 50.402344 "/>
<path style=" stroke:none;fill-rule:nonzero;fill:rgb(73.725492%,95.686275%,41.176471%);fill-opacity:1;" d="M 84.777344 35.628906 C 85.109375 36.140625 85.441406 36.640625 85.785156 37.160156 C 83.609375 36.996094 81.433594 36.828125 79.1875 36.65625 C 79.027344 36.996094 78.847656 37.328125 78.683594 37.671875 C 78.683594 37.171875 78.683594 36.660156 78.683594 36.152344 C 80.722656 35.464844 82.640625 35.5 84.777344 35.628906 Z M 84.777344 35.628906 "/>
<path style=" stroke:none;fill-rule:nonzero;fill:rgb(43.137255%,67.058825%,27.058825%);fill-opacity:1;" d="M 172.589844 4.578125 C 176.433594 6.621094 176.433594 6.621094 177.660156 8.65625 C 175.75 8.402344 174.902344 8.035156 173.597656 6.621094 C 173.265625 6.621094 172.9375 6.621094 172.589844 6.621094 C 172.589844 5.941406 172.589844 5.277344 172.589844 4.578125 Z M 172.589844 4.578125 "/>
<path style=" stroke:none;fill-rule:nonzero;fill:rgb(36.078432%,70.19608%,14.117648%);fill-opacity:1;" d="M 2.03125 34.621094 C 2.371094 34.621094 2.703125 34.621094 3.046875 34.621094 C 3.046875 35.625 3.046875 36.628906 3.046875 37.671875 C 2.03125 38.183594 2.03125 38.183594 1.527344 38.183594 C 1.027344 38.4375 1.027344 38.4375 0.503906 38.6875 C 0.503906 37.683594 0.503906 36.671875 0.503906 35.628906 C 1.003906 35.628906 1.515625 35.628906 2.03125 35.628906 C 2.03125 35.296875 2.03125 34.964844 2.03125 34.621094 Z M 2.03125 34.621094 "/>
<path style=" stroke:none;fill-rule:nonzero;fill:rgb(74.117649%,96.470588%,43.137255%);fill-opacity:1;" d="M 107.621094 46.839844 C 108.628906 47.847656 108.628906 47.847656 108.722656 48.84375 C 108.691406 49.875 108.660156 50.902344 108.628906 51.933594 C 107.871094 51.347656 107.871094 51.347656 107.109375 50.402344 C 106.972656 48.8125 106.972656 48.8125 107.109375 47.34375 C 107.277344 47.183594 107.441406 47.003906 107.621094 46.839844 Z M 107.621094 46.839844 "/>
<path style=" stroke:none;fill-rule:nonzero;fill:rgb(44.705883%,67.843139%,26.666668%);fill-opacity:1;" d="M 60.40625 39.714844 C 60.90625 39.714844 61.410156 39.714844 61.933594 39.714844 C 61.265625 41.714844 60.441406 42.878906 58.878906 44.285156 C 58.878906 43.453125 58.878906 42.609375 58.878906 41.746094 C 59.21875 41.746094 59.558594 41.746094 59.902344 41.746094 C 60.0625 41.066406 60.234375 40.402344 60.40625 39.714844 Z M 60.40625 39.714844 "/>
<path style=" stroke:none;fill-rule:nonzero;fill:rgb(80.000001%,95.686275%,55.29412%);fill-opacity:1;" d="M 166.5 45.3125 C 167.5 45.652344 168.503906 45.984375 169.546875 46.328125 C 169.546875 46.828125 169.546875 47.339844 169.546875 47.847656 C 170.046875 48.027344 170.546875 48.1875 171.0625 48.371094 C 171.0625 48.703125 171.0625 49.035156 171.0625 49.378906 C 170.734375 49.378906 170.402344 49.378906 170.046875 49.378906 C 170.046875 49.046875 170.046875 48.714844 170.046875 48.371094 C 169.75 48.234375 169.441406 48.109375 169.128906 47.984375 C 167.875 47.265625 167.285156 46.503906 166.5 45.3125 Z M 166.5 45.3125 "/>
<path style=" stroke:none;fill-rule:nonzero;fill:rgb(29.411766%,60.784316%,7.058824%);fill-opacity:1;" d="M 179.691406 23.421875 C 180.03125 23.589844 180.371094 23.753906 180.714844 23.933594 C 181.03125 25.484375 181.03125 25.484375 181.21875 26.984375 C 180.546875 27.152344 179.875 27.316406 179.1875 27.496094 C 179.160156 26.308594 179.160156 25.121094 179.1875 23.933594 C 179.347656 23.753906 179.527344 23.59375 179.691406 23.421875 Z M 179.691406 23.421875 "/>
<path style=" stroke:none;fill-rule:nonzero;fill:rgb(47.058824%,66.666669%,33.333334%);fill-opacity:1;" d="M 40.097656 49.378906 C 41.402344 50.496094 41.402344 50.496094 42.640625 51.933594 C 42.546875 53.359375 42.546875 53.359375 42.128906 54.472656 C 41.796875 54.140625 41.464844 53.796875 41.121094 53.453125 C 41.28125 52.953125 41.453125 52.441406 41.625 51.933594 C 41.125 51.753906 40.621094 51.59375 40.097656 51.421875 C 40.097656 50.75 40.097656 50.066406 40.097656 49.378906 Z M 40.097656 49.378906 "/>
<path style=" stroke:none;fill-rule:nonzero;fill:rgb(47.058824%,69.411767%,34.117648%);fill-opacity:1;" d="M 56.34375 35.628906 C 56.515625 35.628906 56.683594 35.628906 56.847656 35.628906 C 56.847656 36.472656 56.847656 37.3125 56.847656 38.183594 C 55.847656 38.347656 54.84375 38.515625 53.808594 38.6875 C 53.808594 37.847656 53.808594 37.003906 53.808594 36.152344 C 54.472656 36.652344 55.152344 37.15625 55.839844 37.671875 C 56.003906 37 56.171875 36.328125 56.34375 35.628906 Z M 56.34375 35.628906 "/>
<path style=" stroke:none;fill-rule:nonzero;fill:rgb(38.82353%,63.921571%,22.745098%);fill-opacity:1;" d="M 7.109375 35.125 C 8.621094 35.125 10.125 35.125 11.671875 35.125 C 11.671875 35.296875 11.671875 35.464844 11.671875 35.628906 C 10.5 35.808594 9.328125 35.96875 8.125 36.152344 C 8.285156 36.652344 8.453125 37.15625 8.628906 37.671875 C 8.125 37.671875 7.625 37.671875 7.109375 37.671875 C 7.109375 36.839844 7.109375 35.996094 7.109375 35.125 Z M 7.109375 35.125 "/>
<path style=" stroke:none;fill-rule:nonzero;fill:rgb(78.823531%,96.862745%,52.941179%);fill-opacity:1;" d="M 112.183594 45.3125 C 112.515625 45.3125 112.847656 45.3125 113.191406 45.3125 C 113.746094 46.3125 114.25 47.328125 114.71875 48.371094 C 114.558594 48.703125 114.378906 49.035156 114.214844 49.378906 C 113.546875 49.046875 112.875 48.714844 112.183594 48.371094 C 112.183594 47.359375 112.183594 46.34375 112.183594 45.3125 Z M 112.183594 45.3125 "/>
<path style=" stroke:none;fill-rule:nonzero;fill:rgb(27.450982%,67.843139%,4.313726%);fill-opacity:1;" d="M 59.902344 32.578125 C 60.566406 32.75 61.246094 32.910156 61.933594 33.09375 C 61.753906 33.765625 61.59375 34.4375 61.421875 35.125 C 60.921875 34.785156 60.410156 34.453125 59.902344 34.109375 C 59.734375 34.609375 59.5625 35.121094 59.390625 35.628906 C 59.222656 35.128906 59.058594 34.625 58.878906 34.109375 C 59.21875 33.597656 59.558594 33.097656 59.902344 32.578125 Z M 59.902344 32.578125 "/>
<path style=" stroke:none;fill-rule:nonzero;fill:rgb(77.64706%,96.078432%,49.411765%);fill-opacity:1;" d="M 91.875 50.402344 C 92.378906 50.566406 92.878906 50.734375 93.402344 50.90625 C 92.222656 52.183594 92.222656 52.183594 90.859375 53.453125 C 90.359375 53.453125 89.859375 53.453125 89.34375 53.453125 C 89.34375 53.121094 89.34375 52.78125 89.34375 52.4375 C 90.183594 52.265625 91.015625 52.097656 91.875 51.933594 C 91.875 51.421875 91.875 50.921875 91.875 50.402344 Z M 91.875 50.402344 "/>
<path style=" stroke:none;fill-rule:nonzero;fill:rgb(78.431374%,96.862745%,47.843137%);fill-opacity:1;" d="M 108.125 37.160156 C 108.785156 37.160156 109.464844 37.160156 110.152344 37.160156 C 110.152344 38.171875 110.152344 39.183594 110.152344 40.21875 C 109.652344 40.21875 109.152344 40.21875 108.628906 40.21875 C 108.464844 39.214844 108.296875 38.203125 108.125 37.160156 Z M 108.125 37.160156 "/>
<path style=" stroke:none;fill-rule:nonzero;fill:rgb(78.039217%,96.862745%,53.333336%);fill-opacity:1;" d="M 171.0625 49.378906 C 171.734375 49.378906 172.40625 49.378906 173.09375 49.378906 C 173.265625 50.058594 173.433594 50.722656 173.597656 51.421875 C 173.9375 51.421875 174.277344 51.421875 174.621094 51.421875 C 174.453125 51.921875 174.28125 52.433594 174.109375 52.941406 C 173.109375 51.765625 172.097656 50.59375 171.0625 49.378906 Z M 171.0625 49.378906 "/>
<path style=" stroke:none;fill-rule:nonzero;fill:rgb(72.549021%,97.254902%,33.725491%);fill-opacity:1;" d="M 90.859375 37.160156 C 90.691406 37.328125 90.53125 37.5 90.347656 37.671875 C 89.578125 37.625 88.8125 37.546875 88.035156 37.453125 C 87.410156 37.375 87.410156 37.375 86.765625 37.285156 C 86.441406 37.25 86.121094 37.214844 85.785156 37.160156 C 85.785156 36.996094 85.785156 36.828125 85.785156 36.65625 C 87.859375 36.183594 89.046875 35.96875 90.859375 37.160156 Z M 90.859375 37.160156 "/>
</g>
</svg>
