<?xml version="1.0" encoding="UTF-8"?>
<svg version="1.1" xmlns="http://www.w3.org/2000/svg" width="394" height="110">
<path d="M0 0 C1.093125 0.00257812 2.18625 0.00515625 3.3125 0.0078125 C4.405625 0.00523438 5.49875 0.00265625 6.625 0 C9.3125 0.1328125 9.3125 0.1328125 10.3125 1.1328125 C10.54731693 3.31574024 10.72613323 5.50484424 10.875 7.6953125 C10.95878906 8.89285156 11.04257812 10.09039062 11.12890625 11.32421875 C11.18949219 12.25105469 11.25007813 13.17789063 11.3125 14.1328125 C12.16714844 13.20597656 13.02179687 12.27914062 13.90234375 11.32421875 C15.01821826 10.11457327 16.13410427 8.9049384 17.25 7.6953125 C17.81396484 7.08365234 18.37792969 6.47199219 18.95898438 5.84179688 C19.49716797 5.25849609 20.03535156 4.67519531 20.58984375 4.07421875 C21.08734131 3.53482666 21.58483887 2.99543457 22.09741211 2.43969727 C24.81781628 -0.48622669 26.67610885 -0.10600905 30.76171875 -0.28125 C32.79966358 -0.34371417 34.83724189 -0.39585876 36.87573242 -0.43701172 C38.2835464 -0.47357832 39.69101726 -0.52806152 41.09741211 -0.60107422 C52.78147991 -1.19842201 52.78147991 -1.19842201 56.54638672 2.07519531 C58.08825029 4.37702734 59.23735311 6.58478937 60.3125 9.1328125 C62.2043472 12.80064031 62.2043472 12.80064031 65.3125 15.1328125 C65.41691406 14.57980469 65.52132812 14.02679688 65.62890625 13.45703125 C66.45520316 10.64762177 67.7367314 8.45016053 69.25 5.9453125 C69.77464844 5.06488281 70.29929687 4.18445312 70.83984375 3.27734375 C72.3125 1.1328125 72.3125 1.1328125 74.3125 0.1328125 C76.5197923 0.06188408 78.72917452 0.04866225 80.9375 0.0703125 C82.12601562 0.07933594 83.31453125 0.08835938 84.5390625 0.09765625 C85.45429688 0.10925781 86.36953125 0.12085938 87.3125 0.1328125 C88.02734375 1.7890625 88.02734375 1.7890625 88.3125 4.1328125 C86.94140625 6.7265625 86.94140625 6.7265625 84.875 9.6328125 C84.1428125 10.70273438 83.410625 11.77265625 82.65625 12.875 C81.17560068 14.97341187 79.65038248 16.9513893 78.03125 18.953125 C72.05861288 26.72188125 71.34867943 33.02648472 71.34765625 42.51953125 C71.3125 46.1328125 71.3125 46.1328125 70.3125 47.1328125 C68.14769203 47.2317419 65.97956215 47.2625235 63.8125 47.2578125 C62.6265625 47.26039062 61.440625 47.26296875 60.21875 47.265625 C57.3125 47.1328125 57.3125 47.1328125 56.3125 46.1328125 C56.29343462 44.17331519 56.27727784 42.2137404 56.27685547 40.25415039 C56.16318374 29.95239154 53.80002694 24.2767293 47.3125 16.1328125 C45.99806876 14.08474523 44.70519708 12.02263124 43.4375 9.9453125 C41.44675582 6.41753378 41.44675582 6.41753378 38.3125 4.1328125 C38.3125 4.7928125 38.3125 5.4528125 38.3125 6.1328125 C37.6525 6.1328125 36.9925 6.1328125 36.3125 6.1328125 C36.07917969 6.69097656 35.84585938 7.24914062 35.60546875 7.82421875 C33.46049148 11.65407243 30.19117364 14.50061679 27.11328125 17.59765625 C25.08824907 19.94213442 25.08824907 19.94213442 25.2734375 22.54296875 C26.6213763 25.90268088 28.51360054 28.72077037 30.625 31.6328125 C31.01623047 32.18839844 31.40746094 32.74398437 31.81054688 33.31640625 C33.65615195 35.91800544 35.52173446 38.3632133 37.66796875 40.7265625 C39.3125 43.1328125 39.3125 43.1328125 39.0625 45.9453125 C38.815 46.6671875 38.5675 47.3890625 38.3125 48.1328125 C24.99271547 49.14088552 24.99271547 49.14088552 20.58935547 45.84179688 C16.74426719 41.82377161 13.79339044 37.09459338 11.3125 32.1328125 C10.9825 37.0828125 10.6525 42.0328125 10.3125 47.1328125 C5.6925 47.1328125 1.0725 47.1328125 -3.6875 47.1328125 C-3.71214347 40.60001911 -3.73033291 34.06725252 -3.74243164 27.53442383 C-3.74747317 25.31013518 -3.75430623 23.08584987 -3.76293945 20.86157227 C-3.77501298 17.67202941 -3.78072996 14.48253021 -3.78515625 11.29296875 C-3.79031754 10.29193619 -3.79547882 9.29090363 -3.80079651 8.25953674 C-3.80087204 7.33865768 -3.80094757 6.41777863 -3.80102539 5.46899414 C-3.803246 4.65402969 -3.80546661 3.83906525 -3.80775452 2.99940491 C-3.61332541 -0.01852666 -3.04375807 0.15041828 0 0 Z " fill="#4FAA1A" transform="translate(44.6875,58.8671875)"/>
<path d="M0 0 C15.53334338 1.41212213 28.73039527 8.36979791 38.828125 20.12890625 C43.22264706 26.15472817 45.12142859 32.85037821 47 40 C47.61875 39.18595703 47.61875 39.18595703 48.25 38.35546875 C53.30941631 32.08766507 57.16519292 29.6628855 65.10546875 28.57421875 C73.48629113 27.74314556 73.48629113 27.74314556 76 29 C76 29.99 76 30.98 76 32 C75.34 32 74.68 32 74 32 C74 32.99 74 33.98 74 35 C73.34 35 72.68 35 72 35 C71.88785156 35.72574219 71.77570313 36.45148437 71.66015625 37.19921875 C70.97038613 40.12563993 69.94489186 42.22287809 68.4375 44.8125 C67.98246094 45.60269531 67.52742188 46.39289062 67.05859375 47.20703125 C66.70925781 47.79871094 66.35992187 48.39039063 66 49 C65.34 49 64.68 49 64 49 C64 49.66 64 50.32 64 51 C62.82608476 51.7104474 61.63483071 52.39226744 60.4375 53.0625 C59.77621094 53.44535156 59.11492187 53.82820313 58.43359375 54.22265625 C55.07520788 55.29539909 52.4153174 54.65822481 49 54 C48.94465088 54.65597168 48.88930176 55.31194336 48.83227539 55.98779297 C48.57990601 58.95057273 48.32128185 61.91277374 48.0625 64.875 C47.97548828 65.90753906 47.88847656 66.94007812 47.79882812 68.00390625 C47.71181641 68.99003906 47.62480469 69.97617188 47.53515625 70.9921875 C47.41732788 72.35899658 47.41732788 72.35899658 47.29711914 73.75341797 C47 76 47 76 46 78 C44.35 77.67 42.7 77.34 41 77 C40.34 69.74 39.68 62.48 39 55 C37.35 55.99 35.7 56.98 34 58 C28.29219422 57.89429989 24.69407714 55.96972227 20 53 C20 52.34 20 51.68 20 51 C19.34 51 18.68 51 18 51 C18 50.34 18 49.68 18 49 C17.34 49 16.68 49 16 49 C14.59765625 47.12890625 14.59765625 47.12890625 13.0625 44.5625 C12.55847656 43.73878906 12.05445313 42.91507813 11.53515625 42.06640625 C7.97928848 34.96371872 6.30605828 27.44586693 4.8125 19.6875 C4.54663086 18.36782227 4.54663086 18.36782227 4.27539062 17.02148438 C3.52748922 13.21844907 3 9.90201283 3 6 C2.34 6 1.68 6 1 6 C0.67 4.02 0.34 2.04 0 0 Z " fill="#4DA916" transform="translate(316,1)"/>
<path d="M0 0 C2.67191864 1.81358208 4.70169131 3.70169131 7 6 C6.60723218 8.41345489 6.25776515 9.73045526 4.546875 11.51953125 C-0.31176784 15.01564164 -0.31176784 15.01564164 -3.75 14.9375 C-6 14 -6 14 -9 12 C-13.93012739 11.20616593 -17.80794774 11.28476865 -22.125 13.875 C-24.76174026 18.2695671 -24.91219098 21.99527649 -24 27 C-22.20353146 29.93423195 -21.0558929 31.47205355 -18 33 C-11.91483944 33.23333287 -11.91483944 33.23333287 -6 32 C-6 31.34 -6 30.68 -6 30 C-7.11375 30.20625 -8.2275 30.4125 -9.375 30.625 C-10.57125 30.74875 -11.7675 30.8725 -13 31 C-15 29 -15 29 -15.23046875 26.90625 C-15.20919922 25.71515625 -15.20919922 25.71515625 -15.1875 24.5 C-15.18105469 23.7059375 -15.17460937 22.911875 -15.16796875 22.09375 C-15 20 -15 20 -14 18 C-7.07 18 -0.14 18 7 18 C7.144375 21.17625 7.28875 24.3525 7.4375 27.625 C7.53309204 29.1092749 7.53309204 29.1092749 7.63061523 30.62353516 C7.7695116 36.95644127 7.7695116 36.95644127 5.58642578 39.91699219 C-1.11245902 45.89132967 -8.24290075 46.89737774 -17 47 C-23.38318972 46.32070785 -29.38135048 43.86635961 -33.734375 39.1015625 C-39.67695161 31.48940484 -39.73591467 24.55637761 -39 15 C-37.60741646 9.18638316 -34.78301126 4.8715323 -30.0546875 1.21875 C-20.52046476 -4.43653041 -10.06446771 -4.02283995 0 0 Z " fill="#B3FC4F" transform="translate(178,62)"/>
<path d="M0 0 C4.49625 -0.061875 8.9925 -0.12375 13.625 -0.1875 C15.03217285 -0.21481201 16.4393457 -0.24212402 17.88916016 -0.27026367 C19.01112793 -0.27775635 20.1330957 -0.28524902 21.2890625 -0.29296875 C23.00150146 -0.31653442 23.00150146 -0.31653442 24.74853516 -0.34057617 C29.25523039 0.13147968 32.63374289 1.61326366 35.82421875 4.8515625 C38.54432947 9.82186448 38.43118445 16.02373793 37.25 21.4375 C36 24 36 24 34.25 26 C32.69040609 27.9915293 32.69040609 27.9915293 33.5 30.625 C35.19271907 34.4336179 37.04160832 38.13717193 38.9765625 41.828125 C40 44 40 44 40 46 C35.03570036 46.96864383 29.87271631 47.94106224 24.9609375 46.33203125 C22.24591063 44.48776001 21.5271039 42.49567581 20.25 39.5 C19.82203125 38.5203125 19.3940625 37.540625 18.953125 36.53125 C18 34 18 34 18 32 C16.68 32 15.36 32 14 32 C14 36.62 14 41.24 14 46 C9 47 9 47 0 46 C0 30.82 0 15.64 0 0 Z M14 12 C14 14.31 14 16.62 14 19 C18.455 18.505 18.455 18.505 23 18 C23.042721 16.33388095 23.04063832 14.66617115 23 13 C22.01732141 11.79438816 22.01732141 11.79438816 20.15234375 11.90234375 C18.1015625 11.93489583 16.05078125 11.96744792 14 12 Z " fill="#B3FC4F" transform="translate(191,61)"/>
<path d="M0 0 C4.43355019 0.24745396 7.11364402 3.59122062 10.125 6.5 C13.75767922 10.16207271 13.75767922 10.16207271 18 13 C18 13.66 18 14.32 18 15 C18.5775 15.2475 19.155 15.495 19.75 15.75 C22 17 22 17 26 21 C26.33 14.73 26.66 8.46 27 2 C31.62 2 36.24 2 41 2 C41 17.51 41 33.02 41 49 C39.02 49 37.04 49 35 49 C35 48.34 35 47.68 35 47 C34.42765625 46.7421875 33.8553125 46.484375 33.265625 46.21875 C30.78871005 44.88634058 28.8658834 43.34943882 26.75 41.5 C26.04359375 40.8915625 25.3371875 40.283125 24.609375 39.65625 C23 38 23 38 23 36 C22.443125 35.7525 21.88625 35.505 21.3125 35.25 C19 34 19 34 14 30 C13.67 35.94 13.34 41.88 13 48 C8.29784261 48.94043148 4.73251153 49.15775038 0 49 C-1.58681989 47.41318011 -1.12728536 45.78751654 -1.12939453 43.58789062 C-1.13412277 42.18138245 -1.13412277 42.18138245 -1.13894653 40.74645996 C-1.1369223 39.72669067 -1.13489807 38.70692139 -1.1328125 37.65625 C-1.13376923 36.61682251 -1.13472595 35.57739502 -1.13571167 34.50646973 C-1.13639363 32.30395446 -1.13453827 30.10143721 -1.13037109 27.89892578 C-1.12502308 24.51460281 -1.13031559 21.13041256 -1.13671875 17.74609375 C-1.13605797 15.61197887 -1.13477681 13.47786408 -1.1328125 11.34375 C-1.13483673 10.32398071 -1.13686096 9.30421143 -1.13894653 8.25354004 C-1.13579437 7.31586792 -1.13264221 6.3781958 -1.12939453 5.41210938 C-1.12859894 4.58239624 -1.12780334 3.75268311 -1.12698364 2.89782715 C-1 1 -1 1 0 0 Z " fill="#B4FC54" transform="translate(312,59)"/>
<path d="M0 0 C10.56 0 21.12 0 32 0 C32.495 5.445 32.495 5.445 33 11 C32 12 32 12 30.23413086 12.11352539 C29.48526611 12.10828857 28.73640137 12.10305176 27.96484375 12.09765625 C27.15595703 12.09443359 26.34707031 12.09121094 25.51367188 12.08789062 C24.66353516 12.07951172 23.81339844 12.07113281 22.9375 12.0625 C22.08349609 12.05798828 21.22949219 12.05347656 20.34960938 12.04882812 C18.23304337 12.03700373 16.11651315 12.01906769 14 12 C14 14.31 14 16.62 14 19 C15.60681641 18.98259766 15.60681641 18.98259766 17.24609375 18.96484375 C18.64322743 18.95546701 20.04036299 18.94636669 21.4375 18.9375 C22.14455078 18.92912109 22.85160156 18.92074219 23.58007812 18.91210938 C25.38693559 18.90346412 27.19387603 18.94779989 29 19 C30 20 30 20 30.09765625 22.50390625 C30.08605469 23.51324219 30.07445312 24.52257812 30.0625 25.5625 C30.05347656 26.57441406 30.04445313 27.58632812 30.03515625 28.62890625 C30.02355469 29.41136719 30.01195312 30.19382812 30 31 C26.32612505 31.85298376 22.9552607 32.10789471 19.1875 32.0625 C18.21167969 32.05347656 17.23585938 32.04445312 16.23046875 32.03515625 C15.49441406 32.02355469 14.75835937 32.01195312 14 32 C14 32.66 14 33.32 14 34 C15.28777344 33.98839844 16.57554687 33.97679687 17.90234375 33.96484375 C19.58072772 33.9554673 21.25911326 33.94636695 22.9375 33.9375 C24.21270508 33.92493164 24.21270508 33.92493164 25.51367188 33.91210938 C26.32255859 33.90888672 27.13144531 33.90566406 27.96484375 33.90234375 C28.7137085 33.89710693 29.46257324 33.89187012 30.23413086 33.88647461 C32 34 32 34 33 35 C33.203125 37.21484375 33.203125 37.21484375 33.25 39.9375 C33.27578125 40.83339844 33.3015625 41.72929688 33.328125 42.65234375 C33.21984375 43.42707031 33.1115625 44.20179687 33 45 C29.38181297 47.41212469 27.69908089 47.24528253 23.3984375 47.23046875 C22.10421875 47.22853516 20.81 47.22660156 19.4765625 47.22460938 C18.46770996 47.21530396 18.46770996 47.21530396 17.43847656 47.20581055 C15.37552609 47.18750467 13.31302337 47.18530128 11.25 47.18554688 C1.14014333 47.14014333 1.14014333 47.14014333 0 46 C-0.09295815 44.55710213 -0.11746513 43.10970215 -0.11352539 41.66381836 C-0.11344986 40.7429393 -0.11337433 39.82206024 -0.11329651 38.87327576 C-0.10813522 37.87224319 -0.10297394 36.87121063 -0.09765625 35.83984375 C-0.0962413 34.82024063 -0.09482635 33.80063751 -0.09336853 32.75013733 C-0.08775097 29.47922893 -0.0751955 26.20838787 -0.0625 22.9375 C-0.05748726 20.72591244 -0.05292396 18.51432382 -0.04882812 16.30273438 C-0.0386248 10.86844248 -0.01905285 5.43429702 0 0 Z " fill="#B4FA55" transform="translate(273,61)"/>
<path d="M0 0 C10.56 0 21.12 0 32 0 C32 3.96 32 7.92 32 12 C26.06 12 20.12 12 14 12 C14 14.31 14 16.62 14 19 C19.28 19 24.56 19 30 19 C30 22.96 30 26.92 30 31 C26.45011229 31.88747193 23.85819222 32.10545467 20.25 32.0625 C19.26515625 32.05347656 18.2803125 32.04445312 17.265625 32.03515625 C16.51796875 32.02355469 15.7703125 32.01195312 15 32 C14.67 32.66 14.34 33.32 14 34 C19.94 34 25.88 34 32 34 C32.495 39.445 32.495 39.445 33 45 C28.90502046 47.04748977 27.21621181 47.24710225 22.7734375 47.23046875 C21.5771875 47.22853516 20.3809375 47.22660156 19.1484375 47.22460938 C17.28058594 47.20624023 17.28058594 47.20624023 15.375 47.1875 C14.12203125 47.18685547 12.8690625 47.18621094 11.578125 47.18554688 C2.2807303 47.14036515 2.2807303 47.14036515 0 46 C0 30.82 0 15.64 0 0 Z " fill="#B6FB59" transform="translate(235,61)"/>
<path d="M0 0 C1.81564453 0.11794922 1.81564453 0.11794922 3.66796875 0.23828125 C6.8125 0.6875 6.8125 0.6875 9.8125 2.6875 C9.0625 10.3125 9.0625 10.3125 6.8125 13.6875 C-0.1175 13.1925 -0.1175 13.1925 -7.1875 12.6875 C-4.40720102 15.46779898 -2.78118639 16.49157516 0.6875 18.0625 C6.28384546 20.77909335 10.34659896 23.84161392 12.8125 29.6875 C13.55165039 33.93050754 13.73326436 37.95074792 11.6796875 41.82421875 C8.49082801 45.80611921 5.82005711 47.4130677 0.8125 48.6875 C-2.80859375 48.953125 -2.80859375 48.953125 -6.625 48.9375 C-8.51025391 48.94523437 -8.51025391 48.94523437 -10.43359375 48.953125 C-14.36688665 48.67480667 -17.45782288 47.90024662 -21.1875 46.6875 C-22.95681551 41.37955346 -21.73186128 40.624343 -19.1875 34.6875 C-13.9075 35.0175 -8.6275 35.3475 -3.1875 35.6875 C-2.8575 34.6975 -2.5275 33.7075 -2.1875 32.6875 C-2.97125 32.48125 -3.755 32.275 -4.5625 32.0625 C-10.57258903 29.78281106 -17.15340938 26.92263182 -20.875 21.4375 C-22.59320002 16.52835709 -22.52017604 12.69564561 -21.1875 7.6875 C-19.06065898 4.16721141 -17.07799854 2.06061713 -13.1875 0.6875 C-8.66179229 -0.2677076 -4.60765585 -0.33088204 0 0 Z " fill="#4EA918" transform="translate(23.1875,58.3125)"/>
<path d="M0 0 C1.093125 0.00257812 2.18625 0.00515625 3.3125 0.0078125 C4.405625 0.00523438 5.49875 0.00265625 6.625 0 C9.3125 0.1328125 9.3125 0.1328125 10.3125 1.1328125 C10.4375 4.6328125 10.4375 4.6328125 10.3125 8.1328125 C9.9825 8.4628125 9.6525 8.7928125 9.3125 9.1328125 C9.24070036 10.65209288 9.22857993 12.17448732 9.25 13.6953125 C9.25902344 14.52160156 9.26804687 15.34789063 9.27734375 16.19921875 C9.28894531 16.83730469 9.30054688 17.47539063 9.3125 18.1328125 C12.88464698 16.94209684 13.55803071 15.80314822 15.75 12.8203125 C18.08610609 9.65846868 20.52908979 6.90440356 23.3125 4.1328125 C23.6425 3.4728125 23.9725 2.8128125 24.3125 2.1328125 C27.9425 2.1328125 31.5725 2.1328125 35.3125 2.1328125 C35.3125 5.1328125 35.3125 5.1328125 34.3125 7.1328125 C33.6525 7.1328125 32.9925 7.1328125 32.3125 7.1328125 C31.9825 8.1228125 31.6525 9.1128125 31.3125 10.1328125 C30.6525 10.4628125 29.9925 10.7928125 29.3125 11.1328125 C28.66036708 13.15744505 28.66036708 13.15744505 28.3125 15.1328125 C26.9925 15.4628125 25.6725 15.7928125 24.3125 16.1328125 C24.0959375 17.2465625 24.0959375 17.2465625 23.875 18.3828125 C23.22916302 21.54023771 22.62456757 24.43066048 21.3125 27.3828125 C20.00644082 30.97447524 19.69897835 34.33244205 19.3125 38.1328125 C18.9825 38.1328125 18.6525 38.1328125 18.3125 38.1328125 C18.3125 36.4828125 18.3125 34.8328125 18.3125 33.1328125 C16.8275 32.6378125 16.8275 32.6378125 15.3125 32.1328125 C14.9825 31.4728125 14.6525 30.8128125 14.3125 30.1328125 C13.6525 30.4628125 12.9925 30.7928125 12.3125 31.1328125 C11.6525 30.8028125 10.9925 30.4728125 10.3125 30.1328125 C10.3125 35.7428125 10.3125 41.3528125 10.3125 47.1328125 C5.6925 47.1328125 1.0725 47.1328125 -3.6875 47.1328125 C-3.71214347 40.60001911 -3.73033291 34.06725252 -3.74243164 27.53442383 C-3.74747317 25.31013518 -3.75430623 23.08584987 -3.76293945 20.86157227 C-3.77501298 17.67202941 -3.78072996 14.48253021 -3.78515625 11.29296875 C-3.79031754 10.29193619 -3.79547882 9.29090363 -3.80079651 8.25953674 C-3.80087204 7.33865768 -3.80094757 6.41777863 -3.80102539 5.46899414 C-3.803246 4.65402969 -3.80546661 3.83906525 -3.80775452 2.99940491 C-3.61332541 -0.01852666 -3.04375807 0.15041828 0 0 Z " fill="#51A71F" transform="translate(44.6875,58.8671875)"/>
<path d="M0 0 C0.66 0.33 1.32 0.66 2 1 C1.2884375 1.6496875 1.2884375 1.6496875 0.5625 2.3125 C-1.23686957 4.02309613 -1.23686957 4.02309613 -2 7 C-2.99 7.495 -2.99 7.495 -4 8 C-4.69093896 10.57951874 -4.69093896 10.57951874 -5.125 13.5625 C-5.29257813 14.57441406 -5.46015625 15.58632812 -5.6328125 16.62890625 C-5.75398437 17.41136719 -5.87515625 18.19382812 -6 19 C-4.35 18.01 -2.7 17.02 -1 16 C0.9375 17 0.9375 17 3 19 C3.66549451 21.69924572 3.81680763 24.20631637 4 27 C4.66 27 5.32 27 6 27 C6.45375 27.61875 6.9075 28.2375 7.375 28.875 C9.18331777 31.23972324 10.26693775 31.90387786 13 33 C15.45204585 33.35121415 15.45204585 33.35121415 18 33.3125 C18.845625 33.32925781 19.69125 33.34601563 20.5625 33.36328125 C23.51500566 32.92324435 24.85242709 32.04690543 27 30 C27.495 28.515 27.495 28.515 28 27 C24.7 26.67 21.4 26.34 18 26 C18 23.36 18 20.72 18 18 C23.94 18 29.88 18 36 18 C36 23.61 36 29.22 36 35 C35.34 35 34.68 35 34 35 C34 35.99 34 36.98 34 38 C31.525 38.495 31.525 38.495 29 39 C29 39.66 29 40.32 29 41 C20.98066955 43.61855688 9.74559722 45.43890619 1.9375 41.5 C-2.64709479 37.5982172 -6.99497982 33.1295187 -8 27 C-8.63602631 18.62739135 -8.68909652 11.20790174 -4 4 C-1.75 1.4375 -1.75 1.4375 0 0 Z " fill="#B3FC4F" transform="translate(147,64)"/>
<path d="M0 0 C1.32 0 2.64 0 4 0 C4 0.66 4 1.32 4 2 C5.32 2 6.64 2 8 2 C9 5 9 5 10 8 C14.95 8.33 19.9 8.66 25 9 C25 11.97 25 14.94 25 18 C20.38 18.33 15.76 18.66 11 19 C10.67 19.99 10.34 20.98 10 22 C11.13179688 22.06058594 12.26359375 22.12117188 13.4296875 22.18359375 C14.91147145 22.26799917 16.3932416 22.35264717 17.875 22.4375 C18.62136719 22.47681641 19.36773437 22.51613281 20.13671875 22.55664062 C25.7734375 22.88671875 25.7734375 22.88671875 28 24 C28 26.97 28 29.94 28 33 C23.72918086 33.02897435 19.45838691 33.04678996 15.1875 33.0625 C13.36508789 33.07506836 13.36508789 33.07506836 11.50585938 33.08789062 C9.76079102 33.09272461 9.76079102 33.09272461 7.98046875 33.09765625 C6.90692139 33.10289307 5.83337402 33.10812988 4.72729492 33.11352539 C2 33 2 33 -1 32 C-1.02949232 28.54168516 -1.0469616 25.08340346 -1.0625 21.625 C-1.07087891 20.65949219 -1.07925781 19.69398437 -1.08789062 18.69921875 C-1.10902305 12.40175711 -0.76107198 6.25160137 0 0 Z " fill="#B3FD4F" transform="translate(276,73)"/>
<path d="M0 0 C0 0.99 0 1.98 0 3 C-0.66 3 -1.32 3 -2 3 C-2 3.99 -2 4.98 -2 6 C-2.66 6 -3.32 6 -4 6 C-4.16822266 7.08861328 -4.16822266 7.08861328 -4.33984375 8.19921875 C-5.02961387 11.12563993 -6.05510814 13.22287809 -7.5625 15.8125 C-8.01753906 16.60269531 -8.47257812 17.39289062 -8.94140625 18.20703125 C-9.29074219 18.79871094 -9.64007813 19.39039062 -10 20 C-10.66 20 -11.32 20 -12 20 C-12 20.66 -12 21.32 -12 22 C-13.17391524 22.7104474 -14.36516929 23.39226744 -15.5625 24.0625 C-16.22378906 24.44535156 -16.88507813 24.82820313 -17.56640625 25.22265625 C-20.92479212 26.29539909 -23.5846826 25.65822481 -27 25 C-27.05534912 25.65597168 -27.11069824 26.31194336 -27.16772461 26.98779297 C-27.42009399 29.95057273 -27.67871815 32.91277374 -27.9375 35.875 C-28.02451172 36.90753906 -28.11152344 37.94007812 -28.20117188 39.00390625 C-28.28818359 39.99003906 -28.37519531 40.97617188 -28.46484375 41.9921875 C-28.58267212 43.35899658 -28.58267212 43.35899658 -28.70288086 44.75341797 C-29 47 -29 47 -30 49 C-31.65 48.67 -33.3 48.34 -35 48 C-35.86809439 42.79826905 -36.12515348 37.83021184 -36.0625 32.5625 C-36.05798828 31.83095703 -36.05347656 31.09941406 -36.04882812 30.34570312 C-36.03718148 28.56376581 -36.01925191 26.78187137 -36 25 C-35.67 25 -35.34 25 -35 25 C-34.02700844 29.85729645 -33.87961195 34.4500625 -33.9375 39.375 C-33.94201172 40.11105469 -33.94652344 40.84710938 -33.95117188 41.60546875 C-33.96284858 43.40368158 -33.98077989 45.20185197 -34 47 C-32.515 46.505 -32.515 46.505 -31 46 C-31 39.07 -31 32.14 -31 25 C-30.01 25 -29.02 25 -28 25 C-28 24.01 -28 23.02 -28 22 C-27.34 22 -26.68 22 -26 22 C-26.1135629 20.35333797 -26.24117381 18.70763918 -26.375 17.0625 C-26.44460938 16.14597656 -26.51421875 15.22945312 -26.5859375 14.28515625 C-26.79089844 13.15400391 -26.79089844 13.15400391 -27 12 C-27.66 11.67 -28.32 11.34 -29 11 C-23.76886123 4.11778306 -19.72242693 0.85561665 -11.15234375 -0.42578125 C-3.71670387 -1.23890129 -3.71670387 -1.23890129 0 0 Z " fill="#4EA919" transform="translate(392,30)"/>
<path d="M0 0 C1.25159912 0.00523682 2.50319824 0.01047363 3.79272461 0.01586914 C4.78942421 0.01799156 4.78942421 0.01799156 5.80625916 0.02015686 C7.93590735 0.02577021 10.06545175 0.03832485 12.19506836 0.05102539 C13.63582205 0.05603868 15.07657739 0.06060188 16.51733398 0.06469727 C20.05577938 0.07574394 23.59416375 0.09301747 27.13256836 0.11352539 C27.13256836 1.10352539 27.13256836 2.09352539 27.13256836 3.11352539 C26.50608398 3.10192383 25.87959961 3.09032227 25.23413086 3.07836914 C24.00823242 3.06483398 24.00823242 3.06483398 22.75756836 3.05102539 C21.5394043 3.03362305 21.5394043 3.03362305 20.29663086 3.01586914 C18.08319694 2.96886205 18.08319694 2.96886205 16.13256836 4.11352539 C16.62756836 7.08352539 16.62756836 7.08352539 17.13256836 10.11352539 C16.20444336 8.90696289 16.20444336 8.90696289 15.25756836 7.67602539 C13.39092795 5.0747802 13.39092795 5.0747802 11.13256836 4.11352539 C11.13256836 4.77352539 11.13256836 5.43352539 11.13256836 6.11352539 C10.47256836 6.11352539 9.81256836 6.11352539 9.13256836 6.11352539 C8.89924805 6.67168945 8.66592773 7.22985352 8.42553711 7.80493164 C6.28055984 11.63478532 3.011242 14.48132968 -0.06665039 17.57836914 C-2.09168257 19.92284732 -2.09168257 19.92284732 -1.90649414 22.52368164 C-0.55855534 25.88339377 1.3336689 28.70148326 3.44506836 31.61352539 C4.03191406 32.4469043 4.03191406 32.4469043 4.63061523 33.29711914 C6.47622031 35.89871833 8.34180282 38.34392619 10.48803711 40.70727539 C12.13256836 43.11352539 12.13256836 43.11352539 11.88256836 45.92602539 C11.63506836 46.64790039 11.38756836 47.36977539 11.13256836 48.11352539 C-2.14829815 49.118653 -2.14829815 49.118653 -6.57446289 45.85473633 C-10.96270051 41.32192498 -14.19887736 35.80175952 -16.86743164 30.11352539 C-15.17993164 29.30102539 -15.17993164 29.30102539 -12.86743164 29.11352539 C-10.11743164 31.55102539 -10.11743164 31.55102539 -7.86743164 34.11352539 C-7.92930664 32.99977539 -7.92930664 32.99977539 -7.99243164 31.86352539 C-7.86054056 28.9619216 -7.24034481 27.61707294 -5.86743164 25.11352539 C-5.52400715 23.7827555 -5.1912329 22.4492056 -4.86743164 21.11352539 C-4.05493164 18.42602539 -4.05493164 18.42602539 -2.86743164 16.11352539 C-0.74243164 15.30102539 -0.74243164 15.30102539 1.13256836 15.11352539 C1.23569336 14.35040039 1.33881836 13.58727539 1.44506836 12.80102539 C2.17968029 9.92936055 2.80417486 8.88310445 5.13256836 7.11352539 C5.79256836 7.11352539 6.45256836 7.11352539 7.13256836 7.11352539 C7.46256836 5.79352539 7.79256836 4.47352539 8.13256836 3.11352539 C2.68756836 2.61852539 2.68756836 2.61852539 -2.86743164 2.11352539 C-3.52743164 3.76352539 -4.18743164 5.41352539 -4.86743164 7.11352539 C-6.48967704 8.82345973 -8.16156589 10.48700223 -9.86743164 12.11352539 C-10.75289513 13.20931891 -11.62803463 14.31353861 -12.49243164 15.42602539 C-13.66805664 16.75633789 -13.66805664 16.75633789 -14.86743164 18.11352539 C-15.85743164 18.11352539 -16.84743164 18.11352539 -17.86743164 18.11352539 C-19.34575424 15.1568802 -18.92775947 12.37122802 -18.86743164 9.11352539 C-18.20743164 8.78352539 -17.54743164 8.45352539 -16.86743164 8.11352539 C-16.53743164 10.09352539 -16.20743164 12.07352539 -15.86743164 14.11352539 C-15.0127832 13.18668945 -14.15813477 12.25985352 -13.27758789 11.30493164 C-12.16171338 10.09528616 -11.04582737 8.88565129 -9.92993164 7.67602539 C-9.3659668 7.06436523 -8.80200195 6.45270508 -8.22094727 5.82250977 C-7.68276367 5.23920898 -7.14458008 4.6559082 -6.59008789 4.05493164 C-6.09259033 3.51553955 -5.59509277 2.97614746 -5.08251953 2.42041016 C-2.94035704 0.1164126 -2.94035704 0.1164126 0 0 Z " fill="#50A91B" transform="translate(71.867431640625,58.886474609375)"/>
<path d="M0 0 C3.63 0 7.26 0 11 0 C11 3 11 3 10 5 C9.34 5 8.68 5 8 5 C7.67 5.99 7.34 6.98 7 8 C6.01 8.495 6.01 8.495 5 9 C4.34786708 11.02463255 4.34786708 11.02463255 4 13 C2.68 13.33 1.36 13.66 0 14 C-0.2165625 15.11375 -0.2165625 15.11375 -0.4375 16.25 C-1.08333698 19.40742521 -1.68793243 22.29784798 -3 25.25 C-4.30605918 28.84166274 -4.61352165 32.19962955 -5 36 C-5.33 36 -5.66 36 -6 36 C-6 34.35 -6 32.7 -6 31 C-6.99 30.67 -7.98 30.34 -9 30 C-9.33 29.34 -9.66 28.68 -10 28 C-10.66 28.33 -11.32 28.66 -12 29 C-12.99 28.67 -13.98 28.34 -15 28 C-15 27.01 -15 26.02 -15 25 C-15.66 25 -16.32 25 -17 25 C-17 24.01 -17 23.02 -17 22 C-16.34 22 -15.68 22 -15 22 C-15.103125 21.278125 -15.20625 20.55625 -15.3125 19.8125 C-14.86905242 15.82147176 -12.92765267 14.66741688 -10 12 C-8.32932867 10.00334402 -6.66247014 8.00348966 -5 6 C-3 4 -3 4 -1 2 C-0.67 1.34 -0.34 0.68 0 0 Z " fill="#4AAA13" transform="translate(69,61)"/>
<path d="M0 0 C1.18851563 0.00902344 2.37703125 0.01804688 3.6015625 0.02734375 C4.51679688 0.03894531 5.43203125 0.05054688 6.375 0.0625 C7.08984375 1.71875 7.08984375 1.71875 7.375 4.0625 C6.00390625 6.65625 6.00390625 6.65625 3.9375 9.5625 C3.2053125 10.60921875 2.473125 11.6559375 1.71875 12.734375 C1.14060547 13.54938477 1.14060547 13.54938477 0.55078125 14.38085938 C-1.38486824 17.1492883 -3.21356935 19.98551183 -5.0625 22.8125 C-6.22144713 24.58153867 -7.39952043 26.33888285 -8.625 28.0625 C-8.955 28.0625 -9.285 28.0625 -9.625 28.0625 C-9.295 25.7525 -8.965 23.4425 -8.625 21.0625 C-9.285 21.0625 -9.945 21.0625 -10.625 21.0625 C-10.955 19.7425 -11.285 18.4225 -11.625 17.0625 C-10.965 17.0625 -10.305 17.0625 -9.625 17.0625 C-9.4013932 14.1370356 -9.4013932 14.1370356 -10.625 12.0625 C-11.615 12.5575 -11.615 12.5575 -12.625 13.0625 C-12.955 14.0525 -13.285 15.0425 -13.625 16.0625 C-15.605 16.3925 -17.585 16.7225 -19.625 17.0625 C-19.625 15.4125 -19.625 13.7625 -19.625 12.0625 C-18.305 13.0525 -16.985 14.0425 -15.625 15.0625 C-15.52058594 14.50949219 -15.41617188 13.95648438 -15.30859375 13.38671875 C-14.48229684 10.57730927 -13.2007686 8.37984803 -11.6875 5.875 C-11.16285156 4.99457031 -10.63820313 4.11414062 -10.09765625 3.20703125 C-7.37727546 -0.75447818 -4.53517841 -0.04446253 0 0 Z " fill="#4EA618" transform="translate(125.625,58.9375)"/>
<path d="M0 0 C0.66 0.99 1.32 1.98 2 3 C1.00419922 3.02126953 1.00419922 3.02126953 -0.01171875 3.04296875 C-4.40942236 3.28050895 -7.33015928 3.58469875 -11.125 5.9375 C-13.78870139 10.28821228 -13.90714749 14.02294754 -13 19 C-11.20353146 21.93423195 -10.0558929 23.47205355 -7 25 C-0.91483944 25.23333287 -0.91483944 25.23333287 5 24 C5 23.34 5 22.68 5 22 C3.88625 22.20625 2.7725 22.4125 1.625 22.625 C0.42875 22.74875 -0.7675 22.8725 -2 23 C-4 21 -4 21 -4.23046875 18.90625 C-4.20919922 17.71515625 -4.20919922 17.71515625 -4.1875 16.5 C-4.18105469 15.7059375 -4.17460937 14.911875 -4.16796875 14.09375 C-4 12 -4 12 -3 10 C3.93 10 10.86 10 18 10 C18.144375 13.17625 18.28875 16.3525 18.4375 19.625 C18.53309204 21.1092749 18.53309204 21.1092749 18.63061523 22.62353516 C18.7695116 28.95644127 18.7695116 28.95644127 16.58642578 31.91699219 C9.83861356 37.93496513 2.78695454 38.73911876 -6 39 C-9.75 38.5625 -9.75 38.5625 -12 38 C-12 37.67 -12 37.34 -12 37 C-5.07 36.34 1.86 35.68 9 35 C9 34.34 9 33.68 9 33 C11.475 32.505 11.475 32.505 14 32 C14 31.01 14 30.02 14 29 C14.66 29 15.32 29 16 29 C16 23.39 16 17.78 16 12 C10.06 12 4.12 12 -2 12 C-2 14.64 -2 17.28 -2 20 C-0.72125 19.979375 0.5575 19.95875 1.875 19.9375 C5.75 19.875 5.75 19.875 8 21 C7.43411074 24.28215769 6.65117619 25.95083762 4 28 C-1.81956432 28.84963812 -7.58551754 28.34139782 -13 26 C-13.33 24.35 -13.66 22.7 -14 21 C-14.66 21 -15.32 21 -16 21 C-16 16.05 -16 11.1 -16 6 C-15.34 6 -14.68 6 -14 6 C-14 5.34 -14 4.68 -14 4 C-13.34 4 -12.68 4 -12 4 C-12 3.01 -12 2.02 -12 1 C-7.97542684 -0.34152439 -4.1944205 -0.27060777 0 0 Z " fill="#C4F289" transform="translate(167,70)"/>
<path d="M0 0 C10.56 0 21.12 0 32 0 C32.495 5.445 32.495 5.445 33 11 C32 12 32 12 30.23413086 12.11352539 C29.48526611 12.10828857 28.73640137 12.10305176 27.96484375 12.09765625 C27.15595703 12.09443359 26.34707031 12.09121094 25.51367188 12.08789062 C24.66353516 12.07951172 23.81339844 12.07113281 22.9375 12.0625 C22.08349609 12.05798828 21.22949219 12.05347656 20.34960938 12.04882812 C18.23304337 12.03700373 16.11651315 12.01906769 14 12 C14 14.31 14 16.62 14 19 C15.60681641 18.98259766 15.60681641 18.98259766 17.24609375 18.96484375 C18.64322743 18.95546701 20.04036299 18.94636669 21.4375 18.9375 C22.14455078 18.92912109 22.85160156 18.92074219 23.58007812 18.91210938 C25.38693559 18.90346412 27.19387603 18.94779989 29 19 C30 20 30 20 30.09765625 22.50390625 C30.08605469 23.51324219 30.07445312 24.52257812 30.0625 25.5625 C30.05347656 26.57441406 30.04445313 27.58632812 30.03515625 28.62890625 C30.02355469 29.41136719 30.01195312 30.19382812 30 31 C26.32612505 31.85298376 22.9552607 32.10789471 19.1875 32.0625 C18.21167969 32.05347656 17.23585938 32.04445312 16.23046875 32.03515625 C15.49441406 32.02355469 14.75835937 32.01195312 14 32 C13.67 32.66 13.34 33.32 13 34 C13.33 32.68 13.66 31.36 14 30 C18.62 30 23.24 30 28 30 C28 27.03 28 24.06 28 21 C26.39318359 21.01740234 26.39318359 21.01740234 24.75390625 21.03515625 C23.35677257 21.04453299 21.95963701 21.05363331 20.5625 21.0625 C19.85544922 21.07087891 19.14839844 21.07925781 18.41992188 21.08789062 C16.61306441 21.09653588 14.80612397 21.05220011 13 21 C11.10114904 19.10114904 11.87632494 16.42752097 11.8671875 13.91015625 C12 12 12 12 13 10 C15.71446979 9.68758545 18.33909361 9.48663408 21.0625 9.375 C21.82111328 9.33632812 22.57972656 9.29765625 23.36132812 9.2578125 C25.24047195 9.16326438 27.12020336 9.08053244 29 9 C29.33 6.36 29.66 3.72 30 1 C20.76 1.33 11.52 1.66 2 2 C1.67 16.52 1.34 31.04 1 46 C0.67 46 0.34 46 0 46 C0 30.82 0 15.64 0 0 Z " fill="#CCF48F" transform="translate(273,61)"/>
<path d="M0 0 C5.94 0 11.88 0 18 0 C18 5.61 18 11.22 18 17 C17.34 17 16.68 17 16 17 C16 17.99 16 18.98 16 20 C14.68 19.67 13.36 19.34 12 19 C11.4375 17.0625 11.4375 17.0625 11 15 C11.33 14.67 11.66 14.34 12 14 C11.01 13.34 10.02 12.68 9 12 C9.33 11.01 9.66 10.02 10 9 C6.7 8.67 3.4 8.34 0 8 C0 5.36 0 2.72 0 0 Z " fill="#B3FD4E" transform="translate(165,82)"/>
<path d="M0 0 C1.25159912 0.00523682 2.50319824 0.01047363 3.79272461 0.01586914 C4.78942421 0.01799156 4.78942421 0.01799156 5.80625916 0.02015686 C7.93590735 0.02577021 10.06545175 0.03832485 12.19506836 0.05102539 C13.63582205 0.05603868 15.07657739 0.06060188 16.51733398 0.06469727 C20.05577938 0.07574394 23.59416375 0.09301747 27.13256836 0.11352539 C27.13256836 1.10352539 27.13256836 2.09352539 27.13256836 3.11352539 C26.50608398 3.10192383 25.87959961 3.09032227 25.23413086 3.07836914 C24.00823242 3.06483398 24.00823242 3.06483398 22.75756836 3.05102539 C21.5394043 3.03362305 21.5394043 3.03362305 20.29663086 3.01586914 C18.08319694 2.96886205 18.08319694 2.96886205 16.13256836 4.11352539 C16.62756836 7.08352539 16.62756836 7.08352539 17.13256836 10.11352539 C16.20444336 8.90696289 16.20444336 8.90696289 15.25756836 7.67602539 C13.39092795 5.0747802 13.39092795 5.0747802 11.13256836 4.11352539 C11.13256836 4.77352539 11.13256836 5.43352539 11.13256836 6.11352539 C10.47256836 6.11352539 9.81256836 6.11352539 9.13256836 6.11352539 C8.89538086 6.67040039 8.65819336 7.22727539 8.41381836 7.80102539 C6.3039267 11.60912252 3.19192827 14.51784341 0.22631836 17.67602539 C-1.59315389 19.79421696 -2.78201657 21.56515957 -3.86743164 24.11352539 C-3.53743164 21.47352539 -3.20743164 18.83352539 -2.86743164 16.11352539 C-1.54743164 15.78352539 -0.22743164 15.45352539 1.13256836 15.11352539 C1.23569336 14.35040039 1.33881836 13.58727539 1.44506836 12.80102539 C2.17968029 9.92936055 2.80417486 8.88310445 5.13256836 7.11352539 C5.79256836 7.11352539 6.45256836 7.11352539 7.13256836 7.11352539 C7.46256836 5.79352539 7.79256836 4.47352539 8.13256836 3.11352539 C2.68756836 2.61852539 2.68756836 2.61852539 -2.86743164 2.11352539 C-3.52743164 3.76352539 -4.18743164 5.41352539 -4.86743164 7.11352539 C-6.48967704 8.82345973 -8.16156589 10.48700223 -9.86743164 12.11352539 C-10.75289513 13.20931891 -11.62803463 14.31353861 -12.49243164 15.42602539 C-13.66805664 16.75633789 -13.66805664 16.75633789 -14.86743164 18.11352539 C-15.85743164 18.11352539 -16.84743164 18.11352539 -17.86743164 18.11352539 C-19.34575424 15.1568802 -18.92775947 12.37122802 -18.86743164 9.11352539 C-18.20743164 8.78352539 -17.54743164 8.45352539 -16.86743164 8.11352539 C-16.53743164 10.09352539 -16.20743164 12.07352539 -15.86743164 14.11352539 C-15.0127832 13.18668945 -14.15813477 12.25985352 -13.27758789 11.30493164 C-12.16171338 10.09528616 -11.04582737 8.88565129 -9.92993164 7.67602539 C-9.3659668 7.06436523 -8.80200195 6.45270508 -8.22094727 5.82250977 C-7.68276367 5.23920898 -7.14458008 4.6559082 -6.59008789 4.05493164 C-6.09259033 3.51553955 -5.59509277 2.97614746 -5.08251953 2.42041016 C-2.94035704 0.1164126 -2.94035704 0.1164126 0 0 Z " fill="#62A43A" transform="translate(71.867431640625,58.886474609375)"/>
<path d="M0 0 C2.60452271 0.14086602 5.20850197 0.28748464 7.8125 0.4375 C8.91948242 0.49647461 8.91948242 0.49647461 10.04882812 0.55664062 C13.23071342 0.74381035 15.96162378 0.98720793 19 2 C18.2575 2.5775 17.515 3.155 16.75 3.75 C12.24910177 7.34772177 12.24910177 7.34772177 9 12 C17.415 11.505 17.415 11.505 26 11 C22.2357068 14.7642932 17.81385465 14.16173942 12.6875 14.1875 C11.41261719 14.20167969 10.13773438 14.21585938 8.82421875 14.23046875 C4.83424616 13.99001075 1.77461431 13.2354171 -2 12 C-3.60822915 7.17531255 -2.05080169 4.47591422 0 0 Z " fill="#51A81E" transform="translate(4,93)"/>
<path d="M0 0 C4.62 0 9.24 0 14 0 C14 15.51 14 31.02 14 47 C12.02 47 10.04 47 8 47 C8 46.34 8 45.68 8 45 C7.11054688 44.61714844 7.11054688 44.61714844 6.203125 44.2265625 C3.78775462 42.88183502 2.48788294 41.50785633 0.75 39.375 C0.22921875 38.74335937 -0.2915625 38.11171875 -0.828125 37.4609375 C-1.21484375 36.97882813 -1.6015625 36.49671875 -2 36 C-0.68 36 0.64 36 2 36 C2.33 37.32 2.66 38.64 3 40 C5.97 40 8.94 40 12 40 C12 27.13 12 14.26 12 1 C8.7 1 5.4 1 2 1 C2.01160156 2.27617188 2.02320313 3.55234375 2.03515625 4.8671875 C2.04453417 6.53645687 2.05363437 8.20572783 2.0625 9.875 C2.07087891 10.71675781 2.07925781 11.55851562 2.08789062 12.42578125 C2.09111328 13.23144531 2.09433594 14.03710938 2.09765625 14.8671875 C2.10289307 15.61081543 2.10812988 16.35444336 2.11352539 17.12060547 C2 19 2 19 1 21 C0.01 21 -0.98 21 -2 21 C-1.67 20.34 -1.34 19.68 -1 19 C-0.84932786 17.5534758 -0.75138964 16.1012066 -0.68359375 14.6484375 C-0.64169922 13.79765625 -0.59980469 12.946875 -0.55664062 12.0703125 C-0.51732422 11.18085937 -0.47800781 10.29140625 -0.4375 9.375 C-0.39431641 8.4778125 -0.35113281 7.580625 -0.30664062 6.65625 C-0.20043285 4.43768761 -0.09970041 2.21886435 0 0 Z " fill="#CFF699" transform="translate(339,61)"/>
<path d="M0 0 C4.49625 -0.061875 8.9925 -0.12375 13.625 -0.1875 C15.03217285 -0.21481201 16.4393457 -0.24212402 17.88916016 -0.27026367 C19.01112793 -0.27775635 20.1330957 -0.28524902 21.2890625 -0.29296875 C23.00150146 -0.31653442 23.00150146 -0.31653442 24.74853516 -0.34057617 C29.25523039 0.13147968 32.63374289 1.61326366 35.82421875 4.8515625 C38.54432947 9.82186448 38.43118445 16.02373793 37.25 21.4375 C36 24 36 24 34.25 25.875 C32.68454344 28.53627615 33.07906217 29.32650656 33.8125 32.25 C34.204375 33.4875 34.59625 34.725 35 36 C33.35 35.34 31.7 34.68 30 34 C29.80377759 29.78121808 30.19769832 26.82989106 32 23 C32.66 23 33.32 23 34 23 C34.66 18.05 35.32 13.1 36 8 C35.34 8 34.68 8 34 8 C34 7.34 34 6.68 34 6 C30.7 5.01 27.4 4.02 24 3 C24 2.34 24 1.68 24 1 C16.74 1 9.48 1 2 1 C1.67 15.85 1.34 30.7 1 46 C0.67 46 0.34 46 0 46 C0 30.82 0 15.64 0 0 Z " fill="#CCF58E" transform="translate(191,61)"/>
<path d="M0 0 C0.33 0 0.66 0 1 0 C1 2.31 1 4.62 1 7 C6.28 7 11.56 7 17 7 C17 10.96 17 14.92 17 19 C13.45011229 19.88747193 10.85819222 20.10545467 7.25 20.0625 C6.26515625 20.05347656 5.2803125 20.04445313 4.265625 20.03515625 C3.51796875 20.02355469 2.7703125 20.01195313 2 20 C1.67 20.66 1.34 21.32 1 22 C6.94 22 12.88 22 19 22 C19.33 25.63 19.66 29.26 20 33 C15.87485791 35.06257104 14.18199862 35.23756602 9.703125 35.1953125 C7.89521484 35.18564453 7.89521484 35.18564453 6.05078125 35.17578125 C4.79652344 35.15902344 3.54226562 35.14226562 2.25 35.125 C0.98027344 35.11597656 -0.28945312 35.10695312 -1.59765625 35.09765625 C-4.73196093 35.07409005 -7.86588541 35.04118832 -11 35 C-11 34.67 -11 34.34 -11 34 C-1.43 33.67 8.14 33.34 18 33 C18 30.03 18 27.06 18 24 C12.06 23.67 6.12 23.34 0 23 C0.33 21.35 0.66 19.7 1 18 C5.62 17.67 10.24 17.34 15 17 C15 14.36 15 11.72 15 9 C10.05 9 5.1 9 0 9 C0 6.03 0 3.06 0 0 Z " fill="#DEF7B3" transform="translate(248,73)"/>
<path d="M0 0 C0.66 0.99 1.32 1.98 2 3 C1.00419922 3.02126953 1.00419922 3.02126953 -0.01171875 3.04296875 C-4.40942236 3.28050895 -7.33015928 3.58469875 -11.125 5.9375 C-13.78870139 10.28821228 -13.90714749 14.02294754 -13 19 C-11.20353146 21.93423195 -10.0558929 23.47205355 -7 25 C-0.91483944 25.23333287 -0.91483944 25.23333287 5 24 C5 23.01 5 22.02 5 21 C3.68 20.67 2.36 20.34 1 20 C3.31 20.33 5.62 20.66 8 21 C7.43411074 24.28215769 6.65117619 25.95083762 4 28 C-1.81956432 28.84963812 -7.58551754 28.34139782 -13 26 C-13.33 24.35 -13.66 22.7 -14 21 C-14.66 21 -15.32 21 -16 21 C-16 16.05 -16 11.1 -16 6 C-15.34 6 -14.68 6 -14 6 C-14 5.34 -14 4.68 -14 4 C-13.34 4 -12.68 4 -12 4 C-12 3.01 -12 2.02 -12 1 C-7.97542684 -0.34152439 -4.1944205 -0.27060777 0 0 Z " fill="#C6F482" transform="translate(167,70)"/>
<path d="M0 0 C0.66 0.33 1.32 0.66 2 1 C2 1.99 2 2.98 2 4 C1.01 4.33 0.02 4.66 -1 5 C-1.73323796 7.01508358 -1.73323796 7.01508358 -2 9 C-9.75 10.125 -9.75 10.125 -12 9 C-12.05534912 9.65597168 -12.11069824 10.31194336 -12.16772461 10.98779297 C-12.42009399 13.95057273 -12.67871815 16.91277374 -12.9375 19.875 C-13.02451172 20.90753906 -13.11152344 21.94007812 -13.20117188 23.00390625 C-13.28818359 23.99003906 -13.37519531 24.97617188 -13.46484375 25.9921875 C-13.543396 26.90339355 -13.62194824 27.81459961 -13.70288086 28.75341797 C-14 31 -14 31 -15 33 C-16.65 32.67 -18.3 32.34 -20 32 C-20.86809439 26.79826905 -21.12515348 21.83021184 -21.0625 16.5625 C-21.05798828 15.83095703 -21.05347656 15.09941406 -21.04882812 14.34570312 C-21.03718148 12.56376581 -21.01925191 10.78187137 -21 9 C-20.67 9 -20.34 9 -20 9 C-19.02700844 13.85729645 -18.87961195 18.4500625 -18.9375 23.375 C-18.94201172 24.11105469 -18.94652344 24.84710938 -18.95117188 25.60546875 C-18.96284858 27.40368158 -18.98077989 29.20185197 -19 31 C-18.01 30.67 -17.02 30.34 -16 30 C-16 23.07 -16 16.14 -16 9 C-15.01 9 -14.02 9 -13 9 C-13 8.01 -13 7.02 -13 6 C-12.34 6 -11.68 6 -11 6 C-10.67 5.01 -10.34 4.02 -10 3 C-9.67 4.32 -9.34 5.64 -9 7 C-7.35 7 -5.7 7 -4 7 C-3.896875 6.21625 -3.79375 5.4325 -3.6875 4.625 C-3 2 -3 2 0 0 Z " fill="#78B349" transform="translate(377,46)"/>
<path d="M0 0 C7 0 7 0 9.375 1.5 C11.28155015 4.43315407 11.58923168 6.56247489 11.82421875 10 C11.97900826 12.35991793 11.97900826 12.35991793 13 16 C17.29 16 21.58 16 26 16 C26 15.01 26 14.02 26 13 C25.34 13 24.68 13 24 13 C23.67 11.02 23.34 9.04 23 7 C25 8 25 8 25.8515625 10.06640625 C26.10679687 10.89011719 26.36203125 11.71382812 26.625 12.5625 C27.01558594 13.80193359 27.01558594 13.80193359 27.4140625 15.06640625 C27.60742188 15.70449219 27.80078125 16.34257813 28 17 C23.03570036 17.96864383 17.87271631 18.94106224 12.9609375 17.33203125 C10.24591063 15.48776001 9.5271039 13.49567581 8.25 10.5 C7.82203125 9.5203125 7.3940625 8.540625 6.953125 7.53125 C6 5 6 5 6 3 C4.68 3 3.36 3 2 3 C2 7.62 2 12.24 2 17 C-1.66581454 17.73316291 -4.36699832 18.10380005 -8 18 C-5 16 -5 16 0 16 C0 10.72 0 5.44 0 0 Z " fill="#D2F595" transform="translate(203,90)"/>
<path d="M0 0 C0.99 0.33 1.98 0.66 3 1 C3 1.66 3 2.32 3 3 C5.47266765 2.65555119 5.47266765 2.65555119 8 2 C8.33 1.34 8.66 0.68 9 0 C9.99 0.33 10.98 0.66 12 1 C11.56429687 1.61746094 11.12859375 2.23492187 10.6796875 2.87109375 C7.08293478 7.98595638 3.56109329 13.13285582 0.1640625 18.3828125 C-0.41214844 19.18332031 -0.41214844 19.18332031 -1 20 C-1.33 20 -1.66 20 -2 20 C-1.67 17.69 -1.34 15.38 -1 13 C-1.66 13 -2.32 13 -3 13 C-3.33 11.68 -3.66 10.36 -4 9 C-3.34 9 -2.68 9 -2 9 C-2 8.01 -2 7.02 -2 6 C-2 3 -2 3 0 0 Z " fill="#55AA22" transform="translate(118,67)"/>
<path d="M0 0 C2.67191864 1.81358208 4.70169131 3.70169131 7 6 C6.60723218 8.41345489 6.25776515 9.73045526 4.546875 11.51953125 C-0.29003021 15 -0.29003021 15 -3.75 15 C-6 14 -6 14 -9 11 C-6.03 11 -3.06 11 0 11 C0.66 8.36 1.32 5.72 2 3 C-8.28938717 -0.90207008 -18.48378038 -1.29920615 -29 2 C-28 0 -28 0 -25.9609375 -0.8515625 C-16.70064134 -3.62125833 -9.07625759 -3.62784527 0 0 Z " fill="#CAF48C" transform="translate(178,62)"/>
<path d="M0 0 C6.1792965 0.90198881 9.96327267 1.8947272 14 7 C14.8971875 8.0828125 14.8971875 8.0828125 15.8125 9.1875 C17.60646797 13.4363715 17.83253941 17.4656336 17 22 C15.5412853 24.27924172 14.20290462 25.34782154 12 27 C12 25.68 12 24.36 12 23 C12.66 23 13.32 23 14 23 C14.35403343 17.09944291 14.06647901 13.23856831 11 8 C11 7.34 11 6.68 11 6 C7.7 5.67 4.4 5.34 1 5 C0.67 3.35 0.34 1.7 0 0 Z " fill="#68AB3B" transform="translate(19,76)"/>
<path d="M0 0 C6.84840775 0.62258252 16.03619501 2.03619501 21 7 C17.875 6.47916667 14.75 5.95833333 11.625 5.4375 C10.325625 5.2209375 10.325625 5.2209375 9 5 C7.00335967 9.92504616 5.88097083 13.64368717 6 19 C5.67 19 5.34 19 5 19 C4.66127487 17.58461283 4.32925376 16.16762037 4 14.75 C3.814375 13.96109375 3.62875 13.1721875 3.4375 12.359375 C3 10 3 10 3 6 C2.34 6 1.68 6 1 6 C0.67 4.02 0.34 2.04 0 0 Z " fill="#6BAB3E" transform="translate(316,1)"/>
<path d="M0 0 C0.90105469 0.00902344 1.80210938 0.01804688 2.73046875 0.02734375 C3.41753906 0.03894531 4.10460937 0.05054688 4.8125 0.0625 C4.8125 2.0425 4.8125 4.0225 4.8125 6.0625 C3.8225 6.0625 2.8325 6.0625 1.8125 6.0625 C1.1525 7.3825 0.4925 8.7025 -0.1875 10.0625 C-1.3424921 9.32668258 -2.48624185 8.57319961 -3.625 7.8125 C-4.58212891 7.18601562 -4.58212891 7.18601562 -5.55859375 6.546875 C-7.48652057 4.79001123 -7.80229436 3.60160197 -8.1875 1.0625 C-5.17259443 0.05753148 -3.14568308 -0.04085303 0 0 Z " fill="#4AA913" transform="translate(95.1875,60.9375)"/>
<path d="M0 0 C1.32 0.33 2.64 0.66 4 1 C3.67 6.28 3.34 11.56 3 17 C6.49384279 18.16461426 9.33655389 18.13568319 13 18 C14.99616554 16.00383446 14.40983427 12.18298037 14.5625 9.4375 C14.60568359 8.72658203 14.64886719 8.01566406 14.69335938 7.28320312 C14.79971777 5.52238088 14.90038846 3.7612168 15 2 C15.33 2 15.66 2 16 2 C16.02684312 4.81256281 16.04676188 7.62487241 16.0625 10.4375 C16.07087891 11.23994141 16.07925781 12.04238281 16.08789062 12.86914062 C16.0965143 14.91295221 16.0522815 16.95683902 16 19 C15 20 15 20 12.09375 20.1328125 C10.9078125 20.13023438 9.721875 20.12765625 8.5 20.125 C7.3140625 20.12757812 6.128125 20.13015625 4.90625 20.1328125 C2 20 2 20 1 19 C0.84379445 17.58672053 0.74943827 16.1664541 0.68359375 14.74609375 C0.64169922 13.89208984 0.59980469 13.03808594 0.55664062 12.15820312 C0.51732422 11.26037109 0.47800781 10.36253906 0.4375 9.4375 C0.39431641 8.53580078 0.35113281 7.63410156 0.30664062 6.70507812 C0.20021858 4.47021515 0.09820012 2.23523692 0 0 Z " fill="#6DB755" transform="translate(100,86)"/>
<path d="M0 0 C2.60452271 0.14086602 5.20850197 0.28748464 7.8125 0.4375 C8.91948242 0.49647461 8.91948242 0.49647461 10.04882812 0.55664062 C13.23071342 0.74381035 15.96162378 0.98720793 19 2 C15.55549263 4.29633824 13.06187717 4.54016485 9 5 C9 4.34 9 3.68 9 3 C6.03 3 3.06 3 0 3 C0 5.31 0 7.62 0 10 C2.97 10.495 2.97 10.495 6 11 C6 11.66 6 12.32 6 13 C7.32 13.33 8.64 13.66 10 14 C8.39504433 13.88557539 6.79101881 13.75805306 5.1875 13.625 C3.84751953 13.52058594 3.84751953 13.52058594 2.48046875 13.4140625 C-0 13 -0 13 -3 11 C-2.44683414 7.03564468 -1.54379132 3.6837622 0 0 Z " fill="#6BA341" transform="translate(4,93)"/>
<path d="M0 0 C2.81256281 -0.02684312 5.62487241 -0.04676188 8.4375 -0.0625 C9.23994141 -0.07087891 10.04238281 -0.07925781 10.86914062 -0.08789062 C12.91295221 -0.0965143 14.95683902 -0.0522815 17 0 C18.66684015 1.66684015 18.21072764 3.65643069 18.25 5.9375 C18.27578125 6.83339844 18.3015625 7.72929688 18.328125 8.65234375 C18.21984375 9.42707031 18.1115625 10.20179687 18 11 C14.36693942 13.42204038 12.68180977 13.23302891 8.36328125 13.1953125 C6.41518555 13.18564453 6.41518555 13.18564453 4.42773438 13.17578125 C3.05598693 13.1590706 1.68424214 13.14214071 0.3125 13.125 C-1.07095718 13.11496674 -2.45442127 13.10584149 -3.83789062 13.09765625 C-7.22543452 13.07404967 -10.61263072 13.04112037 -14 13 C-14 12.67 -14 12.34 -14 12 C0.85 11.505 0.85 11.505 16 11 C16 8.03 16 5.06 16 2 C10.72 1.67 5.44 1.34 0 1 C0 0.67 0 0.34 0 0 Z " fill="#E4F8B9" transform="translate(288,95)"/>
<path d="M0 0 C0.66 0.33 1.32 0.66 2 1 C1.2884375 1.6496875 1.2884375 1.6496875 0.5625 2.3125 C-1.23686957 4.02309613 -1.23686957 4.02309613 -2 7 C-2.99 7.495 -2.99 7.495 -4 8 C-5.04616643 11.1384993 -5.04169366 13.05038303 -4.87890625 16.32421875 C-4.83056641 17.35224609 -4.78222656 18.38027344 -4.73242188 19.43945312 C-4.67634766 20.51130859 -4.62027344 21.58316406 -4.5625 22.6875 C-4.51029297 23.77095703 -4.45808594 24.85441406 -4.40429688 25.97070312 C-4.27458784 28.64742591 -4.13962067 31.32377888 -4 34 C-7.46491421 30.6986729 -7.87594956 28.63299181 -8.23828125 23.86328125 C-8.42500119 14.93020639 -7.76630934 8.28940786 -1.75 1.4375 C-1.1725 0.963125 -0.595 0.48875 0 0 Z " fill="#CCF58A" transform="translate(147,64)"/>
<path d="M0 0 C9.9 0 19.8 0 30 0 C30 0.99 30 1.98 30 3 C29.06027344 2.98259766 29.06027344 2.98259766 28.1015625 2.96484375 C26.87566406 2.95130859 26.87566406 2.95130859 25.625 2.9375 C24.40683594 2.92009766 24.40683594 2.92009766 23.1640625 2.90234375 C20.95062858 2.85533666 20.95062858 2.85533666 19 4 C19.33 5.98 19.66 7.96 20 10 C19.1028125 8.7934375 19.1028125 8.7934375 18.1875 7.5625 C16.19052724 4.77672016 16.19052724 4.77672016 13 4 C12.67 3.34 12.34 2.68 12 2 C9.1840151 1.53101037 9.1840151 1.53101037 5.9375 1.375 C4.28041016 1.26285156 4.28041016 1.26285156 2.58984375 1.1484375 C1.73519531 1.09945312 0.88054687 1.05046875 0 1 C0 0.67 0 0.34 0 0 Z " fill="#7ABF5F" transform="translate(69,59)"/>
<path d="M0 0 C0.66 0 1.32 0 2 0 C2 0.66 2 1.32 2 2 C2.66 2 3.32 2 4 2 C4 3.32 4 4.64 4 6 C3.34 6 2.68 6 2 6 C1.67 11.94 1.34 17.88 1 24 C-0.65 24.33 -2.3 24.66 -4 25 C-4.66 24.34 -5.32 23.68 -6 23 C-4.35 23 -2.7 23 -1 23 C-1.00523682 22.37432129 -1.01047363 21.74864258 -1.01586914 21.10400391 C-1.03661618 18.27767943 -1.04965286 15.45137095 -1.0625 12.625 C-1.07087891 11.64015625 -1.07925781 10.6553125 -1.08789062 9.640625 C-1.09111328 8.69960937 -1.09433594 7.75859375 -1.09765625 6.7890625 C-1.10289307 5.91975098 -1.10812988 5.05043945 -1.11352539 4.15478516 C-1 2 -1 2 0 0 Z " fill="#CCF592" transform="translate(324,83)"/>
<path d="M0 0 C2.5625 2.1875 2.5625 2.1875 5 5 C4.65234375 7.67578125 4.65234375 7.67578125 4 10 C1.41211799 9.99398167 -1.16379429 9.94659047 -3.75 9.875 C-4.84441406 9.87886719 -4.84441406 9.87886719 -5.9609375 9.8828125 C-8.109375 9.8046875 -8.109375 9.8046875 -12 9 C-14.515625 5.9453125 -14.515625 5.9453125 -16 3 C-14.68 3.33 -13.36 3.66 -12 4 C-12 4.66 -12 5.32 -12 6 C-5.07 6.495 -5.07 6.495 2 7 C1.34 6.01 0.68 5.02 0 4 C0 2.68 0 1.36 0 0 Z " fill="#609B38" transform="translate(79,97)"/>
<path d="M0 0 C-2.39763185 2.39763185 -3.33273498 2.34280586 -6.625 2.625 C-7.44226562 2.69976562 -8.25953125 2.77453125 -9.1015625 2.8515625 C-9.72804688 2.90054688 -10.35453125 2.94953125 -11 3 C-11 3.99 -11 4.98 -11 6 C-12 7 -13 8 -14 9 C-14.71447643 11.10332891 -14.71447643 11.10332891 -15 13 C-15.33 12.01 -15.66 11.02 -16 10 C-16.66 10 -17.32 10 -18 10 C-18 10.66 -18 11.32 -18 12 C-18.66 12 -19.32 12 -20 12 C-19.71076468 8.62558788 -19.02445309 7.03186311 -16.9375 4.3125 C-11.81243093 0.27787116 -6.43964044 -0.32198202 0 0 Z " fill="#68AC3B" transform="translate(22,58)"/>
<path d="M0 0 C0.33 0 0.66 0 1 0 C1 2.31 1 4.62 1 7 C6.28 7 11.56 7 17 7 C17.125 15.75 17.125 15.75 16 18 C14.35 18 12.7 18 11 18 C12.32 17.67 13.64 17.34 15 17 C15 14.36 15 11.72 15 9 C10.05 9 5.1 9 0 9 C0 6.03 0 3.06 0 0 Z " fill="#C7F38A" transform="translate(248,73)"/>
<path d="M0 0 C4.42051588 2.41119048 8.4942989 5.37306428 12 9 C12 9.66 12 10.32 12 11 C12.8971875 11.433125 12.8971875 11.433125 13.8125 11.875 C16 13 16 13 19 15 C19 15.66 19 16.32 19 17 C17.02 16.67 15.04 16.34 13 16 C13.33 15.34 13.66 14.68 14 14 C13.01 13.67 12.02 13.34 11 13 C11 12.34 11 11.68 11 11 C9.576875 10.62875 9.576875 10.62875 8.125 10.25 C5 9 5 9 3.8125 7.0625 C3.544375 6.381875 3.27625 5.70125 3 5 C2.46375 4.46375 1.9275 3.9275 1.375 3.375 C0.92125 2.92125 0.4675 2.4675 0 2 C0 1.34 0 0.68 0 0 Z " fill="#C4F67B" transform="translate(318,63)"/>
<path d="M0 0 C0.66 0 1.32 0 2 0 C2 0.66 2 1.32 2 2 C2.66 2.33 3.32 2.66 4 3 C3.67 3.66 3.34 4.32 3 5 C4.32 5.33 5.64 5.66 7 6 C7 6.66 7 7.32 7 8 C3.04 8 -0.92 8 -5 8 C-5.33 6.68 -5.66 5.36 -6 4 C-5.38125 3.896875 -4.7625 3.79375 -4.125 3.6875 C-1.63473516 3.12474627 -1.63473516 3.12474627 0 0 Z " fill="#4BAA13" transform="translate(74,96)"/>
<path d="M0 0 C3.3 0 6.6 0 10 0 C10 0.66 10 1.32 10 2 C7.36 2 4.72 2 2 2 C2.33 3.98 2.66 5.96 3 8 C5.31 8 7.62 8 10 8 C9.67 8.99 9.34 9.98 9 11 C2.25 11.125 2.25 11.125 0 10 C0 6.7 0 3.4 0 0 Z " fill="#C5F580" transform="translate(203,71)"/>
<path d="M0 0 C0.99 0.33 1.98 0.66 3 1 C-3.16042276 7.70398948 -8.23869717 9.38454422 -17.140625 9.94921875 C-20.20915782 10.00371455 -23.01887828 9.74528043 -26 9 C-26 8.67 -26 8.34 -26 8 C-19.07 7.34 -12.14 6.68 -5 6 C-5 5.34 -5 4.68 -5 4 C-3.35 3.67 -1.7 3.34 0 3 C0 2.01 0 1.02 0 0 Z " fill="#D3F484" transform="translate(181,99)"/>
<path d="M0 0 C0.66 0.33 1.32 0.66 2 1 C2 1.66 2 2.32 2 3 C1.34 3 0.68 3 0 3 C-0.2371875 3.556875 -0.474375 4.11375 -0.71875 4.6875 C-2.82864165 8.49559713 -5.94064009 11.40431802 -8.90625 14.5625 C-10.72572225 16.68069157 -11.91458493 18.45163418 -13 21 C-12.67 18.36 -12.34 15.72 -12 13 C-10.68 12.67 -9.36 12.34 -8 12 C-7.8453125 10.8553125 -7.8453125 10.8553125 -7.6875 9.6875 C-6.95288806 6.81583516 -6.3283935 5.76957906 -4 4 C-3.34 4 -2.68 4 -2 4 C-1.34 2.68 -0.68 1.36 0 0 Z " fill="#68AD47" transform="translate(81,62)"/>
<path d="M0 0 C2.475 0.495 2.475 0.495 5 1 C5.33 1.99 5.66 2.98 6 4 C10.29 3.34 14.58 2.68 19 2 C17 6 17 6 14 7.0625 C8.75842313 7.59441478 4.37880029 4.54622391 0 2 C0 1.34 0 0.68 0 0 Z " fill="#6CAD43" transform="translate(336,52)"/>
<path d="M0 0 C0.33 0.99 0.66 1.98 1 3 C1.99 3.33 2.98 3.66 4 4 C5.6875 7.0625 5.6875 7.0625 7 10 C2.94568308 11.15837626 0.78187881 10.83691257 -3 9 C-2.5359375 7.88625 -2.5359375 7.88625 -2.0625 6.75 C-1.1905075 4.49307824 -0.52332993 2.3549847 0 0 Z " fill="#5FAA2F" transform="translate(67,80)"/>
<path d="M0 0 C0.33 0 0.66 0 1 0 C1.1875 3.375 1.1875 3.375 1 7 C0.01 7.66 -0.98 8.32 -2 9 C-2.33 9.99 -2.66 10.98 -3 12 C-4.98 12.33 -6.96 12.66 -9 13 C-9 11.35 -9 9.7 -9 8 C-7.68 8.99 -6.36 9.98 -5 11 C-4.9175 10.484375 -4.835 9.96875 -4.75 9.4375 C-3.67859775 5.95544268 -1.86476395 3.12799115 0 0 Z " fill="#6AAA42" transform="translate(115,63)"/>
<path d="M0 0 C2.475 0.99 2.475 0.99 5 2 C4.25 9.625 4.25 9.625 2 13 C-0.97 12.67 -3.94 12.34 -7 12 C-7 11.67 -7 11.34 -7 11 C-4.36 10.67 -1.72 10.34 1 10 C1.33 7.36 1.66 4.72 2 2 C1.34 2 0.68 2 0 2 C0 1.34 0 0.68 0 0 Z " fill="#77AB57" transform="translate(28,59)"/>
<path d="M0 0 C1.32 0 2.64 0 4 0 C4.33 1.32 4.66 2.64 5 4 C7.97 4 10.94 4 14 4 C14 5.65 14 7.3 14 9 C8.60192974 8.22884711 5.25752312 6.46144578 1.6875 2.3125 C1.130625 1.549375 0.57375 0.78625 0 0 Z " fill="#B8F75D" transform="translate(337,97)"/>
<path d="M0 0 C1.18851563 0.00902344 2.37703125 0.01804688 3.6015625 0.02734375 C4.51679688 0.03894531 5.43203125 0.05054688 6.375 0.0625 C6.96484375 1.953125 6.96484375 1.953125 7.375 4.0625 C5.9375 5.8125 5.9375 5.8125 4.375 7.0625 C4.705 5.4125 5.035 3.7625 5.375 2.0625 C1.085 2.0625 -3.205 2.0625 -7.625 2.0625 C-7.625 2.7225 -7.625 3.3825 -7.625 4.0625 C-8.285 4.0625 -8.945 4.0625 -9.625 4.0625 C-9.295 3.0725 -8.965 2.0825 -8.625 1.0625 C-5.74084117 -0.37957941 -3.20778472 -0.03144887 0 0 Z " fill="#7FBA60" transform="translate(125.625,58.9375)"/>
<path d="M0 0 C2.6875 1.4375 2.6875 1.4375 5 4 C5.43770084 6.80235294 5.23839891 9.13921302 5 12 C2.0843836 8.45960866 -0.50127818 4.8373228 -3 1 C-2.01 0.67 -1.02 0.34 0 0 Z " fill="#63AC34" transform="translate(58,88)"/>
<path d="M0 0 C0 3.63 0 7.26 0 11 C-0.66 11 -1.32 11 -2 11 C-2 11.99 -2 12.98 -2 14 C-2.66 14 -3.32 14 -4 14 C-3.47731534 11.23723823 -2.89130413 8.6739124 -2 6 C-2.66 6 -3.32 6 -4 6 C-3.625 3.5625 -3.625 3.5625 -3 1 C-1 0 -1 0 0 0 Z " fill="#4FA30F" transform="translate(366,41)"/>
<path d="M0 0 C1.20849609 -0.00386719 1.20849609 -0.00386719 2.44140625 -0.0078125 C4.4375 0.125 4.4375 0.125 5.4375 1.125 C5.47813832 2.79117115 5.480221 4.45888095 5.4375 6.125 C4.4475 6.62 4.4475 6.62 3.4375 7.125 C3.1075 5.145 2.7775 3.165 2.4375 1.125 C0.4575 1.125 -1.5225 1.125 -3.5625 1.125 C-3.8925 3.105 -4.2225 5.085 -4.5625 7.125 C-5.2225 6.795 -5.8825 6.465 -6.5625 6.125 C-6.5625 4.475 -6.5625 2.825 -6.5625 1.125 C-4.1828388 -0.0648306 -2.64764265 -0.00849966 0 0 Z " fill="#4EA31C" transform="translate(49.5625,60.875)"/>
<path d="M0 0 C3.24220373 2.41086944 4.74914292 3.74218142 5.5546875 7.78125 C5.78808079 10.52538928 5.94696043 13.24676404 6 16 C5.34 16.33 4.68 16.66 4 17 C4 13.37 4 9.74 4 6 C3.34 6 2.68 6 2 6 C2 5.34 2 4.68 2 4 C0.02 3.34 -1.96 2.68 -4 2 C-2.68 1.34 -1.36 0.68 0 0 Z " fill="#CBF586" transform="translate(223,63)"/>
<path d="M0 0 C2.31 0.33 4.62 0.66 7 1 C6.43447641 4.28003681 5.67167078 5.97321527 3 8 C0.30078125 8.29296875 0.30078125 8.29296875 -2.6875 8.1875 C-3.68136719 8.16042969 -4.67523438 8.13335937 -5.69921875 8.10546875 C-6.45847656 8.07066406 -7.21773437 8.03585938 -8 8 C-8 7.67 -8 7.34 -8 7 C-5.36 7 -2.72 7 0 7 C0 6.34 0 5.68 0 5 C1.32 4.67 2.64 4.34 4 4 C4 3.01 4 2.02 4 1 C2.68 0.67 1.36 0.34 0 0 Z " fill="#BDF56D" transform="translate(168,90)"/>
<path d="M0 0 C0.33 0.66 0.66 1.32 1 2 C4.3 2 7.6 2 11 2 C7.1496895 4.56687367 5.41430237 3.83288724 1 3 C0.87625 3.804375 0.7525 4.60875 0.625 5.4375 C0.41875 6.283125 0.2125 7.12875 0 8 C-0.99 8.495 -0.99 8.495 -2 9 C-2.33 7.02 -2.66 5.04 -3 3 C-2.01 3 -1.02 3 0 3 C0 2.01 0 1.02 0 0 Z " fill="#6CA342" transform="translate(364,52)"/>
<path d="M0 0 C2 2 2 2 2.046875 5.40625 C1.9590458 6.77159481 1.85961134 8.13623104 1.75 9.5 C1.71003906 10.18964844 1.67007813 10.87929687 1.62890625 11.58984375 C1.25725446 16.74274554 1.25725446 16.74274554 -1 19 C-4.625 19.125 -4.625 19.125 -8 19 C-7.401875 18.731875 -6.80375 18.46375 -6.1875 18.1875 C-3.83743942 16.91175283 -2.60565531 16.14087374 -1 14 C-0.41781668 10.5776116 -0.41781668 10.5776116 -0.3125 6.8125 C-0.24675781 5.54019531 -0.18101563 4.26789063 -0.11328125 2.95703125 C-0.07589844 1.98121094 -0.03851563 1.00539063 0 0 Z " fill="#549E22" transform="translate(114,86)"/>
<path d="M0 0 C0.33 0 0.66 0 1 0 C1.66 2.64 2.32 5.28 3 8 C3.33 8 3.66 8 4 8 C4.98248524 12.0527516 5.08159574 15.83861737 5 20 C1.18964906 14.28447359 -0.55570361 6.8536779 0 0 Z " fill="#86B55C" transform="translate(322,20)"/>
<path d="M0 0 C0 0.99 0 1.98 0 3 C-0.99 3 -1.98 3 -3 3 C-3.2475 3.598125 -3.495 4.19625 -3.75 4.8125 C-5.16370012 7.28647521 -6.65055383 8.43370255 -9 10 C-9.66 9.67 -10.32 9.34 -11 9 C-9.87895467 7.68412059 -8.75303035 6.37239647 -7.625 5.0625 C-6.99851562 4.33160156 -6.37203125 3.60070313 -5.7265625 2.84765625 C-3.78013965 0.76471958 -2.86558444 0 0 0 Z " fill="#6DAD47" transform="translate(374,32)"/>
<path d="M0 0 C0.61875 0.63228516 0.61875 0.63228516 1.25 1.27734375 C5.79817661 5.59202022 8.73902584 6.7803167 15 7 C15 7.33 15 7.66 15 8 C13.41676312 8.027193 11.83338938 8.04648306 10.25 8.0625 C8.92742187 8.07990234 8.92742187 8.07990234 7.578125 8.09765625 C5.2181162 8.00826198 3.25501476 7.66912821 1 7 C0.67 4.69 0.34 2.38 0 0 Z " fill="#CBF384" transform="translate(153,89)"/>
<path d="M0 0 C4.62 0 9.24 0 14 0 C14 0.99 14 1.98 14 3 C7.07 2.505 7.07 2.505 0 2 C0 1.34 0 0.68 0 0 Z " fill="#8DC66F" transform="translate(85,59)"/>
<path d="M0 0 C0.20625 0.639375 0.4125 1.27875 0.625 1.9375 C1.89538209 4.34925077 1.89538209 4.34925077 5.125 4.75 C6.07375 4.8325 7.0225 4.915 8 5 C8 5.66 8 6.32 8 7 C9.32 7.33 10.64 7.66 12 8 C10.39504433 7.88557539 8.79101881 7.75805306 7.1875 7.625 C6.29417969 7.55539063 5.40085937 7.48578125 4.48046875 7.4140625 C2 7 2 7 -1 5 C-0.67 3.35 -0.34 1.7 0 0 Z " fill="#7AAF3F" transform="translate(2,99)"/>
<path d="M0 0 C4.50884026 2.31883213 6.93906776 5.06451569 10 9 C7.03 8.505 7.03 8.505 4 8 C3.67 7.01 3.34 6.02 3 5 C2.484375 4.484375 1.96875 3.96875 1.4375 3.4375 C0.963125 2.963125 0.48875 2.48875 0 2 C0 1.34 0 0.68 0 0 Z " fill="#CDF48D" transform="translate(318,63)"/>
<path d="M0 0 C0.99 0.33 1.98 0.66 3 1 C3 1.66 3 2.32 3 3 C2.34 3 1.68 3 1 3 C0.896875 3.7425 0.79375 4.485 0.6875 5.25 C-0.04253504 8.17014018 -1.06789398 9.73187554 -3 12 C-3.34833144 7.12335991 -2.41685712 4.22949995 0 0 Z " fill="#6DA547" transform="translate(387,33)"/>
<path d="M0 0 C0.66 0.33 1.32 0.66 2 1 C2.10815225 2.76949095 2.18566083 4.54087487 2.25 6.3125 C2.29640625 7.29863281 2.3428125 8.28476563 2.390625 9.30078125 C2 12 2 12 -0.015625 13.85546875 C-0.67046875 14.23316406 -1.3253125 14.61085938 -2 15 C-2 13.68 -2 12.36 -2 11 C-1.34 11 -0.68 11 0 11 C0 7.37 0 3.74 0 0 Z " fill="#5CA332" transform="translate(33,88)"/>
<path d="M0 0 C2 2 2 2 2.125 5.125 C2.08375 6.07375 2.0425 7.0225 2 8 C4.31 8.33 6.62 8.66 9 9 C6.64561267 10.42944945 5.51967567 11.08661261 2.75 10.625 C2.1725 10.41875 1.595 10.2125 1 10 C0.22157062 6.59437148 -0.09978121 3.49234244 0 0 Z " fill="#D1F599" transform="translate(163,82)"/>
<path d="M0 0 C0.99 0.33 1.98 0.66 3 1 C2.01 2.485 2.01 2.485 1 4 C0.34 4 -0.32 4 -1 4 C-1 4.66 -1 5.32 -1 6 C-2.65 6.66 -4.3 7.32 -6 8 C-5.67 6.68 -5.34 5.36 -5 4 C-4.01 4 -3.02 4 -2 4 C-2 3.01 -2 2.02 -2 1 C-1.34 0.67 -0.68 0.34 0 0 Z " fill="#70A84E" transform="translate(381,46)"/>
<path d="M0 0 C2.78211944 0.37596209 4.5879284 0.67318459 6.8125 2.4375 C8 4 8 4 8 6 C9.32 6 10.64 6 12 6 C12 6.66 12 7.32 12 8 C6.80421104 6.63919813 3.86388964 4.58789752 0 1 C0 0.67 0 0.34 0 0 Z " fill="#CFF68A" transform="translate(143,99)"/>
<path d="M0 0 C0.66 0.99 1.32 1.98 2 3 C-2.29 2.67 -6.58 2.34 -11 2 C-11.33 2.66 -11.66 3.32 -12 4 C-12 3.01 -12 2.02 -12 1 C-7.97542684 -0.34152439 -4.1944205 -0.27060777 0 0 Z " fill="#BCF469" transform="translate(167,70)"/>
<path d="M0 0 C7.57142857 4 7.57142857 4 10 8 C6.22745547 7.49019669 4.55012877 6.79299818 2 4 C1.34 4 0.68 4 0 4 C0 2.68 0 1.36 0 0 Z " fill="#6EAB45" transform="translate(340,9)"/>
<path d="M0 0 C0.66 0 1.32 0 2 0 C2 1.98 2 3.96 2 6 C-0 7 -0 7 -1 7 C-1.99 7.495 -1.99 7.495 -3 8 C-3 6.02 -3 4.04 -3 2 C-2.01 2 -1.02 2 0 2 C0 1.34 0 0.68 0 0 Z " fill="#5CB324" transform="translate(4,68)"/>
<path d="M0 0 C2 2 2 2 2.1953125 3.9453125 C2.13020833 5.96354167 2.06510417 7.98177083 2 10 C0.5 8.875 0.5 8.875 -1 7 C-1.25 3.875 -1.25 3.875 -1 1 C-0.67 0.67 -0.34 0.34 0 0 Z " fill="#BDF66E" transform="translate(212,92)"/>
<path d="M0 0 C0.99 0 1.98 0 3 0 C1.68775452 3.93673644 0.08089673 6.22719294 -3 9 C-3 7.35 -3 5.7 -3 4 C-2.34 4 -1.68 4 -1 4 C-0.67 2.68 -0.34 1.36 0 0 Z " fill="#72AD44" transform="translate(119,78)"/>
<path d="M0 0 C1.98 0.66 3.96 1.32 6 2 C6 2.99 6 3.98 6 5 C6.99 5.33 7.98 5.66 9 6 C9 6.66 9 7.32 9 8 C8.34 8 7.68 8 7 8 C7 7.34 7 6.68 7 6 C6.401875 5.7525 5.80375 5.505 5.1875 5.25 C2.71352479 3.83629988 1.56629745 2.34944617 0 0 Z " fill="#CCF48D" transform="translate(328,89)"/>
<path d="M0 0 C0.66 0.33 1.32 0.66 2 1 C2.625 4.0625 2.625 4.0625 3 7 C1.68 7.33 0.36 7.66 -1 8 C-1.04241723 5.66705225 -1.04092937 3.33297433 -1 1 C-0.67 0.67 -0.34 0.34 0 0 Z " fill="#4B9B12" transform="translate(354,46)"/>
<path d="M0 0 C2.5625 2.1875 2.5625 2.1875 5 5 C4.8125 7.8125 4.8125 7.8125 4 10 C3.34 9.34 2.68 8.68 2 8 C2.33 7.01 2.66 6.02 3 5 C2.01 4.67 1.02 4.34 0 4 C0 2.68 0 1.36 0 0 Z " fill="#78AA55" transform="translate(79,97)"/>
<path d="M0 0 C0.33 0 0.66 0 1 0 C1 1.65 1 3.3 1 5 C-0.98 5.33 -2.96 5.66 -5 6 C-5 4.35 -5 2.7 -5 1 C-3.68 1.99 -2.36 2.98 -1 4 C-0.67 2.68 -0.34 1.36 0 0 Z " fill="#78B157" transform="translate(111,70)"/>
<path d="M0 0 C2.97 0 5.94 0 9 0 C9 0.33 9 0.66 9 1 C6.69 1.33 4.38 1.66 2 2 C2.33 2.99 2.66 3.98 3 5 C2.01 5 1.02 5 0 5 C0 3.35 0 1.7 0 0 Z " fill="#63A33A" transform="translate(14,69)"/>
<path d="M0 0 C0.66 0 1.32 0 2 0 C3.06775224 1.96466413 4.06553465 3.96855359 5 6 C4.67 6.66 4.34 7.32 4 8 C2.68 7.34 1.36 6.68 0 6 C0 4.02 0 2.04 0 0 Z " fill="#C9F787" transform="translate(221,89)"/>
<path d="M0 0 C1.32 0.33 2.64 0.66 4 1 C3.67 2.32 3.34 3.64 3 5 C2.01 4.34 1.02 3.68 0 3 C-0.33 3.99 -0.66 4.98 -1 6 C-1.33 5.01 -1.66 4.02 -2 3 C-1.34 2.01 -0.68 1.02 0 0 Z " fill="#46AD0B" transform="translate(118,64)"/>
<path d="M0 0 C0.99 0.33 1.98 0.66 3 1 C0.6875 3.5 0.6875 3.5 -2 6 C-2.99 6 -3.98 6 -5 6 C-5 5.34 -5 4.68 -5 4 C-3.35 3.67 -1.7 3.34 0 3 C0 2.01 0 1.02 0 0 Z " fill="#C6F57E" transform="translate(181,99)"/>
<path d="M0 0 C1.32 0 2.64 0 4 0 C4 1.98 4 3.96 4 6 C3.01 6 2.02 6 1 6 C0.67 4.02 0.34 2.04 0 0 Z " fill="#C8F77A" transform="translate(213,73)"/>
<path d="M0 0 C1.32 0 2.64 0 4 0 C4.33 1.32 4.66 2.64 5 4 C5.66 4 6.32 4 7 4 C6.67 4.99 6.34 5.98 6 7 C4.02 4.69 2.04 2.38 0 0 Z " fill="#C7F788" transform="translate(337,97)"/>
<path d="M0 0 C-0.33 0.33 -0.66 0.66 -1 1 C-2.52519276 0.91062197 -4.04681929 0.75462854 -5.5625 0.5625 C-6.80193359 0.40974609 -6.80193359 0.40974609 -8.06640625 0.25390625 C-8.70449219 0.17011719 -9.34257812 0.08632812 -10 0 C-10 -0.33 -10 -0.66 -10 -1 C-5.92224809 -1.9267618 -3.57818963 -2.33958553 0 0 Z " fill="#B9F856" transform="translate(179,73)"/>
</svg>
